%TF.GenerationSoftware,KiCad,Pcbnew,10.0.2*%
%TF.CreationDate,2026-05-18T16:25:59+02:00*%
%TF.ProjectId,MiDi_Controller_Rev_1,4d694469-5f43-46f6-9e74-726f6c6c6572,1*%
%TF.SameCoordinates,Original*%
%TF.FileFunction,Legend,Bot*%
%TF.FilePolarity,Positive*%
%FSLAX46Y46*%
G04 Gerber Fmt 4.6, Leading zero omitted, Abs format (unit mm)*
G04 Created by KiCad (PCBNEW 10.0.2) date 2026-05-18 16:25:59*
%MOMM*%
%LPD*%
G01*
G04 APERTURE LIST*
G04 Aperture macros list*
%AMRoundRect*
0 Rectangle with rounded corners*
0 $1 Rounding radius*
0 $2 $3 $4 $5 $6 $7 $8 $9 X,Y pos of 4 corners*
0 Add a 4 corners polygon primitive as box body*
4,1,4,$2,$3,$4,$5,$6,$7,$8,$9,$2,$3,0*
0 Add four circle primitives for the rounded corners*
1,1,$1+$1,$2,$3*
1,1,$1+$1,$4,$5*
1,1,$1+$1,$6,$7*
1,1,$1+$1,$8,$9*
0 Add four rect primitives between the rounded corners*
20,1,$1+$1,$2,$3,$4,$5,0*
20,1,$1+$1,$4,$5,$6,$7,0*
20,1,$1+$1,$6,$7,$8,$9,0*
20,1,$1+$1,$8,$9,$2,$3,0*%
%AMFreePoly0*
4,1,23,0.550000,-0.750000,0.000000,-0.750000,0.000000,-0.745722,-0.065263,-0.745722,-0.191342,-0.711940,-0.304381,-0.646677,-0.396677,-0.554381,-0.461940,-0.441342,-0.495722,-0.315263,-0.495722,-0.250000,-0.500000,-0.250000,-0.500000,0.250000,-0.495722,0.250000,-0.495722,0.315263,-0.461940,0.441342,-0.396677,0.554381,-0.304381,0.646677,-0.191342,0.711940,-0.065263,0.745722,0.000000,0.745722,
0.000000,0.750000,0.550000,0.750000,0.550000,-0.750000,0.550000,-0.750000,$1*%
%AMFreePoly1*
4,1,23,0.000000,0.745722,0.065263,0.745722,0.191342,0.711940,0.304381,0.646677,0.396677,0.554381,0.461940,0.441342,0.495722,0.315263,0.495722,0.250000,0.500000,0.250000,0.500000,-0.250000,0.495722,-0.250000,0.495722,-0.315263,0.461940,-0.441342,0.396677,-0.554381,0.304381,-0.646677,0.191342,-0.711940,0.065263,-0.745722,0.000000,-0.745722,0.000000,-0.750000,-0.550000,-0.750000,
-0.550000,0.750000,0.000000,0.750000,0.000000,0.745722,0.000000,0.745722,$1*%
G04 Aperture macros list end*
%ADD10C,0.375000*%
%ADD11C,0.150000*%
%ADD12C,0.120000*%
%ADD13RoundRect,0.102000X-0.900000X0.900000X-0.900000X-0.900000X0.900000X-0.900000X0.900000X0.900000X0*%
%ADD14C,2.004000*%
%ADD15C,2.754000*%
%ADD16C,2.000000*%
%ADD17O,3.200000X1.900000*%
%ADD18C,3.600000*%
%ADD19C,6.400000*%
%ADD20C,0.650000*%
%ADD21O,1.000000X2.100000*%
%ADD22O,1.000000X1.800000*%
%ADD23RoundRect,0.625000X-0.625000X-0.625000X0.625000X-0.625000X0.625000X0.625000X-0.625000X0.625000X0*%
%ADD24O,2.200000X1.600000*%
%ADD25C,2.100000*%
%ADD26R,2.000000X2.000000*%
%ADD27R,3.200000X2.000000*%
%ADD28R,1.700000X1.700000*%
%ADD29C,1.700000*%
%ADD30RoundRect,0.250000X-0.262500X-0.450000X0.262500X-0.450000X0.262500X0.450000X-0.262500X0.450000X0*%
%ADD31RoundRect,0.250000X-0.325000X-0.650000X0.325000X-0.650000X0.325000X0.650000X-0.325000X0.650000X0*%
%ADD32RoundRect,0.250000X0.650000X-0.325000X0.650000X0.325000X-0.650000X0.325000X-0.650000X-0.325000X0*%
%ADD33RoundRect,0.250000X0.262500X0.450000X-0.262500X0.450000X-0.262500X-0.450000X0.262500X-0.450000X0*%
%ADD34FreePoly0,0.000000*%
%ADD35R,1.000000X1.500000*%
%ADD36FreePoly1,0.000000*%
%ADD37RoundRect,0.250000X-0.450000X0.262500X-0.450000X-0.262500X0.450000X-0.262500X0.450000X0.262500X0*%
%ADD38RoundRect,0.250000X0.325000X0.650000X-0.325000X0.650000X-0.325000X-0.650000X0.325000X-0.650000X0*%
%ADD39RoundRect,0.250000X-0.650000X0.325000X-0.650000X-0.325000X0.650000X-0.325000X0.650000X0.325000X0*%
G04 APERTURE END LIST*
D10*
X21352189Y-123800001D02*
X21209332Y-123942858D01*
X21209332Y-123942858D02*
X21066474Y-124371430D01*
X21066474Y-124371430D02*
X21066474Y-124657144D01*
X21066474Y-124657144D02*
X21209332Y-125085715D01*
X21209332Y-125085715D02*
X21495046Y-125371430D01*
X21495046Y-125371430D02*
X21780760Y-125514287D01*
X21780760Y-125514287D02*
X22352189Y-125657144D01*
X22352189Y-125657144D02*
X22780760Y-125657144D01*
X22780760Y-125657144D02*
X23352189Y-125514287D01*
X23352189Y-125514287D02*
X23637903Y-125371430D01*
X23637903Y-125371430D02*
X23923617Y-125085715D01*
X23923617Y-125085715D02*
X24066474Y-124657144D01*
X24066474Y-124657144D02*
X24066474Y-124371430D01*
X24066474Y-124371430D02*
X23923617Y-123942858D01*
X23923617Y-123942858D02*
X23780760Y-123800001D01*
X21066474Y-122085715D02*
X21209332Y-122371430D01*
X21209332Y-122371430D02*
X21352189Y-122514287D01*
X21352189Y-122514287D02*
X21637903Y-122657144D01*
X21637903Y-122657144D02*
X22495046Y-122657144D01*
X22495046Y-122657144D02*
X22780760Y-122514287D01*
X22780760Y-122514287D02*
X22923617Y-122371430D01*
X22923617Y-122371430D02*
X23066474Y-122085715D01*
X23066474Y-122085715D02*
X23066474Y-121657144D01*
X23066474Y-121657144D02*
X22923617Y-121371430D01*
X22923617Y-121371430D02*
X22780760Y-121228573D01*
X22780760Y-121228573D02*
X22495046Y-121085715D01*
X22495046Y-121085715D02*
X21637903Y-121085715D01*
X21637903Y-121085715D02*
X21352189Y-121228573D01*
X21352189Y-121228573D02*
X21209332Y-121371430D01*
X21209332Y-121371430D02*
X21066474Y-121657144D01*
X21066474Y-121657144D02*
X21066474Y-122085715D01*
X23066474Y-119800001D02*
X20066474Y-119800001D01*
X22923617Y-119800001D02*
X23066474Y-119514287D01*
X23066474Y-119514287D02*
X23066474Y-118942858D01*
X23066474Y-118942858D02*
X22923617Y-118657144D01*
X22923617Y-118657144D02*
X22780760Y-118514287D01*
X22780760Y-118514287D02*
X22495046Y-118371429D01*
X22495046Y-118371429D02*
X21637903Y-118371429D01*
X21637903Y-118371429D02*
X21352189Y-118514287D01*
X21352189Y-118514287D02*
X21209332Y-118657144D01*
X21209332Y-118657144D02*
X21066474Y-118942858D01*
X21066474Y-118942858D02*
X21066474Y-119514287D01*
X21066474Y-119514287D02*
X21209332Y-119800001D01*
X23066474Y-117371429D02*
X21066474Y-116657143D01*
X23066474Y-115942858D02*
X21066474Y-116657143D01*
X21066474Y-116657143D02*
X20352189Y-116942858D01*
X20352189Y-116942858D02*
X20209332Y-117085715D01*
X20209332Y-117085715D02*
X20066474Y-117371429D01*
X21066474Y-114800001D02*
X23066474Y-114800001D01*
X22495046Y-114800001D02*
X22780760Y-114657144D01*
X22780760Y-114657144D02*
X22923617Y-114514287D01*
X22923617Y-114514287D02*
X23066474Y-114228572D01*
X23066474Y-114228572D02*
X23066474Y-113942858D01*
X23066474Y-111657144D02*
X20637903Y-111657144D01*
X20637903Y-111657144D02*
X20352189Y-111800001D01*
X20352189Y-111800001D02*
X20209332Y-111942858D01*
X20209332Y-111942858D02*
X20066474Y-112228572D01*
X20066474Y-112228572D02*
X20066474Y-112657144D01*
X20066474Y-112657144D02*
X20209332Y-112942858D01*
X21209332Y-111657144D02*
X21066474Y-111942858D01*
X21066474Y-111942858D02*
X21066474Y-112514286D01*
X21066474Y-112514286D02*
X21209332Y-112800001D01*
X21209332Y-112800001D02*
X21352189Y-112942858D01*
X21352189Y-112942858D02*
X21637903Y-113085715D01*
X21637903Y-113085715D02*
X22495046Y-113085715D01*
X22495046Y-113085715D02*
X22780760Y-112942858D01*
X22780760Y-112942858D02*
X22923617Y-112800001D01*
X22923617Y-112800001D02*
X23066474Y-112514286D01*
X23066474Y-112514286D02*
X23066474Y-111942858D01*
X23066474Y-111942858D02*
X22923617Y-111657144D01*
X21066474Y-110228572D02*
X24066474Y-110228572D01*
X21066474Y-108942858D02*
X22637903Y-108942858D01*
X22637903Y-108942858D02*
X22923617Y-109085715D01*
X22923617Y-109085715D02*
X23066474Y-109371429D01*
X23066474Y-109371429D02*
X23066474Y-109800000D01*
X23066474Y-109800000D02*
X22923617Y-110085715D01*
X22923617Y-110085715D02*
X22780760Y-110228572D01*
X23066474Y-107942857D02*
X23066474Y-106800000D01*
X24066474Y-107514286D02*
X21495046Y-107514286D01*
X21495046Y-107514286D02*
X21209332Y-107371429D01*
X21209332Y-107371429D02*
X21066474Y-107085714D01*
X21066474Y-107085714D02*
X21066474Y-106800000D01*
X23780760Y-103657143D02*
X23923617Y-103514286D01*
X23923617Y-103514286D02*
X24066474Y-103228572D01*
X24066474Y-103228572D02*
X24066474Y-102514286D01*
X24066474Y-102514286D02*
X23923617Y-102228572D01*
X23923617Y-102228572D02*
X23780760Y-102085714D01*
X23780760Y-102085714D02*
X23495046Y-101942857D01*
X23495046Y-101942857D02*
X23209332Y-101942857D01*
X23209332Y-101942857D02*
X22780760Y-102085714D01*
X22780760Y-102085714D02*
X21066474Y-103800000D01*
X21066474Y-103800000D02*
X21066474Y-101942857D01*
X24066474Y-100085714D02*
X24066474Y-99800000D01*
X24066474Y-99800000D02*
X23923617Y-99514286D01*
X23923617Y-99514286D02*
X23780760Y-99371429D01*
X23780760Y-99371429D02*
X23495046Y-99228571D01*
X23495046Y-99228571D02*
X22923617Y-99085714D01*
X22923617Y-99085714D02*
X22209332Y-99085714D01*
X22209332Y-99085714D02*
X21637903Y-99228571D01*
X21637903Y-99228571D02*
X21352189Y-99371429D01*
X21352189Y-99371429D02*
X21209332Y-99514286D01*
X21209332Y-99514286D02*
X21066474Y-99800000D01*
X21066474Y-99800000D02*
X21066474Y-100085714D01*
X21066474Y-100085714D02*
X21209332Y-100371429D01*
X21209332Y-100371429D02*
X21352189Y-100514286D01*
X21352189Y-100514286D02*
X21637903Y-100657143D01*
X21637903Y-100657143D02*
X22209332Y-100800000D01*
X22209332Y-100800000D02*
X22923617Y-100800000D01*
X22923617Y-100800000D02*
X23495046Y-100657143D01*
X23495046Y-100657143D02*
X23780760Y-100514286D01*
X23780760Y-100514286D02*
X23923617Y-100371429D01*
X23923617Y-100371429D02*
X24066474Y-100085714D01*
X23780760Y-97942857D02*
X23923617Y-97800000D01*
X23923617Y-97800000D02*
X24066474Y-97514286D01*
X24066474Y-97514286D02*
X24066474Y-96800000D01*
X24066474Y-96800000D02*
X23923617Y-96514286D01*
X23923617Y-96514286D02*
X23780760Y-96371428D01*
X23780760Y-96371428D02*
X23495046Y-96228571D01*
X23495046Y-96228571D02*
X23209332Y-96228571D01*
X23209332Y-96228571D02*
X22780760Y-96371428D01*
X22780760Y-96371428D02*
X21066474Y-98085714D01*
X21066474Y-98085714D02*
X21066474Y-96228571D01*
X24066474Y-93657143D02*
X24066474Y-94228571D01*
X24066474Y-94228571D02*
X23923617Y-94514285D01*
X23923617Y-94514285D02*
X23780760Y-94657143D01*
X23780760Y-94657143D02*
X23352189Y-94942857D01*
X23352189Y-94942857D02*
X22780760Y-95085714D01*
X22780760Y-95085714D02*
X21637903Y-95085714D01*
X21637903Y-95085714D02*
X21352189Y-94942857D01*
X21352189Y-94942857D02*
X21209332Y-94800000D01*
X21209332Y-94800000D02*
X21066474Y-94514285D01*
X21066474Y-94514285D02*
X21066474Y-93942857D01*
X21066474Y-93942857D02*
X21209332Y-93657143D01*
X21209332Y-93657143D02*
X21352189Y-93514285D01*
X21352189Y-93514285D02*
X21637903Y-93371428D01*
X21637903Y-93371428D02*
X22352189Y-93371428D01*
X22352189Y-93371428D02*
X22637903Y-93514285D01*
X22637903Y-93514285D02*
X22780760Y-93657143D01*
X22780760Y-93657143D02*
X22923617Y-93942857D01*
X22923617Y-93942857D02*
X22923617Y-94514285D01*
X22923617Y-94514285D02*
X22780760Y-94800000D01*
X22780760Y-94800000D02*
X22637903Y-94942857D01*
X22637903Y-94942857D02*
X22352189Y-95085714D01*
X21923617Y-89942857D02*
X21923617Y-88514286D01*
X21066474Y-90228571D02*
X24066474Y-89228571D01*
X24066474Y-89228571D02*
X21066474Y-88228571D01*
X23066474Y-87228571D02*
X21066474Y-87228571D01*
X22780760Y-87228571D02*
X22923617Y-87085714D01*
X22923617Y-87085714D02*
X23066474Y-86799999D01*
X23066474Y-86799999D02*
X23066474Y-86371428D01*
X23066474Y-86371428D02*
X22923617Y-86085714D01*
X22923617Y-86085714D02*
X22637903Y-85942857D01*
X22637903Y-85942857D02*
X21066474Y-85942857D01*
X23066474Y-84942856D02*
X23066474Y-83799999D01*
X24066474Y-84514285D02*
X21495046Y-84514285D01*
X21495046Y-84514285D02*
X21209332Y-84371428D01*
X21209332Y-84371428D02*
X21066474Y-84085713D01*
X21066474Y-84085713D02*
X21066474Y-83799999D01*
X21066474Y-82371427D02*
X21209332Y-82657142D01*
X21209332Y-82657142D02*
X21352189Y-82799999D01*
X21352189Y-82799999D02*
X21637903Y-82942856D01*
X21637903Y-82942856D02*
X22495046Y-82942856D01*
X22495046Y-82942856D02*
X22780760Y-82799999D01*
X22780760Y-82799999D02*
X22923617Y-82657142D01*
X22923617Y-82657142D02*
X23066474Y-82371427D01*
X23066474Y-82371427D02*
X23066474Y-81942856D01*
X23066474Y-81942856D02*
X22923617Y-81657142D01*
X22923617Y-81657142D02*
X22780760Y-81514285D01*
X22780760Y-81514285D02*
X22495046Y-81371427D01*
X22495046Y-81371427D02*
X21637903Y-81371427D01*
X21637903Y-81371427D02*
X21352189Y-81514285D01*
X21352189Y-81514285D02*
X21209332Y-81657142D01*
X21209332Y-81657142D02*
X21066474Y-81942856D01*
X21066474Y-81942856D02*
X21066474Y-82371427D01*
X23066474Y-80085713D02*
X21066474Y-80085713D01*
X22780760Y-80085713D02*
X22923617Y-79942856D01*
X22923617Y-79942856D02*
X23066474Y-79657141D01*
X23066474Y-79657141D02*
X23066474Y-79228570D01*
X23066474Y-79228570D02*
X22923617Y-78942856D01*
X22923617Y-78942856D02*
X22637903Y-78799999D01*
X22637903Y-78799999D02*
X21066474Y-78799999D01*
X21066474Y-77371427D02*
X23066474Y-77371427D01*
X24066474Y-77371427D02*
X23923617Y-77514284D01*
X23923617Y-77514284D02*
X23780760Y-77371427D01*
X23780760Y-77371427D02*
X23923617Y-77228570D01*
X23923617Y-77228570D02*
X24066474Y-77371427D01*
X24066474Y-77371427D02*
X23780760Y-77371427D01*
X21066474Y-73657142D02*
X24066474Y-73657142D01*
X21066474Y-71942856D02*
X22780760Y-73228570D01*
X24066474Y-71942856D02*
X22352189Y-73657142D01*
X21066474Y-70228570D02*
X21209332Y-70514285D01*
X21209332Y-70514285D02*
X21352189Y-70657142D01*
X21352189Y-70657142D02*
X21637903Y-70799999D01*
X21637903Y-70799999D02*
X22495046Y-70799999D01*
X22495046Y-70799999D02*
X22780760Y-70657142D01*
X22780760Y-70657142D02*
X22923617Y-70514285D01*
X22923617Y-70514285D02*
X23066474Y-70228570D01*
X23066474Y-70228570D02*
X23066474Y-69799999D01*
X23066474Y-69799999D02*
X22923617Y-69514285D01*
X22923617Y-69514285D02*
X22780760Y-69371428D01*
X22780760Y-69371428D02*
X22495046Y-69228570D01*
X22495046Y-69228570D02*
X21637903Y-69228570D01*
X21637903Y-69228570D02*
X21352189Y-69371428D01*
X21352189Y-69371428D02*
X21209332Y-69514285D01*
X21209332Y-69514285D02*
X21066474Y-69799999D01*
X21066474Y-69799999D02*
X21066474Y-70228570D01*
X21066474Y-67514284D02*
X21209332Y-67799999D01*
X21209332Y-67799999D02*
X21495046Y-67942856D01*
X21495046Y-67942856D02*
X24066474Y-67942856D01*
X22495046Y-68371427D02*
X23066474Y-67514284D01*
X21066474Y-65085713D02*
X22637903Y-65085713D01*
X22637903Y-65085713D02*
X22923617Y-65228570D01*
X22923617Y-65228570D02*
X23066474Y-65514284D01*
X23066474Y-65514284D02*
X23066474Y-66085713D01*
X23066474Y-66085713D02*
X22923617Y-66371427D01*
X21209332Y-65085713D02*
X21066474Y-65371427D01*
X21066474Y-65371427D02*
X21066474Y-66085713D01*
X21066474Y-66085713D02*
X21209332Y-66371427D01*
X21209332Y-66371427D02*
X21495046Y-66514284D01*
X21495046Y-66514284D02*
X21780760Y-66514284D01*
X21780760Y-66514284D02*
X22066474Y-66371427D01*
X22066474Y-66371427D02*
X22209332Y-66085713D01*
X22209332Y-66085713D02*
X22209332Y-65371427D01*
X22209332Y-65371427D02*
X22352189Y-65085713D01*
X21209332Y-62371427D02*
X21066474Y-62657141D01*
X21066474Y-62657141D02*
X21066474Y-63228569D01*
X21066474Y-63228569D02*
X21209332Y-63514284D01*
X21209332Y-63514284D02*
X21352189Y-63657141D01*
X21352189Y-63657141D02*
X21637903Y-63799998D01*
X21637903Y-63799998D02*
X22495046Y-63799998D01*
X22495046Y-63799998D02*
X22780760Y-63657141D01*
X22780760Y-63657141D02*
X22923617Y-63514284D01*
X22923617Y-63514284D02*
X23066474Y-63228569D01*
X23066474Y-63228569D02*
X23066474Y-62657141D01*
X23066474Y-62657141D02*
X22923617Y-62371427D01*
X23066474Y-61371426D02*
X23066474Y-59799998D01*
X23066474Y-59799998D02*
X21066474Y-61371426D01*
X21066474Y-61371426D02*
X21066474Y-59799998D01*
X21209332Y-57514284D02*
X21066474Y-57799998D01*
X21066474Y-57799998D02*
X21066474Y-58371427D01*
X21066474Y-58371427D02*
X21209332Y-58657141D01*
X21209332Y-58657141D02*
X21495046Y-58799998D01*
X21495046Y-58799998D02*
X22637903Y-58799998D01*
X22637903Y-58799998D02*
X22923617Y-58657141D01*
X22923617Y-58657141D02*
X23066474Y-58371427D01*
X23066474Y-58371427D02*
X23066474Y-57799998D01*
X23066474Y-57799998D02*
X22923617Y-57514284D01*
X22923617Y-57514284D02*
X22637903Y-57371427D01*
X22637903Y-57371427D02*
X22352189Y-57371427D01*
X22352189Y-57371427D02*
X22066474Y-58799998D01*
X21066474Y-56085712D02*
X24066474Y-56085712D01*
X22209332Y-55799998D02*
X21066474Y-54942855D01*
X23066474Y-54942855D02*
X21923617Y-56085712D01*
X19093785Y-139871427D02*
X19236642Y-140157142D01*
X19236642Y-140157142D02*
X19236642Y-140585713D01*
X19236642Y-140585713D02*
X19093785Y-141014284D01*
X19093785Y-141014284D02*
X18808071Y-141299999D01*
X18808071Y-141299999D02*
X18522357Y-141442856D01*
X18522357Y-141442856D02*
X17950928Y-141585713D01*
X17950928Y-141585713D02*
X17522357Y-141585713D01*
X17522357Y-141585713D02*
X16950928Y-141442856D01*
X16950928Y-141442856D02*
X16665214Y-141299999D01*
X16665214Y-141299999D02*
X16379500Y-141014284D01*
X16379500Y-141014284D02*
X16236642Y-140585713D01*
X16236642Y-140585713D02*
X16236642Y-140299999D01*
X16236642Y-140299999D02*
X16379500Y-139871427D01*
X16379500Y-139871427D02*
X16522357Y-139728570D01*
X16522357Y-139728570D02*
X17522357Y-139728570D01*
X17522357Y-139728570D02*
X17522357Y-140299999D01*
X16236642Y-138442856D02*
X18236642Y-138442856D01*
X19236642Y-138442856D02*
X19093785Y-138585713D01*
X19093785Y-138585713D02*
X18950928Y-138442856D01*
X18950928Y-138442856D02*
X19093785Y-138299999D01*
X19093785Y-138299999D02*
X19236642Y-138442856D01*
X19236642Y-138442856D02*
X18950928Y-138442856D01*
X18236642Y-137442856D02*
X18236642Y-136299999D01*
X19236642Y-137014285D02*
X16665214Y-137014285D01*
X16665214Y-137014285D02*
X16379500Y-136871428D01*
X16379500Y-136871428D02*
X16236642Y-136585713D01*
X16236642Y-136585713D02*
X16236642Y-136299999D01*
X16236642Y-135299999D02*
X19236642Y-135299999D01*
X17808071Y-135299999D02*
X17808071Y-133585713D01*
X16236642Y-133585713D02*
X19236642Y-133585713D01*
X18236642Y-130871428D02*
X16236642Y-130871428D01*
X18236642Y-132157142D02*
X16665214Y-132157142D01*
X16665214Y-132157142D02*
X16379500Y-132014285D01*
X16379500Y-132014285D02*
X16236642Y-131728570D01*
X16236642Y-131728570D02*
X16236642Y-131299999D01*
X16236642Y-131299999D02*
X16379500Y-131014285D01*
X16379500Y-131014285D02*
X16522357Y-130871428D01*
X16236642Y-129442856D02*
X19236642Y-129442856D01*
X18093785Y-129442856D02*
X18236642Y-129157142D01*
X18236642Y-129157142D02*
X18236642Y-128585713D01*
X18236642Y-128585713D02*
X18093785Y-128299999D01*
X18093785Y-128299999D02*
X17950928Y-128157142D01*
X17950928Y-128157142D02*
X17665214Y-128014284D01*
X17665214Y-128014284D02*
X16808071Y-128014284D01*
X16808071Y-128014284D02*
X16522357Y-128157142D01*
X16522357Y-128157142D02*
X16379500Y-128299999D01*
X16379500Y-128299999D02*
X16236642Y-128585713D01*
X16236642Y-128585713D02*
X16236642Y-129157142D01*
X16236642Y-129157142D02*
X16379500Y-129442856D01*
X16522357Y-126728570D02*
X16379500Y-126585713D01*
X16379500Y-126585713D02*
X16236642Y-126728570D01*
X16236642Y-126728570D02*
X16379500Y-126871427D01*
X16379500Y-126871427D02*
X16522357Y-126728570D01*
X16522357Y-126728570D02*
X16236642Y-126728570D01*
X18093785Y-126728570D02*
X17950928Y-126585713D01*
X17950928Y-126585713D02*
X17808071Y-126728570D01*
X17808071Y-126728570D02*
X17950928Y-126871427D01*
X17950928Y-126871427D02*
X18093785Y-126728570D01*
X18093785Y-126728570D02*
X17808071Y-126728570D01*
X16236642Y-123014285D02*
X19236642Y-123014285D01*
X16236642Y-121728571D02*
X17808071Y-121728571D01*
X17808071Y-121728571D02*
X18093785Y-121871428D01*
X18093785Y-121871428D02*
X18236642Y-122157142D01*
X18236642Y-122157142D02*
X18236642Y-122585713D01*
X18236642Y-122585713D02*
X18093785Y-122871428D01*
X18093785Y-122871428D02*
X17950928Y-123014285D01*
X18236642Y-120728570D02*
X18236642Y-119585713D01*
X19236642Y-120299999D02*
X16665214Y-120299999D01*
X16665214Y-120299999D02*
X16379500Y-120157142D01*
X16379500Y-120157142D02*
X16236642Y-119871427D01*
X16236642Y-119871427D02*
X16236642Y-119585713D01*
X18236642Y-119014284D02*
X18236642Y-117871427D01*
X19236642Y-118585713D02*
X16665214Y-118585713D01*
X16665214Y-118585713D02*
X16379500Y-118442856D01*
X16379500Y-118442856D02*
X16236642Y-118157141D01*
X16236642Y-118157141D02*
X16236642Y-117871427D01*
X18236642Y-116871427D02*
X15236642Y-116871427D01*
X18093785Y-116871427D02*
X18236642Y-116585713D01*
X18236642Y-116585713D02*
X18236642Y-116014284D01*
X18236642Y-116014284D02*
X18093785Y-115728570D01*
X18093785Y-115728570D02*
X17950928Y-115585713D01*
X17950928Y-115585713D02*
X17665214Y-115442855D01*
X17665214Y-115442855D02*
X16808071Y-115442855D01*
X16808071Y-115442855D02*
X16522357Y-115585713D01*
X16522357Y-115585713D02*
X16379500Y-115728570D01*
X16379500Y-115728570D02*
X16236642Y-116014284D01*
X16236642Y-116014284D02*
X16236642Y-116585713D01*
X16236642Y-116585713D02*
X16379500Y-116871427D01*
X16379500Y-114299998D02*
X16236642Y-114014284D01*
X16236642Y-114014284D02*
X16236642Y-113442855D01*
X16236642Y-113442855D02*
X16379500Y-113157141D01*
X16379500Y-113157141D02*
X16665214Y-113014284D01*
X16665214Y-113014284D02*
X16808071Y-113014284D01*
X16808071Y-113014284D02*
X17093785Y-113157141D01*
X17093785Y-113157141D02*
X17236642Y-113442855D01*
X17236642Y-113442855D02*
X17236642Y-113871427D01*
X17236642Y-113871427D02*
X17379500Y-114157141D01*
X17379500Y-114157141D02*
X17665214Y-114299998D01*
X17665214Y-114299998D02*
X17808071Y-114299998D01*
X17808071Y-114299998D02*
X18093785Y-114157141D01*
X18093785Y-114157141D02*
X18236642Y-113871427D01*
X18236642Y-113871427D02*
X18236642Y-113442855D01*
X18236642Y-113442855D02*
X18093785Y-113157141D01*
X16522357Y-111728570D02*
X16379500Y-111585713D01*
X16379500Y-111585713D02*
X16236642Y-111728570D01*
X16236642Y-111728570D02*
X16379500Y-111871427D01*
X16379500Y-111871427D02*
X16522357Y-111728570D01*
X16522357Y-111728570D02*
X16236642Y-111728570D01*
X18093785Y-111728570D02*
X17950928Y-111585713D01*
X17950928Y-111585713D02*
X17808071Y-111728570D01*
X17808071Y-111728570D02*
X17950928Y-111871427D01*
X17950928Y-111871427D02*
X18093785Y-111728570D01*
X18093785Y-111728570D02*
X17808071Y-111728570D01*
X19379500Y-108157142D02*
X15522357Y-110728570D01*
X19379500Y-105014285D02*
X15522357Y-107585713D01*
X16236642Y-104014285D02*
X19236642Y-104014285D01*
X18093785Y-104014285D02*
X18236642Y-103728571D01*
X18236642Y-103728571D02*
X18236642Y-103157142D01*
X18236642Y-103157142D02*
X18093785Y-102871428D01*
X18093785Y-102871428D02*
X17950928Y-102728571D01*
X17950928Y-102728571D02*
X17665214Y-102585713D01*
X17665214Y-102585713D02*
X16808071Y-102585713D01*
X16808071Y-102585713D02*
X16522357Y-102728571D01*
X16522357Y-102728571D02*
X16379500Y-102871428D01*
X16379500Y-102871428D02*
X16236642Y-103157142D01*
X16236642Y-103157142D02*
X16236642Y-103728571D01*
X16236642Y-103728571D02*
X16379500Y-104014285D01*
X16236642Y-101299999D02*
X18236642Y-101299999D01*
X19236642Y-101299999D02*
X19093785Y-101442856D01*
X19093785Y-101442856D02*
X18950928Y-101299999D01*
X18950928Y-101299999D02*
X19093785Y-101157142D01*
X19093785Y-101157142D02*
X19236642Y-101299999D01*
X19236642Y-101299999D02*
X18950928Y-101299999D01*
X18236642Y-100299999D02*
X18236642Y-99157142D01*
X19236642Y-99871428D02*
X16665214Y-99871428D01*
X16665214Y-99871428D02*
X16379500Y-99728571D01*
X16379500Y-99728571D02*
X16236642Y-99442856D01*
X16236642Y-99442856D02*
X16236642Y-99157142D01*
X16522357Y-98157142D02*
X16379500Y-98014285D01*
X16379500Y-98014285D02*
X16236642Y-98157142D01*
X16236642Y-98157142D02*
X16379500Y-98299999D01*
X16379500Y-98299999D02*
X16522357Y-98157142D01*
X16522357Y-98157142D02*
X16236642Y-98157142D01*
X16236642Y-96299999D02*
X16379500Y-96585714D01*
X16379500Y-96585714D02*
X16665214Y-96728571D01*
X16665214Y-96728571D02*
X19236642Y-96728571D01*
X18236642Y-95442856D02*
X16236642Y-94728570D01*
X18236642Y-94014285D02*
X16236642Y-94728570D01*
X16236642Y-94728570D02*
X15522357Y-95014285D01*
X15522357Y-95014285D02*
X15379500Y-95157142D01*
X15379500Y-95157142D02*
X15236642Y-95442856D01*
X19379500Y-90728571D02*
X15522357Y-93299999D01*
X16236642Y-89728571D02*
X19236642Y-89728571D01*
X19236642Y-89728571D02*
X17093785Y-88728571D01*
X17093785Y-88728571D02*
X19236642Y-87728571D01*
X19236642Y-87728571D02*
X16236642Y-87728571D01*
X16236642Y-86300000D02*
X19236642Y-86300000D01*
X16236642Y-84871429D02*
X19236642Y-84871429D01*
X19236642Y-84871429D02*
X19236642Y-84157143D01*
X19236642Y-84157143D02*
X19093785Y-83728572D01*
X19093785Y-83728572D02*
X18808071Y-83442857D01*
X18808071Y-83442857D02*
X18522357Y-83300000D01*
X18522357Y-83300000D02*
X17950928Y-83157143D01*
X17950928Y-83157143D02*
X17522357Y-83157143D01*
X17522357Y-83157143D02*
X16950928Y-83300000D01*
X16950928Y-83300000D02*
X16665214Y-83442857D01*
X16665214Y-83442857D02*
X16379500Y-83728572D01*
X16379500Y-83728572D02*
X16236642Y-84157143D01*
X16236642Y-84157143D02*
X16236642Y-84871429D01*
X16236642Y-81871429D02*
X19236642Y-81871429D01*
X17379500Y-80442858D02*
X17379500Y-78157144D01*
X16236642Y-76728572D02*
X18236642Y-76728572D01*
X17950928Y-76728572D02*
X18093785Y-76585715D01*
X18093785Y-76585715D02*
X18236642Y-76300000D01*
X18236642Y-76300000D02*
X18236642Y-75871429D01*
X18236642Y-75871429D02*
X18093785Y-75585715D01*
X18093785Y-75585715D02*
X17808071Y-75442858D01*
X17808071Y-75442858D02*
X16236642Y-75442858D01*
X17808071Y-75442858D02*
X18093785Y-75300000D01*
X18093785Y-75300000D02*
X18236642Y-75014286D01*
X18236642Y-75014286D02*
X18236642Y-74585715D01*
X18236642Y-74585715D02*
X18093785Y-74300000D01*
X18093785Y-74300000D02*
X17808071Y-74157143D01*
X17808071Y-74157143D02*
X16236642Y-74157143D01*
X16236642Y-72728572D02*
X18236642Y-72728572D01*
X19236642Y-72728572D02*
X19093785Y-72871429D01*
X19093785Y-72871429D02*
X18950928Y-72728572D01*
X18950928Y-72728572D02*
X19093785Y-72585715D01*
X19093785Y-72585715D02*
X19236642Y-72728572D01*
X19236642Y-72728572D02*
X18950928Y-72728572D01*
X16236642Y-71585715D02*
X18236642Y-70014287D01*
X18236642Y-71585715D02*
X16236642Y-70014287D01*
X16379500Y-67728573D02*
X16236642Y-68014287D01*
X16236642Y-68014287D02*
X16236642Y-68585716D01*
X16236642Y-68585716D02*
X16379500Y-68871430D01*
X16379500Y-68871430D02*
X16665214Y-69014287D01*
X16665214Y-69014287D02*
X17808071Y-69014287D01*
X17808071Y-69014287D02*
X18093785Y-68871430D01*
X18093785Y-68871430D02*
X18236642Y-68585716D01*
X18236642Y-68585716D02*
X18236642Y-68014287D01*
X18236642Y-68014287D02*
X18093785Y-67728573D01*
X18093785Y-67728573D02*
X17808071Y-67585716D01*
X17808071Y-67585716D02*
X17522357Y-67585716D01*
X17522357Y-67585716D02*
X17236642Y-69014287D01*
X16236642Y-66300001D02*
X18236642Y-66300001D01*
X17665214Y-66300001D02*
X17950928Y-66157144D01*
X17950928Y-66157144D02*
X18093785Y-66014287D01*
X18093785Y-66014287D02*
X18236642Y-65728572D01*
X18236642Y-65728572D02*
X18236642Y-65442858D01*
X17379500Y-64442858D02*
X17379500Y-62157144D01*
X16236642Y-60728572D02*
X19236642Y-60728572D01*
X18093785Y-60728572D02*
X18236642Y-60442858D01*
X18236642Y-60442858D02*
X18236642Y-59871429D01*
X18236642Y-59871429D02*
X18093785Y-59585715D01*
X18093785Y-59585715D02*
X17950928Y-59442858D01*
X17950928Y-59442858D02*
X17665214Y-59300000D01*
X17665214Y-59300000D02*
X16808071Y-59300000D01*
X16808071Y-59300000D02*
X16522357Y-59442858D01*
X16522357Y-59442858D02*
X16379500Y-59585715D01*
X16379500Y-59585715D02*
X16236642Y-59871429D01*
X16236642Y-59871429D02*
X16236642Y-60442858D01*
X16236642Y-60442858D02*
X16379500Y-60728572D01*
X18236642Y-58300000D02*
X16236642Y-57585714D01*
X18236642Y-56871429D02*
X16236642Y-57585714D01*
X16236642Y-57585714D02*
X15522357Y-57871429D01*
X15522357Y-57871429D02*
X15379500Y-58014286D01*
X15379500Y-58014286D02*
X15236642Y-58300000D01*
X17379500Y-55728572D02*
X17379500Y-53442858D01*
X17093785Y-52157143D02*
X17093785Y-50728572D01*
X16236642Y-52442857D02*
X19236642Y-51442857D01*
X19236642Y-51442857D02*
X16236642Y-50442857D01*
X16236642Y-49442857D02*
X19236642Y-49442857D01*
X19236642Y-49442857D02*
X16236642Y-47728571D01*
X16236642Y-47728571D02*
X19236642Y-47728571D01*
X19236642Y-46728571D02*
X19236642Y-45014286D01*
X16236642Y-45871428D02*
X19236642Y-45871428D01*
X19236642Y-43442857D02*
X19236642Y-42871429D01*
X19236642Y-42871429D02*
X19093785Y-42585714D01*
X19093785Y-42585714D02*
X18808071Y-42300000D01*
X18808071Y-42300000D02*
X18236642Y-42157143D01*
X18236642Y-42157143D02*
X17236642Y-42157143D01*
X17236642Y-42157143D02*
X16665214Y-42300000D01*
X16665214Y-42300000D02*
X16379500Y-42585714D01*
X16379500Y-42585714D02*
X16236642Y-42871429D01*
X16236642Y-42871429D02*
X16236642Y-43442857D01*
X16236642Y-43442857D02*
X16379500Y-43728572D01*
X16379500Y-43728572D02*
X16665214Y-44014286D01*
X16665214Y-44014286D02*
X17236642Y-44157143D01*
X17236642Y-44157143D02*
X18236642Y-44157143D01*
X18236642Y-44157143D02*
X18808071Y-44014286D01*
X18808071Y-44014286D02*
X19093785Y-43728572D01*
X19093785Y-43728572D02*
X19236642Y-43442857D01*
X16236642Y-40871429D02*
X19236642Y-40871429D01*
X19236642Y-40871429D02*
X16236642Y-39157143D01*
X16236642Y-39157143D02*
X19236642Y-39157143D01*
D11*
X275742857Y-120554819D02*
X276076190Y-120078628D01*
X276314285Y-120554819D02*
X276314285Y-119554819D01*
X276314285Y-119554819D02*
X275933333Y-119554819D01*
X275933333Y-119554819D02*
X275838095Y-119602438D01*
X275838095Y-119602438D02*
X275790476Y-119650057D01*
X275790476Y-119650057D02*
X275742857Y-119745295D01*
X275742857Y-119745295D02*
X275742857Y-119888152D01*
X275742857Y-119888152D02*
X275790476Y-119983390D01*
X275790476Y-119983390D02*
X275838095Y-120031009D01*
X275838095Y-120031009D02*
X275933333Y-120078628D01*
X275933333Y-120078628D02*
X276314285Y-120078628D01*
X275409523Y-119554819D02*
X274742857Y-119554819D01*
X274742857Y-119554819D02*
X275171428Y-120554819D01*
X274171428Y-119554819D02*
X274076190Y-119554819D01*
X274076190Y-119554819D02*
X273980952Y-119602438D01*
X273980952Y-119602438D02*
X273933333Y-119650057D01*
X273933333Y-119650057D02*
X273885714Y-119745295D01*
X273885714Y-119745295D02*
X273838095Y-119935771D01*
X273838095Y-119935771D02*
X273838095Y-120173866D01*
X273838095Y-120173866D02*
X273885714Y-120364342D01*
X273885714Y-120364342D02*
X273933333Y-120459580D01*
X273933333Y-120459580D02*
X273980952Y-120507200D01*
X273980952Y-120507200D02*
X274076190Y-120554819D01*
X274076190Y-120554819D02*
X274171428Y-120554819D01*
X274171428Y-120554819D02*
X274266666Y-120507200D01*
X274266666Y-120507200D02*
X274314285Y-120459580D01*
X274314285Y-120459580D02*
X274361904Y-120364342D01*
X274361904Y-120364342D02*
X274409523Y-120173866D01*
X274409523Y-120173866D02*
X274409523Y-119935771D01*
X274409523Y-119935771D02*
X274361904Y-119745295D01*
X274361904Y-119745295D02*
X274314285Y-119650057D01*
X274314285Y-119650057D02*
X274266666Y-119602438D01*
X274266666Y-119602438D02*
X274171428Y-119554819D01*
X275742857Y-102754819D02*
X276076190Y-102278628D01*
X276314285Y-102754819D02*
X276314285Y-101754819D01*
X276314285Y-101754819D02*
X275933333Y-101754819D01*
X275933333Y-101754819D02*
X275838095Y-101802438D01*
X275838095Y-101802438D02*
X275790476Y-101850057D01*
X275790476Y-101850057D02*
X275742857Y-101945295D01*
X275742857Y-101945295D02*
X275742857Y-102088152D01*
X275742857Y-102088152D02*
X275790476Y-102183390D01*
X275790476Y-102183390D02*
X275838095Y-102231009D01*
X275838095Y-102231009D02*
X275933333Y-102278628D01*
X275933333Y-102278628D02*
X276314285Y-102278628D01*
X274838095Y-101754819D02*
X275314285Y-101754819D01*
X275314285Y-101754819D02*
X275361904Y-102231009D01*
X275361904Y-102231009D02*
X275314285Y-102183390D01*
X275314285Y-102183390D02*
X275219047Y-102135771D01*
X275219047Y-102135771D02*
X274980952Y-102135771D01*
X274980952Y-102135771D02*
X274885714Y-102183390D01*
X274885714Y-102183390D02*
X274838095Y-102231009D01*
X274838095Y-102231009D02*
X274790476Y-102326247D01*
X274790476Y-102326247D02*
X274790476Y-102564342D01*
X274790476Y-102564342D02*
X274838095Y-102659580D01*
X274838095Y-102659580D02*
X274885714Y-102707200D01*
X274885714Y-102707200D02*
X274980952Y-102754819D01*
X274980952Y-102754819D02*
X275219047Y-102754819D01*
X275219047Y-102754819D02*
X275314285Y-102707200D01*
X275314285Y-102707200D02*
X275361904Y-102659580D01*
X273933333Y-102088152D02*
X273933333Y-102754819D01*
X274171428Y-101707200D02*
X274409523Y-102421485D01*
X274409523Y-102421485D02*
X273790476Y-102421485D01*
X272066666Y-18009580D02*
X272114285Y-18057200D01*
X272114285Y-18057200D02*
X272257142Y-18104819D01*
X272257142Y-18104819D02*
X272352380Y-18104819D01*
X272352380Y-18104819D02*
X272495237Y-18057200D01*
X272495237Y-18057200D02*
X272590475Y-17961961D01*
X272590475Y-17961961D02*
X272638094Y-17866723D01*
X272638094Y-17866723D02*
X272685713Y-17676247D01*
X272685713Y-17676247D02*
X272685713Y-17533390D01*
X272685713Y-17533390D02*
X272638094Y-17342914D01*
X272638094Y-17342914D02*
X272590475Y-17247676D01*
X272590475Y-17247676D02*
X272495237Y-17152438D01*
X272495237Y-17152438D02*
X272352380Y-17104819D01*
X272352380Y-17104819D02*
X272257142Y-17104819D01*
X272257142Y-17104819D02*
X272114285Y-17152438D01*
X272114285Y-17152438D02*
X272066666Y-17200057D01*
X271733332Y-17104819D02*
X271114285Y-17104819D01*
X271114285Y-17104819D02*
X271447618Y-17485771D01*
X271447618Y-17485771D02*
X271304761Y-17485771D01*
X271304761Y-17485771D02*
X271209523Y-17533390D01*
X271209523Y-17533390D02*
X271161904Y-17581009D01*
X271161904Y-17581009D02*
X271114285Y-17676247D01*
X271114285Y-17676247D02*
X271114285Y-17914342D01*
X271114285Y-17914342D02*
X271161904Y-18009580D01*
X271161904Y-18009580D02*
X271209523Y-18057200D01*
X271209523Y-18057200D02*
X271304761Y-18104819D01*
X271304761Y-18104819D02*
X271590475Y-18104819D01*
X271590475Y-18104819D02*
X271685713Y-18057200D01*
X271685713Y-18057200D02*
X271733332Y-18009580D01*
X275742857Y-107854819D02*
X276076190Y-107378628D01*
X276314285Y-107854819D02*
X276314285Y-106854819D01*
X276314285Y-106854819D02*
X275933333Y-106854819D01*
X275933333Y-106854819D02*
X275838095Y-106902438D01*
X275838095Y-106902438D02*
X275790476Y-106950057D01*
X275790476Y-106950057D02*
X275742857Y-107045295D01*
X275742857Y-107045295D02*
X275742857Y-107188152D01*
X275742857Y-107188152D02*
X275790476Y-107283390D01*
X275790476Y-107283390D02*
X275838095Y-107331009D01*
X275838095Y-107331009D02*
X275933333Y-107378628D01*
X275933333Y-107378628D02*
X276314285Y-107378628D01*
X275171428Y-107283390D02*
X275266666Y-107235771D01*
X275266666Y-107235771D02*
X275314285Y-107188152D01*
X275314285Y-107188152D02*
X275361904Y-107092914D01*
X275361904Y-107092914D02*
X275361904Y-107045295D01*
X275361904Y-107045295D02*
X275314285Y-106950057D01*
X275314285Y-106950057D02*
X275266666Y-106902438D01*
X275266666Y-106902438D02*
X275171428Y-106854819D01*
X275171428Y-106854819D02*
X274980952Y-106854819D01*
X274980952Y-106854819D02*
X274885714Y-106902438D01*
X274885714Y-106902438D02*
X274838095Y-106950057D01*
X274838095Y-106950057D02*
X274790476Y-107045295D01*
X274790476Y-107045295D02*
X274790476Y-107092914D01*
X274790476Y-107092914D02*
X274838095Y-107188152D01*
X274838095Y-107188152D02*
X274885714Y-107235771D01*
X274885714Y-107235771D02*
X274980952Y-107283390D01*
X274980952Y-107283390D02*
X275171428Y-107283390D01*
X275171428Y-107283390D02*
X275266666Y-107331009D01*
X275266666Y-107331009D02*
X275314285Y-107378628D01*
X275314285Y-107378628D02*
X275361904Y-107473866D01*
X275361904Y-107473866D02*
X275361904Y-107664342D01*
X275361904Y-107664342D02*
X275314285Y-107759580D01*
X275314285Y-107759580D02*
X275266666Y-107807200D01*
X275266666Y-107807200D02*
X275171428Y-107854819D01*
X275171428Y-107854819D02*
X274980952Y-107854819D01*
X274980952Y-107854819D02*
X274885714Y-107807200D01*
X274885714Y-107807200D02*
X274838095Y-107759580D01*
X274838095Y-107759580D02*
X274790476Y-107664342D01*
X274790476Y-107664342D02*
X274790476Y-107473866D01*
X274790476Y-107473866D02*
X274838095Y-107378628D01*
X274838095Y-107378628D02*
X274885714Y-107331009D01*
X274885714Y-107331009D02*
X274980952Y-107283390D01*
X273933333Y-107188152D02*
X273933333Y-107854819D01*
X274171428Y-106807200D02*
X274409523Y-107521485D01*
X274409523Y-107521485D02*
X273790476Y-107521485D01*
X150059580Y-17082142D02*
X150107200Y-17034523D01*
X150107200Y-17034523D02*
X150154819Y-16891666D01*
X150154819Y-16891666D02*
X150154819Y-16796428D01*
X150154819Y-16796428D02*
X150107200Y-16653571D01*
X150107200Y-16653571D02*
X150011961Y-16558333D01*
X150011961Y-16558333D02*
X149916723Y-16510714D01*
X149916723Y-16510714D02*
X149726247Y-16463095D01*
X149726247Y-16463095D02*
X149583390Y-16463095D01*
X149583390Y-16463095D02*
X149392914Y-16510714D01*
X149392914Y-16510714D02*
X149297676Y-16558333D01*
X149297676Y-16558333D02*
X149202438Y-16653571D01*
X149202438Y-16653571D02*
X149154819Y-16796428D01*
X149154819Y-16796428D02*
X149154819Y-16891666D01*
X149154819Y-16891666D02*
X149202438Y-17034523D01*
X149202438Y-17034523D02*
X149250057Y-17082142D01*
X150154819Y-18034523D02*
X150154819Y-17463095D01*
X150154819Y-17748809D02*
X149154819Y-17748809D01*
X149154819Y-17748809D02*
X149297676Y-17653571D01*
X149297676Y-17653571D02*
X149392914Y-17558333D01*
X149392914Y-17558333D02*
X149440533Y-17463095D01*
X149154819Y-18939285D02*
X149154819Y-18463095D01*
X149154819Y-18463095D02*
X149631009Y-18415476D01*
X149631009Y-18415476D02*
X149583390Y-18463095D01*
X149583390Y-18463095D02*
X149535771Y-18558333D01*
X149535771Y-18558333D02*
X149535771Y-18796428D01*
X149535771Y-18796428D02*
X149583390Y-18891666D01*
X149583390Y-18891666D02*
X149631009Y-18939285D01*
X149631009Y-18939285D02*
X149726247Y-18986904D01*
X149726247Y-18986904D02*
X149964342Y-18986904D01*
X149964342Y-18986904D02*
X150059580Y-18939285D01*
X150059580Y-18939285D02*
X150107200Y-18891666D01*
X150107200Y-18891666D02*
X150154819Y-18796428D01*
X150154819Y-18796428D02*
X150154819Y-18558333D01*
X150154819Y-18558333D02*
X150107200Y-18463095D01*
X150107200Y-18463095D02*
X150059580Y-18415476D01*
X265969047Y-150904819D02*
X266302380Y-150428628D01*
X266540475Y-150904819D02*
X266540475Y-149904819D01*
X266540475Y-149904819D02*
X266159523Y-149904819D01*
X266159523Y-149904819D02*
X266064285Y-149952438D01*
X266064285Y-149952438D02*
X266016666Y-150000057D01*
X266016666Y-150000057D02*
X265969047Y-150095295D01*
X265969047Y-150095295D02*
X265969047Y-150238152D01*
X265969047Y-150238152D02*
X266016666Y-150333390D01*
X266016666Y-150333390D02*
X266064285Y-150381009D01*
X266064285Y-150381009D02*
X266159523Y-150428628D01*
X266159523Y-150428628D02*
X266540475Y-150428628D01*
X265016666Y-150904819D02*
X265588094Y-150904819D01*
X265302380Y-150904819D02*
X265302380Y-149904819D01*
X265302380Y-149904819D02*
X265397618Y-150047676D01*
X265397618Y-150047676D02*
X265492856Y-150142914D01*
X265492856Y-150142914D02*
X265588094Y-150190533D01*
X264064285Y-150904819D02*
X264635713Y-150904819D01*
X264349999Y-150904819D02*
X264349999Y-149904819D01*
X264349999Y-149904819D02*
X264445237Y-150047676D01*
X264445237Y-150047676D02*
X264540475Y-150142914D01*
X264540475Y-150142914D02*
X264635713Y-150190533D01*
X263111904Y-150904819D02*
X263683332Y-150904819D01*
X263397618Y-150904819D02*
X263397618Y-149904819D01*
X263397618Y-149904819D02*
X263492856Y-150047676D01*
X263492856Y-150047676D02*
X263588094Y-150142914D01*
X263588094Y-150142914D02*
X263683332Y-150190533D01*
X283119047Y-145004819D02*
X283452380Y-144528628D01*
X283690475Y-145004819D02*
X283690475Y-144004819D01*
X283690475Y-144004819D02*
X283309523Y-144004819D01*
X283309523Y-144004819D02*
X283214285Y-144052438D01*
X283214285Y-144052438D02*
X283166666Y-144100057D01*
X283166666Y-144100057D02*
X283119047Y-144195295D01*
X283119047Y-144195295D02*
X283119047Y-144338152D01*
X283119047Y-144338152D02*
X283166666Y-144433390D01*
X283166666Y-144433390D02*
X283214285Y-144481009D01*
X283214285Y-144481009D02*
X283309523Y-144528628D01*
X283309523Y-144528628D02*
X283690475Y-144528628D01*
X282166666Y-145004819D02*
X282738094Y-145004819D01*
X282452380Y-145004819D02*
X282452380Y-144004819D01*
X282452380Y-144004819D02*
X282547618Y-144147676D01*
X282547618Y-144147676D02*
X282642856Y-144242914D01*
X282642856Y-144242914D02*
X282738094Y-144290533D01*
X281214285Y-145004819D02*
X281785713Y-145004819D01*
X281499999Y-145004819D02*
X281499999Y-144004819D01*
X281499999Y-144004819D02*
X281595237Y-144147676D01*
X281595237Y-144147676D02*
X281690475Y-144242914D01*
X281690475Y-144242914D02*
X281785713Y-144290533D01*
X280738094Y-145004819D02*
X280547618Y-145004819D01*
X280547618Y-145004819D02*
X280452380Y-144957200D01*
X280452380Y-144957200D02*
X280404761Y-144909580D01*
X280404761Y-144909580D02*
X280309523Y-144766723D01*
X280309523Y-144766723D02*
X280261904Y-144576247D01*
X280261904Y-144576247D02*
X280261904Y-144195295D01*
X280261904Y-144195295D02*
X280309523Y-144100057D01*
X280309523Y-144100057D02*
X280357142Y-144052438D01*
X280357142Y-144052438D02*
X280452380Y-144004819D01*
X280452380Y-144004819D02*
X280642856Y-144004819D01*
X280642856Y-144004819D02*
X280738094Y-144052438D01*
X280738094Y-144052438D02*
X280785713Y-144100057D01*
X280785713Y-144100057D02*
X280833332Y-144195295D01*
X280833332Y-144195295D02*
X280833332Y-144433390D01*
X280833332Y-144433390D02*
X280785713Y-144528628D01*
X280785713Y-144528628D02*
X280738094Y-144576247D01*
X280738094Y-144576247D02*
X280642856Y-144623866D01*
X280642856Y-144623866D02*
X280452380Y-144623866D01*
X280452380Y-144623866D02*
X280357142Y-144576247D01*
X280357142Y-144576247D02*
X280309523Y-144528628D01*
X280309523Y-144528628D02*
X280261904Y-144433390D01*
X59392857Y-56709580D02*
X59440476Y-56757200D01*
X59440476Y-56757200D02*
X59583333Y-56804819D01*
X59583333Y-56804819D02*
X59678571Y-56804819D01*
X59678571Y-56804819D02*
X59821428Y-56757200D01*
X59821428Y-56757200D02*
X59916666Y-56661961D01*
X59916666Y-56661961D02*
X59964285Y-56566723D01*
X59964285Y-56566723D02*
X60011904Y-56376247D01*
X60011904Y-56376247D02*
X60011904Y-56233390D01*
X60011904Y-56233390D02*
X59964285Y-56042914D01*
X59964285Y-56042914D02*
X59916666Y-55947676D01*
X59916666Y-55947676D02*
X59821428Y-55852438D01*
X59821428Y-55852438D02*
X59678571Y-55804819D01*
X59678571Y-55804819D02*
X59583333Y-55804819D01*
X59583333Y-55804819D02*
X59440476Y-55852438D01*
X59440476Y-55852438D02*
X59392857Y-55900057D01*
X58440476Y-56804819D02*
X59011904Y-56804819D01*
X58726190Y-56804819D02*
X58726190Y-55804819D01*
X58726190Y-55804819D02*
X58821428Y-55947676D01*
X58821428Y-55947676D02*
X58916666Y-56042914D01*
X58916666Y-56042914D02*
X59011904Y-56090533D01*
X57583333Y-55804819D02*
X57773809Y-55804819D01*
X57773809Y-55804819D02*
X57869047Y-55852438D01*
X57869047Y-55852438D02*
X57916666Y-55900057D01*
X57916666Y-55900057D02*
X58011904Y-56042914D01*
X58011904Y-56042914D02*
X58059523Y-56233390D01*
X58059523Y-56233390D02*
X58059523Y-56614342D01*
X58059523Y-56614342D02*
X58011904Y-56709580D01*
X58011904Y-56709580D02*
X57964285Y-56757200D01*
X57964285Y-56757200D02*
X57869047Y-56804819D01*
X57869047Y-56804819D02*
X57678571Y-56804819D01*
X57678571Y-56804819D02*
X57583333Y-56757200D01*
X57583333Y-56757200D02*
X57535714Y-56709580D01*
X57535714Y-56709580D02*
X57488095Y-56614342D01*
X57488095Y-56614342D02*
X57488095Y-56376247D01*
X57488095Y-56376247D02*
X57535714Y-56281009D01*
X57535714Y-56281009D02*
X57583333Y-56233390D01*
X57583333Y-56233390D02*
X57678571Y-56185771D01*
X57678571Y-56185771D02*
X57869047Y-56185771D01*
X57869047Y-56185771D02*
X57964285Y-56233390D01*
X57964285Y-56233390D02*
X58011904Y-56281009D01*
X58011904Y-56281009D02*
X58059523Y-56376247D01*
X241642857Y-33604819D02*
X241976190Y-33128628D01*
X242214285Y-33604819D02*
X242214285Y-32604819D01*
X242214285Y-32604819D02*
X241833333Y-32604819D01*
X241833333Y-32604819D02*
X241738095Y-32652438D01*
X241738095Y-32652438D02*
X241690476Y-32700057D01*
X241690476Y-32700057D02*
X241642857Y-32795295D01*
X241642857Y-32795295D02*
X241642857Y-32938152D01*
X241642857Y-32938152D02*
X241690476Y-33033390D01*
X241690476Y-33033390D02*
X241738095Y-33081009D01*
X241738095Y-33081009D02*
X241833333Y-33128628D01*
X241833333Y-33128628D02*
X242214285Y-33128628D01*
X241166666Y-33604819D02*
X240976190Y-33604819D01*
X240976190Y-33604819D02*
X240880952Y-33557200D01*
X240880952Y-33557200D02*
X240833333Y-33509580D01*
X240833333Y-33509580D02*
X240738095Y-33366723D01*
X240738095Y-33366723D02*
X240690476Y-33176247D01*
X240690476Y-33176247D02*
X240690476Y-32795295D01*
X240690476Y-32795295D02*
X240738095Y-32700057D01*
X240738095Y-32700057D02*
X240785714Y-32652438D01*
X240785714Y-32652438D02*
X240880952Y-32604819D01*
X240880952Y-32604819D02*
X241071428Y-32604819D01*
X241071428Y-32604819D02*
X241166666Y-32652438D01*
X241166666Y-32652438D02*
X241214285Y-32700057D01*
X241214285Y-32700057D02*
X241261904Y-32795295D01*
X241261904Y-32795295D02*
X241261904Y-33033390D01*
X241261904Y-33033390D02*
X241214285Y-33128628D01*
X241214285Y-33128628D02*
X241166666Y-33176247D01*
X241166666Y-33176247D02*
X241071428Y-33223866D01*
X241071428Y-33223866D02*
X240880952Y-33223866D01*
X240880952Y-33223866D02*
X240785714Y-33176247D01*
X240785714Y-33176247D02*
X240738095Y-33128628D01*
X240738095Y-33128628D02*
X240690476Y-33033390D01*
X240119047Y-33033390D02*
X240214285Y-32985771D01*
X240214285Y-32985771D02*
X240261904Y-32938152D01*
X240261904Y-32938152D02*
X240309523Y-32842914D01*
X240309523Y-32842914D02*
X240309523Y-32795295D01*
X240309523Y-32795295D02*
X240261904Y-32700057D01*
X240261904Y-32700057D02*
X240214285Y-32652438D01*
X240214285Y-32652438D02*
X240119047Y-32604819D01*
X240119047Y-32604819D02*
X239928571Y-32604819D01*
X239928571Y-32604819D02*
X239833333Y-32652438D01*
X239833333Y-32652438D02*
X239785714Y-32700057D01*
X239785714Y-32700057D02*
X239738095Y-32795295D01*
X239738095Y-32795295D02*
X239738095Y-32842914D01*
X239738095Y-32842914D02*
X239785714Y-32938152D01*
X239785714Y-32938152D02*
X239833333Y-32985771D01*
X239833333Y-32985771D02*
X239928571Y-33033390D01*
X239928571Y-33033390D02*
X240119047Y-33033390D01*
X240119047Y-33033390D02*
X240214285Y-33081009D01*
X240214285Y-33081009D02*
X240261904Y-33128628D01*
X240261904Y-33128628D02*
X240309523Y-33223866D01*
X240309523Y-33223866D02*
X240309523Y-33414342D01*
X240309523Y-33414342D02*
X240261904Y-33509580D01*
X240261904Y-33509580D02*
X240214285Y-33557200D01*
X240214285Y-33557200D02*
X240119047Y-33604819D01*
X240119047Y-33604819D02*
X239928571Y-33604819D01*
X239928571Y-33604819D02*
X239833333Y-33557200D01*
X239833333Y-33557200D02*
X239785714Y-33509580D01*
X239785714Y-33509580D02*
X239738095Y-33414342D01*
X239738095Y-33414342D02*
X239738095Y-33223866D01*
X239738095Y-33223866D02*
X239785714Y-33128628D01*
X239785714Y-33128628D02*
X239833333Y-33081009D01*
X239833333Y-33081009D02*
X239928571Y-33033390D01*
X210230357Y-25304819D02*
X210563690Y-24828628D01*
X210801785Y-25304819D02*
X210801785Y-24304819D01*
X210801785Y-24304819D02*
X210420833Y-24304819D01*
X210420833Y-24304819D02*
X210325595Y-24352438D01*
X210325595Y-24352438D02*
X210277976Y-24400057D01*
X210277976Y-24400057D02*
X210230357Y-24495295D01*
X210230357Y-24495295D02*
X210230357Y-24638152D01*
X210230357Y-24638152D02*
X210277976Y-24733390D01*
X210277976Y-24733390D02*
X210325595Y-24781009D01*
X210325595Y-24781009D02*
X210420833Y-24828628D01*
X210420833Y-24828628D02*
X210801785Y-24828628D01*
X209897023Y-24304819D02*
X209230357Y-24304819D01*
X209230357Y-24304819D02*
X209658928Y-25304819D01*
X208420833Y-24304819D02*
X208611309Y-24304819D01*
X208611309Y-24304819D02*
X208706547Y-24352438D01*
X208706547Y-24352438D02*
X208754166Y-24400057D01*
X208754166Y-24400057D02*
X208849404Y-24542914D01*
X208849404Y-24542914D02*
X208897023Y-24733390D01*
X208897023Y-24733390D02*
X208897023Y-25114342D01*
X208897023Y-25114342D02*
X208849404Y-25209580D01*
X208849404Y-25209580D02*
X208801785Y-25257200D01*
X208801785Y-25257200D02*
X208706547Y-25304819D01*
X208706547Y-25304819D02*
X208516071Y-25304819D01*
X208516071Y-25304819D02*
X208420833Y-25257200D01*
X208420833Y-25257200D02*
X208373214Y-25209580D01*
X208373214Y-25209580D02*
X208325595Y-25114342D01*
X208325595Y-25114342D02*
X208325595Y-24876247D01*
X208325595Y-24876247D02*
X208373214Y-24781009D01*
X208373214Y-24781009D02*
X208420833Y-24733390D01*
X208420833Y-24733390D02*
X208516071Y-24685771D01*
X208516071Y-24685771D02*
X208706547Y-24685771D01*
X208706547Y-24685771D02*
X208801785Y-24733390D01*
X208801785Y-24733390D02*
X208849404Y-24781009D01*
X208849404Y-24781009D02*
X208897023Y-24876247D01*
X265969047Y-145054819D02*
X266302380Y-144578628D01*
X266540475Y-145054819D02*
X266540475Y-144054819D01*
X266540475Y-144054819D02*
X266159523Y-144054819D01*
X266159523Y-144054819D02*
X266064285Y-144102438D01*
X266064285Y-144102438D02*
X266016666Y-144150057D01*
X266016666Y-144150057D02*
X265969047Y-144245295D01*
X265969047Y-144245295D02*
X265969047Y-144388152D01*
X265969047Y-144388152D02*
X266016666Y-144483390D01*
X266016666Y-144483390D02*
X266064285Y-144531009D01*
X266064285Y-144531009D02*
X266159523Y-144578628D01*
X266159523Y-144578628D02*
X266540475Y-144578628D01*
X265016666Y-145054819D02*
X265588094Y-145054819D01*
X265302380Y-145054819D02*
X265302380Y-144054819D01*
X265302380Y-144054819D02*
X265397618Y-144197676D01*
X265397618Y-144197676D02*
X265492856Y-144292914D01*
X265492856Y-144292914D02*
X265588094Y-144340533D01*
X264064285Y-145054819D02*
X264635713Y-145054819D01*
X264349999Y-145054819D02*
X264349999Y-144054819D01*
X264349999Y-144054819D02*
X264445237Y-144197676D01*
X264445237Y-144197676D02*
X264540475Y-144292914D01*
X264540475Y-144292914D02*
X264635713Y-144340533D01*
X263730951Y-144054819D02*
X263111904Y-144054819D01*
X263111904Y-144054819D02*
X263445237Y-144435771D01*
X263445237Y-144435771D02*
X263302380Y-144435771D01*
X263302380Y-144435771D02*
X263207142Y-144483390D01*
X263207142Y-144483390D02*
X263159523Y-144531009D01*
X263159523Y-144531009D02*
X263111904Y-144626247D01*
X263111904Y-144626247D02*
X263111904Y-144864342D01*
X263111904Y-144864342D02*
X263159523Y-144959580D01*
X263159523Y-144959580D02*
X263207142Y-145007200D01*
X263207142Y-145007200D02*
X263302380Y-145054819D01*
X263302380Y-145054819D02*
X263588094Y-145054819D01*
X263588094Y-145054819D02*
X263683332Y-145007200D01*
X263683332Y-145007200D02*
X263730951Y-144959580D01*
X249206547Y-25304819D02*
X249539880Y-24828628D01*
X249777975Y-25304819D02*
X249777975Y-24304819D01*
X249777975Y-24304819D02*
X249397023Y-24304819D01*
X249397023Y-24304819D02*
X249301785Y-24352438D01*
X249301785Y-24352438D02*
X249254166Y-24400057D01*
X249254166Y-24400057D02*
X249206547Y-24495295D01*
X249206547Y-24495295D02*
X249206547Y-24638152D01*
X249206547Y-24638152D02*
X249254166Y-24733390D01*
X249254166Y-24733390D02*
X249301785Y-24781009D01*
X249301785Y-24781009D02*
X249397023Y-24828628D01*
X249397023Y-24828628D02*
X249777975Y-24828628D01*
X248254166Y-25304819D02*
X248825594Y-25304819D01*
X248539880Y-25304819D02*
X248539880Y-24304819D01*
X248539880Y-24304819D02*
X248635118Y-24447676D01*
X248635118Y-24447676D02*
X248730356Y-24542914D01*
X248730356Y-24542914D02*
X248825594Y-24590533D01*
X247635118Y-24304819D02*
X247539880Y-24304819D01*
X247539880Y-24304819D02*
X247444642Y-24352438D01*
X247444642Y-24352438D02*
X247397023Y-24400057D01*
X247397023Y-24400057D02*
X247349404Y-24495295D01*
X247349404Y-24495295D02*
X247301785Y-24685771D01*
X247301785Y-24685771D02*
X247301785Y-24923866D01*
X247301785Y-24923866D02*
X247349404Y-25114342D01*
X247349404Y-25114342D02*
X247397023Y-25209580D01*
X247397023Y-25209580D02*
X247444642Y-25257200D01*
X247444642Y-25257200D02*
X247539880Y-25304819D01*
X247539880Y-25304819D02*
X247635118Y-25304819D01*
X247635118Y-25304819D02*
X247730356Y-25257200D01*
X247730356Y-25257200D02*
X247777975Y-25209580D01*
X247777975Y-25209580D02*
X247825594Y-25114342D01*
X247825594Y-25114342D02*
X247873213Y-24923866D01*
X247873213Y-24923866D02*
X247873213Y-24685771D01*
X247873213Y-24685771D02*
X247825594Y-24495295D01*
X247825594Y-24495295D02*
X247777975Y-24400057D01*
X247777975Y-24400057D02*
X247730356Y-24352438D01*
X247730356Y-24352438D02*
X247635118Y-24304819D01*
X246682737Y-24304819D02*
X246587499Y-24304819D01*
X246587499Y-24304819D02*
X246492261Y-24352438D01*
X246492261Y-24352438D02*
X246444642Y-24400057D01*
X246444642Y-24400057D02*
X246397023Y-24495295D01*
X246397023Y-24495295D02*
X246349404Y-24685771D01*
X246349404Y-24685771D02*
X246349404Y-24923866D01*
X246349404Y-24923866D02*
X246397023Y-25114342D01*
X246397023Y-25114342D02*
X246444642Y-25209580D01*
X246444642Y-25209580D02*
X246492261Y-25257200D01*
X246492261Y-25257200D02*
X246587499Y-25304819D01*
X246587499Y-25304819D02*
X246682737Y-25304819D01*
X246682737Y-25304819D02*
X246777975Y-25257200D01*
X246777975Y-25257200D02*
X246825594Y-25209580D01*
X246825594Y-25209580D02*
X246873213Y-25114342D01*
X246873213Y-25114342D02*
X246920832Y-24923866D01*
X246920832Y-24923866D02*
X246920832Y-24685771D01*
X246920832Y-24685771D02*
X246873213Y-24495295D01*
X246873213Y-24495295D02*
X246825594Y-24400057D01*
X246825594Y-24400057D02*
X246777975Y-24352438D01*
X246777975Y-24352438D02*
X246682737Y-24304819D01*
X274809523Y-146649819D02*
X274809523Y-147364104D01*
X274809523Y-147364104D02*
X274857142Y-147506961D01*
X274857142Y-147506961D02*
X274952380Y-147602200D01*
X274952380Y-147602200D02*
X275095237Y-147649819D01*
X275095237Y-147649819D02*
X275190475Y-147649819D01*
X274333332Y-147649819D02*
X274333332Y-146649819D01*
X274333332Y-146649819D02*
X273952380Y-146649819D01*
X273952380Y-146649819D02*
X273857142Y-146697438D01*
X273857142Y-146697438D02*
X273809523Y-146745057D01*
X273809523Y-146745057D02*
X273761904Y-146840295D01*
X273761904Y-146840295D02*
X273761904Y-146983152D01*
X273761904Y-146983152D02*
X273809523Y-147078390D01*
X273809523Y-147078390D02*
X273857142Y-147126009D01*
X273857142Y-147126009D02*
X273952380Y-147173628D01*
X273952380Y-147173628D02*
X274333332Y-147173628D01*
X272809523Y-147649819D02*
X273380951Y-147649819D01*
X273095237Y-147649819D02*
X273095237Y-146649819D01*
X273095237Y-146649819D02*
X273190475Y-146792676D01*
X273190475Y-146792676D02*
X273285713Y-146887914D01*
X273285713Y-146887914D02*
X273380951Y-146935533D01*
X272428570Y-146745057D02*
X272380951Y-146697438D01*
X272380951Y-146697438D02*
X272285713Y-146649819D01*
X272285713Y-146649819D02*
X272047618Y-146649819D01*
X272047618Y-146649819D02*
X271952380Y-146697438D01*
X271952380Y-146697438D02*
X271904761Y-146745057D01*
X271904761Y-146745057D02*
X271857142Y-146840295D01*
X271857142Y-146840295D02*
X271857142Y-146935533D01*
X271857142Y-146935533D02*
X271904761Y-147078390D01*
X271904761Y-147078390D02*
X272476189Y-147649819D01*
X272476189Y-147649819D02*
X271857142Y-147649819D01*
X270614285Y-145849819D02*
X271185713Y-145849819D01*
X270899999Y-145849819D02*
X270899999Y-144849819D01*
X270899999Y-144849819D02*
X270995237Y-144992676D01*
X270995237Y-144992676D02*
X271090475Y-145087914D01*
X271090475Y-145087914D02*
X271185713Y-145135533D01*
X276433332Y-144849819D02*
X275814285Y-144849819D01*
X275814285Y-144849819D02*
X276147618Y-145230771D01*
X276147618Y-145230771D02*
X276004761Y-145230771D01*
X276004761Y-145230771D02*
X275909523Y-145278390D01*
X275909523Y-145278390D02*
X275861904Y-145326009D01*
X275861904Y-145326009D02*
X275814285Y-145421247D01*
X275814285Y-145421247D02*
X275814285Y-145659342D01*
X275814285Y-145659342D02*
X275861904Y-145754580D01*
X275861904Y-145754580D02*
X275909523Y-145802200D01*
X275909523Y-145802200D02*
X276004761Y-145849819D01*
X276004761Y-145849819D02*
X276290475Y-145849819D01*
X276290475Y-145849819D02*
X276385713Y-145802200D01*
X276385713Y-145802200D02*
X276433332Y-145754580D01*
X265969047Y-147954819D02*
X266302380Y-147478628D01*
X266540475Y-147954819D02*
X266540475Y-146954819D01*
X266540475Y-146954819D02*
X266159523Y-146954819D01*
X266159523Y-146954819D02*
X266064285Y-147002438D01*
X266064285Y-147002438D02*
X266016666Y-147050057D01*
X266016666Y-147050057D02*
X265969047Y-147145295D01*
X265969047Y-147145295D02*
X265969047Y-147288152D01*
X265969047Y-147288152D02*
X266016666Y-147383390D01*
X266016666Y-147383390D02*
X266064285Y-147431009D01*
X266064285Y-147431009D02*
X266159523Y-147478628D01*
X266159523Y-147478628D02*
X266540475Y-147478628D01*
X265016666Y-147954819D02*
X265588094Y-147954819D01*
X265302380Y-147954819D02*
X265302380Y-146954819D01*
X265302380Y-146954819D02*
X265397618Y-147097676D01*
X265397618Y-147097676D02*
X265492856Y-147192914D01*
X265492856Y-147192914D02*
X265588094Y-147240533D01*
X264064285Y-147954819D02*
X264635713Y-147954819D01*
X264349999Y-147954819D02*
X264349999Y-146954819D01*
X264349999Y-146954819D02*
X264445237Y-147097676D01*
X264445237Y-147097676D02*
X264540475Y-147192914D01*
X264540475Y-147192914D02*
X264635713Y-147240533D01*
X263683332Y-147050057D02*
X263635713Y-147002438D01*
X263635713Y-147002438D02*
X263540475Y-146954819D01*
X263540475Y-146954819D02*
X263302380Y-146954819D01*
X263302380Y-146954819D02*
X263207142Y-147002438D01*
X263207142Y-147002438D02*
X263159523Y-147050057D01*
X263159523Y-147050057D02*
X263111904Y-147145295D01*
X263111904Y-147145295D02*
X263111904Y-147240533D01*
X263111904Y-147240533D02*
X263159523Y-147383390D01*
X263159523Y-147383390D02*
X263730951Y-147954819D01*
X263730951Y-147954819D02*
X263111904Y-147954819D01*
X283069047Y-147954819D02*
X283402380Y-147478628D01*
X283640475Y-147954819D02*
X283640475Y-146954819D01*
X283640475Y-146954819D02*
X283259523Y-146954819D01*
X283259523Y-146954819D02*
X283164285Y-147002438D01*
X283164285Y-147002438D02*
X283116666Y-147050057D01*
X283116666Y-147050057D02*
X283069047Y-147145295D01*
X283069047Y-147145295D02*
X283069047Y-147288152D01*
X283069047Y-147288152D02*
X283116666Y-147383390D01*
X283116666Y-147383390D02*
X283164285Y-147431009D01*
X283164285Y-147431009D02*
X283259523Y-147478628D01*
X283259523Y-147478628D02*
X283640475Y-147478628D01*
X282116666Y-147954819D02*
X282688094Y-147954819D01*
X282402380Y-147954819D02*
X282402380Y-146954819D01*
X282402380Y-146954819D02*
X282497618Y-147097676D01*
X282497618Y-147097676D02*
X282592856Y-147192914D01*
X282592856Y-147192914D02*
X282688094Y-147240533D01*
X281164285Y-147954819D02*
X281735713Y-147954819D01*
X281449999Y-147954819D02*
X281449999Y-146954819D01*
X281449999Y-146954819D02*
X281545237Y-147097676D01*
X281545237Y-147097676D02*
X281640475Y-147192914D01*
X281640475Y-147192914D02*
X281735713Y-147240533D01*
X280592856Y-147383390D02*
X280688094Y-147335771D01*
X280688094Y-147335771D02*
X280735713Y-147288152D01*
X280735713Y-147288152D02*
X280783332Y-147192914D01*
X280783332Y-147192914D02*
X280783332Y-147145295D01*
X280783332Y-147145295D02*
X280735713Y-147050057D01*
X280735713Y-147050057D02*
X280688094Y-147002438D01*
X280688094Y-147002438D02*
X280592856Y-146954819D01*
X280592856Y-146954819D02*
X280402380Y-146954819D01*
X280402380Y-146954819D02*
X280307142Y-147002438D01*
X280307142Y-147002438D02*
X280259523Y-147050057D01*
X280259523Y-147050057D02*
X280211904Y-147145295D01*
X280211904Y-147145295D02*
X280211904Y-147192914D01*
X280211904Y-147192914D02*
X280259523Y-147288152D01*
X280259523Y-147288152D02*
X280307142Y-147335771D01*
X280307142Y-147335771D02*
X280402380Y-147383390D01*
X280402380Y-147383390D02*
X280592856Y-147383390D01*
X280592856Y-147383390D02*
X280688094Y-147431009D01*
X280688094Y-147431009D02*
X280735713Y-147478628D01*
X280735713Y-147478628D02*
X280783332Y-147573866D01*
X280783332Y-147573866D02*
X280783332Y-147764342D01*
X280783332Y-147764342D02*
X280735713Y-147859580D01*
X280735713Y-147859580D02*
X280688094Y-147907200D01*
X280688094Y-147907200D02*
X280592856Y-147954819D01*
X280592856Y-147954819D02*
X280402380Y-147954819D01*
X280402380Y-147954819D02*
X280307142Y-147907200D01*
X280307142Y-147907200D02*
X280259523Y-147859580D01*
X280259523Y-147859580D02*
X280211904Y-147764342D01*
X280211904Y-147764342D02*
X280211904Y-147573866D01*
X280211904Y-147573866D02*
X280259523Y-147478628D01*
X280259523Y-147478628D02*
X280307142Y-147431009D01*
X280307142Y-147431009D02*
X280402380Y-147383390D01*
X275742857Y-115454819D02*
X276076190Y-114978628D01*
X276314285Y-115454819D02*
X276314285Y-114454819D01*
X276314285Y-114454819D02*
X275933333Y-114454819D01*
X275933333Y-114454819D02*
X275838095Y-114502438D01*
X275838095Y-114502438D02*
X275790476Y-114550057D01*
X275790476Y-114550057D02*
X275742857Y-114645295D01*
X275742857Y-114645295D02*
X275742857Y-114788152D01*
X275742857Y-114788152D02*
X275790476Y-114883390D01*
X275790476Y-114883390D02*
X275838095Y-114931009D01*
X275838095Y-114931009D02*
X275933333Y-114978628D01*
X275933333Y-114978628D02*
X276314285Y-114978628D01*
X275171428Y-114883390D02*
X275266666Y-114835771D01*
X275266666Y-114835771D02*
X275314285Y-114788152D01*
X275314285Y-114788152D02*
X275361904Y-114692914D01*
X275361904Y-114692914D02*
X275361904Y-114645295D01*
X275361904Y-114645295D02*
X275314285Y-114550057D01*
X275314285Y-114550057D02*
X275266666Y-114502438D01*
X275266666Y-114502438D02*
X275171428Y-114454819D01*
X275171428Y-114454819D02*
X274980952Y-114454819D01*
X274980952Y-114454819D02*
X274885714Y-114502438D01*
X274885714Y-114502438D02*
X274838095Y-114550057D01*
X274838095Y-114550057D02*
X274790476Y-114645295D01*
X274790476Y-114645295D02*
X274790476Y-114692914D01*
X274790476Y-114692914D02*
X274838095Y-114788152D01*
X274838095Y-114788152D02*
X274885714Y-114835771D01*
X274885714Y-114835771D02*
X274980952Y-114883390D01*
X274980952Y-114883390D02*
X275171428Y-114883390D01*
X275171428Y-114883390D02*
X275266666Y-114931009D01*
X275266666Y-114931009D02*
X275314285Y-114978628D01*
X275314285Y-114978628D02*
X275361904Y-115073866D01*
X275361904Y-115073866D02*
X275361904Y-115264342D01*
X275361904Y-115264342D02*
X275314285Y-115359580D01*
X275314285Y-115359580D02*
X275266666Y-115407200D01*
X275266666Y-115407200D02*
X275171428Y-115454819D01*
X275171428Y-115454819D02*
X274980952Y-115454819D01*
X274980952Y-115454819D02*
X274885714Y-115407200D01*
X274885714Y-115407200D02*
X274838095Y-115359580D01*
X274838095Y-115359580D02*
X274790476Y-115264342D01*
X274790476Y-115264342D02*
X274790476Y-115073866D01*
X274790476Y-115073866D02*
X274838095Y-114978628D01*
X274838095Y-114978628D02*
X274885714Y-114931009D01*
X274885714Y-114931009D02*
X274980952Y-114883390D01*
X273885714Y-114454819D02*
X274361904Y-114454819D01*
X274361904Y-114454819D02*
X274409523Y-114931009D01*
X274409523Y-114931009D02*
X274361904Y-114883390D01*
X274361904Y-114883390D02*
X274266666Y-114835771D01*
X274266666Y-114835771D02*
X274028571Y-114835771D01*
X274028571Y-114835771D02*
X273933333Y-114883390D01*
X273933333Y-114883390D02*
X273885714Y-114931009D01*
X273885714Y-114931009D02*
X273838095Y-115026247D01*
X273838095Y-115026247D02*
X273838095Y-115264342D01*
X273838095Y-115264342D02*
X273885714Y-115359580D01*
X273885714Y-115359580D02*
X273933333Y-115407200D01*
X273933333Y-115407200D02*
X274028571Y-115454819D01*
X274028571Y-115454819D02*
X274266666Y-115454819D01*
X274266666Y-115454819D02*
X274361904Y-115407200D01*
X274361904Y-115407200D02*
X274409523Y-115359580D01*
X119417857Y-56709580D02*
X119465476Y-56757200D01*
X119465476Y-56757200D02*
X119608333Y-56804819D01*
X119608333Y-56804819D02*
X119703571Y-56804819D01*
X119703571Y-56804819D02*
X119846428Y-56757200D01*
X119846428Y-56757200D02*
X119941666Y-56661961D01*
X119941666Y-56661961D02*
X119989285Y-56566723D01*
X119989285Y-56566723D02*
X120036904Y-56376247D01*
X120036904Y-56376247D02*
X120036904Y-56233390D01*
X120036904Y-56233390D02*
X119989285Y-56042914D01*
X119989285Y-56042914D02*
X119941666Y-55947676D01*
X119941666Y-55947676D02*
X119846428Y-55852438D01*
X119846428Y-55852438D02*
X119703571Y-55804819D01*
X119703571Y-55804819D02*
X119608333Y-55804819D01*
X119608333Y-55804819D02*
X119465476Y-55852438D01*
X119465476Y-55852438D02*
X119417857Y-55900057D01*
X119036904Y-55900057D02*
X118989285Y-55852438D01*
X118989285Y-55852438D02*
X118894047Y-55804819D01*
X118894047Y-55804819D02*
X118655952Y-55804819D01*
X118655952Y-55804819D02*
X118560714Y-55852438D01*
X118560714Y-55852438D02*
X118513095Y-55900057D01*
X118513095Y-55900057D02*
X118465476Y-55995295D01*
X118465476Y-55995295D02*
X118465476Y-56090533D01*
X118465476Y-56090533D02*
X118513095Y-56233390D01*
X118513095Y-56233390D02*
X119084523Y-56804819D01*
X119084523Y-56804819D02*
X118465476Y-56804819D01*
X117846428Y-55804819D02*
X117751190Y-55804819D01*
X117751190Y-55804819D02*
X117655952Y-55852438D01*
X117655952Y-55852438D02*
X117608333Y-55900057D01*
X117608333Y-55900057D02*
X117560714Y-55995295D01*
X117560714Y-55995295D02*
X117513095Y-56185771D01*
X117513095Y-56185771D02*
X117513095Y-56423866D01*
X117513095Y-56423866D02*
X117560714Y-56614342D01*
X117560714Y-56614342D02*
X117608333Y-56709580D01*
X117608333Y-56709580D02*
X117655952Y-56757200D01*
X117655952Y-56757200D02*
X117751190Y-56804819D01*
X117751190Y-56804819D02*
X117846428Y-56804819D01*
X117846428Y-56804819D02*
X117941666Y-56757200D01*
X117941666Y-56757200D02*
X117989285Y-56709580D01*
X117989285Y-56709580D02*
X118036904Y-56614342D01*
X118036904Y-56614342D02*
X118084523Y-56423866D01*
X118084523Y-56423866D02*
X118084523Y-56185771D01*
X118084523Y-56185771D02*
X118036904Y-55995295D01*
X118036904Y-55995295D02*
X117989285Y-55900057D01*
X117989285Y-55900057D02*
X117941666Y-55852438D01*
X117941666Y-55852438D02*
X117846428Y-55804819D01*
X275742857Y-117854819D02*
X276076190Y-117378628D01*
X276314285Y-117854819D02*
X276314285Y-116854819D01*
X276314285Y-116854819D02*
X275933333Y-116854819D01*
X275933333Y-116854819D02*
X275838095Y-116902438D01*
X275838095Y-116902438D02*
X275790476Y-116950057D01*
X275790476Y-116950057D02*
X275742857Y-117045295D01*
X275742857Y-117045295D02*
X275742857Y-117188152D01*
X275742857Y-117188152D02*
X275790476Y-117283390D01*
X275790476Y-117283390D02*
X275838095Y-117331009D01*
X275838095Y-117331009D02*
X275933333Y-117378628D01*
X275933333Y-117378628D02*
X276314285Y-117378628D01*
X274838095Y-116854819D02*
X275314285Y-116854819D01*
X275314285Y-116854819D02*
X275361904Y-117331009D01*
X275361904Y-117331009D02*
X275314285Y-117283390D01*
X275314285Y-117283390D02*
X275219047Y-117235771D01*
X275219047Y-117235771D02*
X274980952Y-117235771D01*
X274980952Y-117235771D02*
X274885714Y-117283390D01*
X274885714Y-117283390D02*
X274838095Y-117331009D01*
X274838095Y-117331009D02*
X274790476Y-117426247D01*
X274790476Y-117426247D02*
X274790476Y-117664342D01*
X274790476Y-117664342D02*
X274838095Y-117759580D01*
X274838095Y-117759580D02*
X274885714Y-117807200D01*
X274885714Y-117807200D02*
X274980952Y-117854819D01*
X274980952Y-117854819D02*
X275219047Y-117854819D01*
X275219047Y-117854819D02*
X275314285Y-117807200D01*
X275314285Y-117807200D02*
X275361904Y-117759580D01*
X273933333Y-116854819D02*
X274123809Y-116854819D01*
X274123809Y-116854819D02*
X274219047Y-116902438D01*
X274219047Y-116902438D02*
X274266666Y-116950057D01*
X274266666Y-116950057D02*
X274361904Y-117092914D01*
X274361904Y-117092914D02*
X274409523Y-117283390D01*
X274409523Y-117283390D02*
X274409523Y-117664342D01*
X274409523Y-117664342D02*
X274361904Y-117759580D01*
X274361904Y-117759580D02*
X274314285Y-117807200D01*
X274314285Y-117807200D02*
X274219047Y-117854819D01*
X274219047Y-117854819D02*
X274028571Y-117854819D01*
X274028571Y-117854819D02*
X273933333Y-117807200D01*
X273933333Y-117807200D02*
X273885714Y-117759580D01*
X273885714Y-117759580D02*
X273838095Y-117664342D01*
X273838095Y-117664342D02*
X273838095Y-117426247D01*
X273838095Y-117426247D02*
X273885714Y-117331009D01*
X273885714Y-117331009D02*
X273933333Y-117283390D01*
X273933333Y-117283390D02*
X274028571Y-117235771D01*
X274028571Y-117235771D02*
X274219047Y-117235771D01*
X274219047Y-117235771D02*
X274314285Y-117283390D01*
X274314285Y-117283390D02*
X274361904Y-117331009D01*
X274361904Y-117331009D02*
X274409523Y-117426247D01*
X187304819Y-15833333D02*
X186828628Y-15500000D01*
X187304819Y-15261905D02*
X186304819Y-15261905D01*
X186304819Y-15261905D02*
X186304819Y-15642857D01*
X186304819Y-15642857D02*
X186352438Y-15738095D01*
X186352438Y-15738095D02*
X186400057Y-15785714D01*
X186400057Y-15785714D02*
X186495295Y-15833333D01*
X186495295Y-15833333D02*
X186638152Y-15833333D01*
X186638152Y-15833333D02*
X186733390Y-15785714D01*
X186733390Y-15785714D02*
X186781009Y-15738095D01*
X186781009Y-15738095D02*
X186828628Y-15642857D01*
X186828628Y-15642857D02*
X186828628Y-15261905D01*
X187304819Y-16785714D02*
X187304819Y-16214286D01*
X187304819Y-16500000D02*
X186304819Y-16500000D01*
X186304819Y-16500000D02*
X186447676Y-16404762D01*
X186447676Y-16404762D02*
X186542914Y-16309524D01*
X186542914Y-16309524D02*
X186590533Y-16214286D01*
X179417857Y-56709580D02*
X179465476Y-56757200D01*
X179465476Y-56757200D02*
X179608333Y-56804819D01*
X179608333Y-56804819D02*
X179703571Y-56804819D01*
X179703571Y-56804819D02*
X179846428Y-56757200D01*
X179846428Y-56757200D02*
X179941666Y-56661961D01*
X179941666Y-56661961D02*
X179989285Y-56566723D01*
X179989285Y-56566723D02*
X180036904Y-56376247D01*
X180036904Y-56376247D02*
X180036904Y-56233390D01*
X180036904Y-56233390D02*
X179989285Y-56042914D01*
X179989285Y-56042914D02*
X179941666Y-55947676D01*
X179941666Y-55947676D02*
X179846428Y-55852438D01*
X179846428Y-55852438D02*
X179703571Y-55804819D01*
X179703571Y-55804819D02*
X179608333Y-55804819D01*
X179608333Y-55804819D02*
X179465476Y-55852438D01*
X179465476Y-55852438D02*
X179417857Y-55900057D01*
X179036904Y-55900057D02*
X178989285Y-55852438D01*
X178989285Y-55852438D02*
X178894047Y-55804819D01*
X178894047Y-55804819D02*
X178655952Y-55804819D01*
X178655952Y-55804819D02*
X178560714Y-55852438D01*
X178560714Y-55852438D02*
X178513095Y-55900057D01*
X178513095Y-55900057D02*
X178465476Y-55995295D01*
X178465476Y-55995295D02*
X178465476Y-56090533D01*
X178465476Y-56090533D02*
X178513095Y-56233390D01*
X178513095Y-56233390D02*
X179084523Y-56804819D01*
X179084523Y-56804819D02*
X178465476Y-56804819D01*
X177608333Y-56138152D02*
X177608333Y-56804819D01*
X177846428Y-55757200D02*
X178084523Y-56471485D01*
X178084523Y-56471485D02*
X177465476Y-56471485D01*
X203055357Y-33604819D02*
X203388690Y-33128628D01*
X203626785Y-33604819D02*
X203626785Y-32604819D01*
X203626785Y-32604819D02*
X203245833Y-32604819D01*
X203245833Y-32604819D02*
X203150595Y-32652438D01*
X203150595Y-32652438D02*
X203102976Y-32700057D01*
X203102976Y-32700057D02*
X203055357Y-32795295D01*
X203055357Y-32795295D02*
X203055357Y-32938152D01*
X203055357Y-32938152D02*
X203102976Y-33033390D01*
X203102976Y-33033390D02*
X203150595Y-33081009D01*
X203150595Y-33081009D02*
X203245833Y-33128628D01*
X203245833Y-33128628D02*
X203626785Y-33128628D01*
X202198214Y-32604819D02*
X202388690Y-32604819D01*
X202388690Y-32604819D02*
X202483928Y-32652438D01*
X202483928Y-32652438D02*
X202531547Y-32700057D01*
X202531547Y-32700057D02*
X202626785Y-32842914D01*
X202626785Y-32842914D02*
X202674404Y-33033390D01*
X202674404Y-33033390D02*
X202674404Y-33414342D01*
X202674404Y-33414342D02*
X202626785Y-33509580D01*
X202626785Y-33509580D02*
X202579166Y-33557200D01*
X202579166Y-33557200D02*
X202483928Y-33604819D01*
X202483928Y-33604819D02*
X202293452Y-33604819D01*
X202293452Y-33604819D02*
X202198214Y-33557200D01*
X202198214Y-33557200D02*
X202150595Y-33509580D01*
X202150595Y-33509580D02*
X202102976Y-33414342D01*
X202102976Y-33414342D02*
X202102976Y-33176247D01*
X202102976Y-33176247D02*
X202150595Y-33081009D01*
X202150595Y-33081009D02*
X202198214Y-33033390D01*
X202198214Y-33033390D02*
X202293452Y-32985771D01*
X202293452Y-32985771D02*
X202483928Y-32985771D01*
X202483928Y-32985771D02*
X202579166Y-33033390D01*
X202579166Y-33033390D02*
X202626785Y-33081009D01*
X202626785Y-33081009D02*
X202674404Y-33176247D01*
X201531547Y-33033390D02*
X201626785Y-32985771D01*
X201626785Y-32985771D02*
X201674404Y-32938152D01*
X201674404Y-32938152D02*
X201722023Y-32842914D01*
X201722023Y-32842914D02*
X201722023Y-32795295D01*
X201722023Y-32795295D02*
X201674404Y-32700057D01*
X201674404Y-32700057D02*
X201626785Y-32652438D01*
X201626785Y-32652438D02*
X201531547Y-32604819D01*
X201531547Y-32604819D02*
X201341071Y-32604819D01*
X201341071Y-32604819D02*
X201245833Y-32652438D01*
X201245833Y-32652438D02*
X201198214Y-32700057D01*
X201198214Y-32700057D02*
X201150595Y-32795295D01*
X201150595Y-32795295D02*
X201150595Y-32842914D01*
X201150595Y-32842914D02*
X201198214Y-32938152D01*
X201198214Y-32938152D02*
X201245833Y-32985771D01*
X201245833Y-32985771D02*
X201341071Y-33033390D01*
X201341071Y-33033390D02*
X201531547Y-33033390D01*
X201531547Y-33033390D02*
X201626785Y-33081009D01*
X201626785Y-33081009D02*
X201674404Y-33128628D01*
X201674404Y-33128628D02*
X201722023Y-33223866D01*
X201722023Y-33223866D02*
X201722023Y-33414342D01*
X201722023Y-33414342D02*
X201674404Y-33509580D01*
X201674404Y-33509580D02*
X201626785Y-33557200D01*
X201626785Y-33557200D02*
X201531547Y-33604819D01*
X201531547Y-33604819D02*
X201341071Y-33604819D01*
X201341071Y-33604819D02*
X201245833Y-33557200D01*
X201245833Y-33557200D02*
X201198214Y-33509580D01*
X201198214Y-33509580D02*
X201150595Y-33414342D01*
X201150595Y-33414342D02*
X201150595Y-33223866D01*
X201150595Y-33223866D02*
X201198214Y-33128628D01*
X201198214Y-33128628D02*
X201245833Y-33081009D01*
X201245833Y-33081009D02*
X201341071Y-33033390D01*
X242354819Y-28257142D02*
X241878628Y-27923809D01*
X242354819Y-27685714D02*
X241354819Y-27685714D01*
X241354819Y-27685714D02*
X241354819Y-28066666D01*
X241354819Y-28066666D02*
X241402438Y-28161904D01*
X241402438Y-28161904D02*
X241450057Y-28209523D01*
X241450057Y-28209523D02*
X241545295Y-28257142D01*
X241545295Y-28257142D02*
X241688152Y-28257142D01*
X241688152Y-28257142D02*
X241783390Y-28209523D01*
X241783390Y-28209523D02*
X241831009Y-28161904D01*
X241831009Y-28161904D02*
X241878628Y-28066666D01*
X241878628Y-28066666D02*
X241878628Y-27685714D01*
X242354819Y-28733333D02*
X242354819Y-28923809D01*
X242354819Y-28923809D02*
X242307200Y-29019047D01*
X242307200Y-29019047D02*
X242259580Y-29066666D01*
X242259580Y-29066666D02*
X242116723Y-29161904D01*
X242116723Y-29161904D02*
X241926247Y-29209523D01*
X241926247Y-29209523D02*
X241545295Y-29209523D01*
X241545295Y-29209523D02*
X241450057Y-29161904D01*
X241450057Y-29161904D02*
X241402438Y-29114285D01*
X241402438Y-29114285D02*
X241354819Y-29019047D01*
X241354819Y-29019047D02*
X241354819Y-28828571D01*
X241354819Y-28828571D02*
X241402438Y-28733333D01*
X241402438Y-28733333D02*
X241450057Y-28685714D01*
X241450057Y-28685714D02*
X241545295Y-28638095D01*
X241545295Y-28638095D02*
X241783390Y-28638095D01*
X241783390Y-28638095D02*
X241878628Y-28685714D01*
X241878628Y-28685714D02*
X241926247Y-28733333D01*
X241926247Y-28733333D02*
X241973866Y-28828571D01*
X241973866Y-28828571D02*
X241973866Y-29019047D01*
X241973866Y-29019047D02*
X241926247Y-29114285D01*
X241926247Y-29114285D02*
X241878628Y-29161904D01*
X241878628Y-29161904D02*
X241783390Y-29209523D01*
X241354819Y-29828571D02*
X241354819Y-29923809D01*
X241354819Y-29923809D02*
X241402438Y-30019047D01*
X241402438Y-30019047D02*
X241450057Y-30066666D01*
X241450057Y-30066666D02*
X241545295Y-30114285D01*
X241545295Y-30114285D02*
X241735771Y-30161904D01*
X241735771Y-30161904D02*
X241973866Y-30161904D01*
X241973866Y-30161904D02*
X242164342Y-30114285D01*
X242164342Y-30114285D02*
X242259580Y-30066666D01*
X242259580Y-30066666D02*
X242307200Y-30019047D01*
X242307200Y-30019047D02*
X242354819Y-29923809D01*
X242354819Y-29923809D02*
X242354819Y-29828571D01*
X242354819Y-29828571D02*
X242307200Y-29733333D01*
X242307200Y-29733333D02*
X242259580Y-29685714D01*
X242259580Y-29685714D02*
X242164342Y-29638095D01*
X242164342Y-29638095D02*
X241973866Y-29590476D01*
X241973866Y-29590476D02*
X241735771Y-29590476D01*
X241735771Y-29590476D02*
X241545295Y-29638095D01*
X241545295Y-29638095D02*
X241450057Y-29685714D01*
X241450057Y-29685714D02*
X241402438Y-29733333D01*
X241402438Y-29733333D02*
X241354819Y-29828571D01*
X283119047Y-150904819D02*
X283452380Y-150428628D01*
X283690475Y-150904819D02*
X283690475Y-149904819D01*
X283690475Y-149904819D02*
X283309523Y-149904819D01*
X283309523Y-149904819D02*
X283214285Y-149952438D01*
X283214285Y-149952438D02*
X283166666Y-150000057D01*
X283166666Y-150000057D02*
X283119047Y-150095295D01*
X283119047Y-150095295D02*
X283119047Y-150238152D01*
X283119047Y-150238152D02*
X283166666Y-150333390D01*
X283166666Y-150333390D02*
X283214285Y-150381009D01*
X283214285Y-150381009D02*
X283309523Y-150428628D01*
X283309523Y-150428628D02*
X283690475Y-150428628D01*
X282166666Y-150904819D02*
X282738094Y-150904819D01*
X282452380Y-150904819D02*
X282452380Y-149904819D01*
X282452380Y-149904819D02*
X282547618Y-150047676D01*
X282547618Y-150047676D02*
X282642856Y-150142914D01*
X282642856Y-150142914D02*
X282738094Y-150190533D01*
X281214285Y-150904819D02*
X281785713Y-150904819D01*
X281499999Y-150904819D02*
X281499999Y-149904819D01*
X281499999Y-149904819D02*
X281595237Y-150047676D01*
X281595237Y-150047676D02*
X281690475Y-150142914D01*
X281690475Y-150142914D02*
X281785713Y-150190533D01*
X280880951Y-149904819D02*
X280214285Y-149904819D01*
X280214285Y-149904819D02*
X280642856Y-150904819D01*
X257333333Y-153734819D02*
X257333333Y-154449104D01*
X257333333Y-154449104D02*
X257380952Y-154591961D01*
X257380952Y-154591961D02*
X257476190Y-154687200D01*
X257476190Y-154687200D02*
X257619047Y-154734819D01*
X257619047Y-154734819D02*
X257714285Y-154734819D01*
X256857142Y-154734819D02*
X256857142Y-153734819D01*
X256857142Y-153734819D02*
X256476190Y-153734819D01*
X256476190Y-153734819D02*
X256380952Y-153782438D01*
X256380952Y-153782438D02*
X256333333Y-153830057D01*
X256333333Y-153830057D02*
X256285714Y-153925295D01*
X256285714Y-153925295D02*
X256285714Y-154068152D01*
X256285714Y-154068152D02*
X256333333Y-154163390D01*
X256333333Y-154163390D02*
X256380952Y-154211009D01*
X256380952Y-154211009D02*
X256476190Y-154258628D01*
X256476190Y-154258628D02*
X256857142Y-154258628D01*
X255428571Y-154068152D02*
X255428571Y-154734819D01*
X255666666Y-153687200D02*
X255904761Y-154401485D01*
X255904761Y-154401485D02*
X255285714Y-154401485D01*
X253614285Y-152934819D02*
X254185713Y-152934819D01*
X253899999Y-152934819D02*
X253899999Y-151934819D01*
X253899999Y-151934819D02*
X253995237Y-152077676D01*
X253995237Y-152077676D02*
X254090475Y-152172914D01*
X254090475Y-152172914D02*
X254185713Y-152220533D01*
X259433332Y-151934819D02*
X258814285Y-151934819D01*
X258814285Y-151934819D02*
X259147618Y-152315771D01*
X259147618Y-152315771D02*
X259004761Y-152315771D01*
X259004761Y-152315771D02*
X258909523Y-152363390D01*
X258909523Y-152363390D02*
X258861904Y-152411009D01*
X258861904Y-152411009D02*
X258814285Y-152506247D01*
X258814285Y-152506247D02*
X258814285Y-152744342D01*
X258814285Y-152744342D02*
X258861904Y-152839580D01*
X258861904Y-152839580D02*
X258909523Y-152887200D01*
X258909523Y-152887200D02*
X259004761Y-152934819D01*
X259004761Y-152934819D02*
X259290475Y-152934819D01*
X259290475Y-152934819D02*
X259385713Y-152887200D01*
X259385713Y-152887200D02*
X259433332Y-152839580D01*
X275742857Y-112854819D02*
X276076190Y-112378628D01*
X276314285Y-112854819D02*
X276314285Y-111854819D01*
X276314285Y-111854819D02*
X275933333Y-111854819D01*
X275933333Y-111854819D02*
X275838095Y-111902438D01*
X275838095Y-111902438D02*
X275790476Y-111950057D01*
X275790476Y-111950057D02*
X275742857Y-112045295D01*
X275742857Y-112045295D02*
X275742857Y-112188152D01*
X275742857Y-112188152D02*
X275790476Y-112283390D01*
X275790476Y-112283390D02*
X275838095Y-112331009D01*
X275838095Y-112331009D02*
X275933333Y-112378628D01*
X275933333Y-112378628D02*
X276314285Y-112378628D01*
X274885714Y-111854819D02*
X275076190Y-111854819D01*
X275076190Y-111854819D02*
X275171428Y-111902438D01*
X275171428Y-111902438D02*
X275219047Y-111950057D01*
X275219047Y-111950057D02*
X275314285Y-112092914D01*
X275314285Y-112092914D02*
X275361904Y-112283390D01*
X275361904Y-112283390D02*
X275361904Y-112664342D01*
X275361904Y-112664342D02*
X275314285Y-112759580D01*
X275314285Y-112759580D02*
X275266666Y-112807200D01*
X275266666Y-112807200D02*
X275171428Y-112854819D01*
X275171428Y-112854819D02*
X274980952Y-112854819D01*
X274980952Y-112854819D02*
X274885714Y-112807200D01*
X274885714Y-112807200D02*
X274838095Y-112759580D01*
X274838095Y-112759580D02*
X274790476Y-112664342D01*
X274790476Y-112664342D02*
X274790476Y-112426247D01*
X274790476Y-112426247D02*
X274838095Y-112331009D01*
X274838095Y-112331009D02*
X274885714Y-112283390D01*
X274885714Y-112283390D02*
X274980952Y-112235771D01*
X274980952Y-112235771D02*
X275171428Y-112235771D01*
X275171428Y-112235771D02*
X275266666Y-112283390D01*
X275266666Y-112283390D02*
X275314285Y-112331009D01*
X275314285Y-112331009D02*
X275361904Y-112426247D01*
X274314285Y-112854819D02*
X274123809Y-112854819D01*
X274123809Y-112854819D02*
X274028571Y-112807200D01*
X274028571Y-112807200D02*
X273980952Y-112759580D01*
X273980952Y-112759580D02*
X273885714Y-112616723D01*
X273885714Y-112616723D02*
X273838095Y-112426247D01*
X273838095Y-112426247D02*
X273838095Y-112045295D01*
X273838095Y-112045295D02*
X273885714Y-111950057D01*
X273885714Y-111950057D02*
X273933333Y-111902438D01*
X273933333Y-111902438D02*
X274028571Y-111854819D01*
X274028571Y-111854819D02*
X274219047Y-111854819D01*
X274219047Y-111854819D02*
X274314285Y-111902438D01*
X274314285Y-111902438D02*
X274361904Y-111950057D01*
X274361904Y-111950057D02*
X274409523Y-112045295D01*
X274409523Y-112045295D02*
X274409523Y-112283390D01*
X274409523Y-112283390D02*
X274361904Y-112378628D01*
X274361904Y-112378628D02*
X274314285Y-112426247D01*
X274314285Y-112426247D02*
X274219047Y-112473866D01*
X274219047Y-112473866D02*
X274028571Y-112473866D01*
X274028571Y-112473866D02*
X273933333Y-112426247D01*
X273933333Y-112426247D02*
X273885714Y-112378628D01*
X273885714Y-112378628D02*
X273838095Y-112283390D01*
X274809523Y-150199819D02*
X274809523Y-150914104D01*
X274809523Y-150914104D02*
X274857142Y-151056961D01*
X274857142Y-151056961D02*
X274952380Y-151152200D01*
X274952380Y-151152200D02*
X275095237Y-151199819D01*
X275095237Y-151199819D02*
X275190475Y-151199819D01*
X274333332Y-151199819D02*
X274333332Y-150199819D01*
X274333332Y-150199819D02*
X273952380Y-150199819D01*
X273952380Y-150199819D02*
X273857142Y-150247438D01*
X273857142Y-150247438D02*
X273809523Y-150295057D01*
X273809523Y-150295057D02*
X273761904Y-150390295D01*
X273761904Y-150390295D02*
X273761904Y-150533152D01*
X273761904Y-150533152D02*
X273809523Y-150628390D01*
X273809523Y-150628390D02*
X273857142Y-150676009D01*
X273857142Y-150676009D02*
X273952380Y-150723628D01*
X273952380Y-150723628D02*
X274333332Y-150723628D01*
X272809523Y-151199819D02*
X273380951Y-151199819D01*
X273095237Y-151199819D02*
X273095237Y-150199819D01*
X273095237Y-150199819D02*
X273190475Y-150342676D01*
X273190475Y-150342676D02*
X273285713Y-150437914D01*
X273285713Y-150437914D02*
X273380951Y-150485533D01*
X271857142Y-151199819D02*
X272428570Y-151199819D01*
X272142856Y-151199819D02*
X272142856Y-150199819D01*
X272142856Y-150199819D02*
X272238094Y-150342676D01*
X272238094Y-150342676D02*
X272333332Y-150437914D01*
X272333332Y-150437914D02*
X272428570Y-150485533D01*
X270614285Y-149399819D02*
X271185713Y-149399819D01*
X270899999Y-149399819D02*
X270899999Y-148399819D01*
X270899999Y-148399819D02*
X270995237Y-148542676D01*
X270995237Y-148542676D02*
X271090475Y-148637914D01*
X271090475Y-148637914D02*
X271185713Y-148685533D01*
X276433332Y-148399819D02*
X275814285Y-148399819D01*
X275814285Y-148399819D02*
X276147618Y-148780771D01*
X276147618Y-148780771D02*
X276004761Y-148780771D01*
X276004761Y-148780771D02*
X275909523Y-148828390D01*
X275909523Y-148828390D02*
X275861904Y-148876009D01*
X275861904Y-148876009D02*
X275814285Y-148971247D01*
X275814285Y-148971247D02*
X275814285Y-149209342D01*
X275814285Y-149209342D02*
X275861904Y-149304580D01*
X275861904Y-149304580D02*
X275909523Y-149352200D01*
X275909523Y-149352200D02*
X276004761Y-149399819D01*
X276004761Y-149399819D02*
X276290475Y-149399819D01*
X276290475Y-149399819D02*
X276385713Y-149352200D01*
X276385713Y-149352200D02*
X276433332Y-149304580D01*
X180209580Y-17833333D02*
X180257200Y-17785714D01*
X180257200Y-17785714D02*
X180304819Y-17642857D01*
X180304819Y-17642857D02*
X180304819Y-17547619D01*
X180304819Y-17547619D02*
X180257200Y-17404762D01*
X180257200Y-17404762D02*
X180161961Y-17309524D01*
X180161961Y-17309524D02*
X180066723Y-17261905D01*
X180066723Y-17261905D02*
X179876247Y-17214286D01*
X179876247Y-17214286D02*
X179733390Y-17214286D01*
X179733390Y-17214286D02*
X179542914Y-17261905D01*
X179542914Y-17261905D02*
X179447676Y-17309524D01*
X179447676Y-17309524D02*
X179352438Y-17404762D01*
X179352438Y-17404762D02*
X179304819Y-17547619D01*
X179304819Y-17547619D02*
X179304819Y-17642857D01*
X179304819Y-17642857D02*
X179352438Y-17785714D01*
X179352438Y-17785714D02*
X179400057Y-17833333D01*
X180304819Y-18785714D02*
X180304819Y-18214286D01*
X180304819Y-18500000D02*
X179304819Y-18500000D01*
X179304819Y-18500000D02*
X179447676Y-18404762D01*
X179447676Y-18404762D02*
X179542914Y-18309524D01*
X179542914Y-18309524D02*
X179590533Y-18214286D01*
X257333333Y-150184819D02*
X257333333Y-150899104D01*
X257333333Y-150899104D02*
X257380952Y-151041961D01*
X257380952Y-151041961D02*
X257476190Y-151137200D01*
X257476190Y-151137200D02*
X257619047Y-151184819D01*
X257619047Y-151184819D02*
X257714285Y-151184819D01*
X256857142Y-151184819D02*
X256857142Y-150184819D01*
X256857142Y-150184819D02*
X256476190Y-150184819D01*
X256476190Y-150184819D02*
X256380952Y-150232438D01*
X256380952Y-150232438D02*
X256333333Y-150280057D01*
X256333333Y-150280057D02*
X256285714Y-150375295D01*
X256285714Y-150375295D02*
X256285714Y-150518152D01*
X256285714Y-150518152D02*
X256333333Y-150613390D01*
X256333333Y-150613390D02*
X256380952Y-150661009D01*
X256380952Y-150661009D02*
X256476190Y-150708628D01*
X256476190Y-150708628D02*
X256857142Y-150708628D01*
X255380952Y-150184819D02*
X255857142Y-150184819D01*
X255857142Y-150184819D02*
X255904761Y-150661009D01*
X255904761Y-150661009D02*
X255857142Y-150613390D01*
X255857142Y-150613390D02*
X255761904Y-150565771D01*
X255761904Y-150565771D02*
X255523809Y-150565771D01*
X255523809Y-150565771D02*
X255428571Y-150613390D01*
X255428571Y-150613390D02*
X255380952Y-150661009D01*
X255380952Y-150661009D02*
X255333333Y-150756247D01*
X255333333Y-150756247D02*
X255333333Y-150994342D01*
X255333333Y-150994342D02*
X255380952Y-151089580D01*
X255380952Y-151089580D02*
X255428571Y-151137200D01*
X255428571Y-151137200D02*
X255523809Y-151184819D01*
X255523809Y-151184819D02*
X255761904Y-151184819D01*
X255761904Y-151184819D02*
X255857142Y-151137200D01*
X255857142Y-151137200D02*
X255904761Y-151089580D01*
X253614285Y-149384819D02*
X254185713Y-149384819D01*
X253899999Y-149384819D02*
X253899999Y-148384819D01*
X253899999Y-148384819D02*
X253995237Y-148527676D01*
X253995237Y-148527676D02*
X254090475Y-148622914D01*
X254090475Y-148622914D02*
X254185713Y-148670533D01*
X259433332Y-148384819D02*
X258814285Y-148384819D01*
X258814285Y-148384819D02*
X259147618Y-148765771D01*
X259147618Y-148765771D02*
X259004761Y-148765771D01*
X259004761Y-148765771D02*
X258909523Y-148813390D01*
X258909523Y-148813390D02*
X258861904Y-148861009D01*
X258861904Y-148861009D02*
X258814285Y-148956247D01*
X258814285Y-148956247D02*
X258814285Y-149194342D01*
X258814285Y-149194342D02*
X258861904Y-149289580D01*
X258861904Y-149289580D02*
X258909523Y-149337200D01*
X258909523Y-149337200D02*
X259004761Y-149384819D01*
X259004761Y-149384819D02*
X259290475Y-149384819D01*
X259290475Y-149384819D02*
X259385713Y-149337200D01*
X259385713Y-149337200D02*
X259433332Y-149289580D01*
X203042857Y-25454819D02*
X203376190Y-24978628D01*
X203614285Y-25454819D02*
X203614285Y-24454819D01*
X203614285Y-24454819D02*
X203233333Y-24454819D01*
X203233333Y-24454819D02*
X203138095Y-24502438D01*
X203138095Y-24502438D02*
X203090476Y-24550057D01*
X203090476Y-24550057D02*
X203042857Y-24645295D01*
X203042857Y-24645295D02*
X203042857Y-24788152D01*
X203042857Y-24788152D02*
X203090476Y-24883390D01*
X203090476Y-24883390D02*
X203138095Y-24931009D01*
X203138095Y-24931009D02*
X203233333Y-24978628D01*
X203233333Y-24978628D02*
X203614285Y-24978628D01*
X202185714Y-24454819D02*
X202376190Y-24454819D01*
X202376190Y-24454819D02*
X202471428Y-24502438D01*
X202471428Y-24502438D02*
X202519047Y-24550057D01*
X202519047Y-24550057D02*
X202614285Y-24692914D01*
X202614285Y-24692914D02*
X202661904Y-24883390D01*
X202661904Y-24883390D02*
X202661904Y-25264342D01*
X202661904Y-25264342D02*
X202614285Y-25359580D01*
X202614285Y-25359580D02*
X202566666Y-25407200D01*
X202566666Y-25407200D02*
X202471428Y-25454819D01*
X202471428Y-25454819D02*
X202280952Y-25454819D01*
X202280952Y-25454819D02*
X202185714Y-25407200D01*
X202185714Y-25407200D02*
X202138095Y-25359580D01*
X202138095Y-25359580D02*
X202090476Y-25264342D01*
X202090476Y-25264342D02*
X202090476Y-25026247D01*
X202090476Y-25026247D02*
X202138095Y-24931009D01*
X202138095Y-24931009D02*
X202185714Y-24883390D01*
X202185714Y-24883390D02*
X202280952Y-24835771D01*
X202280952Y-24835771D02*
X202471428Y-24835771D01*
X202471428Y-24835771D02*
X202566666Y-24883390D01*
X202566666Y-24883390D02*
X202614285Y-24931009D01*
X202614285Y-24931009D02*
X202661904Y-25026247D01*
X201233333Y-24454819D02*
X201423809Y-24454819D01*
X201423809Y-24454819D02*
X201519047Y-24502438D01*
X201519047Y-24502438D02*
X201566666Y-24550057D01*
X201566666Y-24550057D02*
X201661904Y-24692914D01*
X201661904Y-24692914D02*
X201709523Y-24883390D01*
X201709523Y-24883390D02*
X201709523Y-25264342D01*
X201709523Y-25264342D02*
X201661904Y-25359580D01*
X201661904Y-25359580D02*
X201614285Y-25407200D01*
X201614285Y-25407200D02*
X201519047Y-25454819D01*
X201519047Y-25454819D02*
X201328571Y-25454819D01*
X201328571Y-25454819D02*
X201233333Y-25407200D01*
X201233333Y-25407200D02*
X201185714Y-25359580D01*
X201185714Y-25359580D02*
X201138095Y-25264342D01*
X201138095Y-25264342D02*
X201138095Y-25026247D01*
X201138095Y-25026247D02*
X201185714Y-24931009D01*
X201185714Y-24931009D02*
X201233333Y-24883390D01*
X201233333Y-24883390D02*
X201328571Y-24835771D01*
X201328571Y-24835771D02*
X201519047Y-24835771D01*
X201519047Y-24835771D02*
X201614285Y-24883390D01*
X201614285Y-24883390D02*
X201661904Y-24931009D01*
X201661904Y-24931009D02*
X201709523Y-25026247D01*
X149417857Y-56709580D02*
X149465476Y-56757200D01*
X149465476Y-56757200D02*
X149608333Y-56804819D01*
X149608333Y-56804819D02*
X149703571Y-56804819D01*
X149703571Y-56804819D02*
X149846428Y-56757200D01*
X149846428Y-56757200D02*
X149941666Y-56661961D01*
X149941666Y-56661961D02*
X149989285Y-56566723D01*
X149989285Y-56566723D02*
X150036904Y-56376247D01*
X150036904Y-56376247D02*
X150036904Y-56233390D01*
X150036904Y-56233390D02*
X149989285Y-56042914D01*
X149989285Y-56042914D02*
X149941666Y-55947676D01*
X149941666Y-55947676D02*
X149846428Y-55852438D01*
X149846428Y-55852438D02*
X149703571Y-55804819D01*
X149703571Y-55804819D02*
X149608333Y-55804819D01*
X149608333Y-55804819D02*
X149465476Y-55852438D01*
X149465476Y-55852438D02*
X149417857Y-55900057D01*
X149036904Y-55900057D02*
X148989285Y-55852438D01*
X148989285Y-55852438D02*
X148894047Y-55804819D01*
X148894047Y-55804819D02*
X148655952Y-55804819D01*
X148655952Y-55804819D02*
X148560714Y-55852438D01*
X148560714Y-55852438D02*
X148513095Y-55900057D01*
X148513095Y-55900057D02*
X148465476Y-55995295D01*
X148465476Y-55995295D02*
X148465476Y-56090533D01*
X148465476Y-56090533D02*
X148513095Y-56233390D01*
X148513095Y-56233390D02*
X149084523Y-56804819D01*
X149084523Y-56804819D02*
X148465476Y-56804819D01*
X148084523Y-55900057D02*
X148036904Y-55852438D01*
X148036904Y-55852438D02*
X147941666Y-55804819D01*
X147941666Y-55804819D02*
X147703571Y-55804819D01*
X147703571Y-55804819D02*
X147608333Y-55852438D01*
X147608333Y-55852438D02*
X147560714Y-55900057D01*
X147560714Y-55900057D02*
X147513095Y-55995295D01*
X147513095Y-55995295D02*
X147513095Y-56090533D01*
X147513095Y-56090533D02*
X147560714Y-56233390D01*
X147560714Y-56233390D02*
X148132142Y-56804819D01*
X148132142Y-56804819D02*
X147513095Y-56804819D01*
X257333333Y-146634819D02*
X257333333Y-147349104D01*
X257333333Y-147349104D02*
X257380952Y-147491961D01*
X257380952Y-147491961D02*
X257476190Y-147587200D01*
X257476190Y-147587200D02*
X257619047Y-147634819D01*
X257619047Y-147634819D02*
X257714285Y-147634819D01*
X256857142Y-147634819D02*
X256857142Y-146634819D01*
X256857142Y-146634819D02*
X256476190Y-146634819D01*
X256476190Y-146634819D02*
X256380952Y-146682438D01*
X256380952Y-146682438D02*
X256333333Y-146730057D01*
X256333333Y-146730057D02*
X256285714Y-146825295D01*
X256285714Y-146825295D02*
X256285714Y-146968152D01*
X256285714Y-146968152D02*
X256333333Y-147063390D01*
X256333333Y-147063390D02*
X256380952Y-147111009D01*
X256380952Y-147111009D02*
X256476190Y-147158628D01*
X256476190Y-147158628D02*
X256857142Y-147158628D01*
X255428571Y-146634819D02*
X255619047Y-146634819D01*
X255619047Y-146634819D02*
X255714285Y-146682438D01*
X255714285Y-146682438D02*
X255761904Y-146730057D01*
X255761904Y-146730057D02*
X255857142Y-146872914D01*
X255857142Y-146872914D02*
X255904761Y-147063390D01*
X255904761Y-147063390D02*
X255904761Y-147444342D01*
X255904761Y-147444342D02*
X255857142Y-147539580D01*
X255857142Y-147539580D02*
X255809523Y-147587200D01*
X255809523Y-147587200D02*
X255714285Y-147634819D01*
X255714285Y-147634819D02*
X255523809Y-147634819D01*
X255523809Y-147634819D02*
X255428571Y-147587200D01*
X255428571Y-147587200D02*
X255380952Y-147539580D01*
X255380952Y-147539580D02*
X255333333Y-147444342D01*
X255333333Y-147444342D02*
X255333333Y-147206247D01*
X255333333Y-147206247D02*
X255380952Y-147111009D01*
X255380952Y-147111009D02*
X255428571Y-147063390D01*
X255428571Y-147063390D02*
X255523809Y-147015771D01*
X255523809Y-147015771D02*
X255714285Y-147015771D01*
X255714285Y-147015771D02*
X255809523Y-147063390D01*
X255809523Y-147063390D02*
X255857142Y-147111009D01*
X255857142Y-147111009D02*
X255904761Y-147206247D01*
X253614285Y-145834819D02*
X254185713Y-145834819D01*
X253899999Y-145834819D02*
X253899999Y-144834819D01*
X253899999Y-144834819D02*
X253995237Y-144977676D01*
X253995237Y-144977676D02*
X254090475Y-145072914D01*
X254090475Y-145072914D02*
X254185713Y-145120533D01*
X259433332Y-144834819D02*
X258814285Y-144834819D01*
X258814285Y-144834819D02*
X259147618Y-145215771D01*
X259147618Y-145215771D02*
X259004761Y-145215771D01*
X259004761Y-145215771D02*
X258909523Y-145263390D01*
X258909523Y-145263390D02*
X258861904Y-145311009D01*
X258861904Y-145311009D02*
X258814285Y-145406247D01*
X258814285Y-145406247D02*
X258814285Y-145644342D01*
X258814285Y-145644342D02*
X258861904Y-145739580D01*
X258861904Y-145739580D02*
X258909523Y-145787200D01*
X258909523Y-145787200D02*
X259004761Y-145834819D01*
X259004761Y-145834819D02*
X259290475Y-145834819D01*
X259290475Y-145834819D02*
X259385713Y-145787200D01*
X259385713Y-145787200D02*
X259433332Y-145739580D01*
X257142857Y-138939580D02*
X257190476Y-138987200D01*
X257190476Y-138987200D02*
X257333333Y-139034819D01*
X257333333Y-139034819D02*
X257428571Y-139034819D01*
X257428571Y-139034819D02*
X257571428Y-138987200D01*
X257571428Y-138987200D02*
X257666666Y-138891961D01*
X257666666Y-138891961D02*
X257714285Y-138796723D01*
X257714285Y-138796723D02*
X257761904Y-138606247D01*
X257761904Y-138606247D02*
X257761904Y-138463390D01*
X257761904Y-138463390D02*
X257714285Y-138272914D01*
X257714285Y-138272914D02*
X257666666Y-138177676D01*
X257666666Y-138177676D02*
X257571428Y-138082438D01*
X257571428Y-138082438D02*
X257428571Y-138034819D01*
X257428571Y-138034819D02*
X257333333Y-138034819D01*
X257333333Y-138034819D02*
X257190476Y-138082438D01*
X257190476Y-138082438D02*
X257142857Y-138130057D01*
X256761904Y-138130057D02*
X256714285Y-138082438D01*
X256714285Y-138082438D02*
X256619047Y-138034819D01*
X256619047Y-138034819D02*
X256380952Y-138034819D01*
X256380952Y-138034819D02*
X256285714Y-138082438D01*
X256285714Y-138082438D02*
X256238095Y-138130057D01*
X256238095Y-138130057D02*
X256190476Y-138225295D01*
X256190476Y-138225295D02*
X256190476Y-138320533D01*
X256190476Y-138320533D02*
X256238095Y-138463390D01*
X256238095Y-138463390D02*
X256809523Y-139034819D01*
X256809523Y-139034819D02*
X256190476Y-139034819D01*
X255857142Y-138034819D02*
X255190476Y-138034819D01*
X255190476Y-138034819D02*
X255619047Y-139034819D01*
X275742857Y-105304819D02*
X276076190Y-104828628D01*
X276314285Y-105304819D02*
X276314285Y-104304819D01*
X276314285Y-104304819D02*
X275933333Y-104304819D01*
X275933333Y-104304819D02*
X275838095Y-104352438D01*
X275838095Y-104352438D02*
X275790476Y-104400057D01*
X275790476Y-104400057D02*
X275742857Y-104495295D01*
X275742857Y-104495295D02*
X275742857Y-104638152D01*
X275742857Y-104638152D02*
X275790476Y-104733390D01*
X275790476Y-104733390D02*
X275838095Y-104781009D01*
X275838095Y-104781009D02*
X275933333Y-104828628D01*
X275933333Y-104828628D02*
X276314285Y-104828628D01*
X275409523Y-104304819D02*
X274742857Y-104304819D01*
X274742857Y-104304819D02*
X275171428Y-105304819D01*
X274409523Y-104400057D02*
X274361904Y-104352438D01*
X274361904Y-104352438D02*
X274266666Y-104304819D01*
X274266666Y-104304819D02*
X274028571Y-104304819D01*
X274028571Y-104304819D02*
X273933333Y-104352438D01*
X273933333Y-104352438D02*
X273885714Y-104400057D01*
X273885714Y-104400057D02*
X273838095Y-104495295D01*
X273838095Y-104495295D02*
X273838095Y-104590533D01*
X273838095Y-104590533D02*
X273885714Y-104733390D01*
X273885714Y-104733390D02*
X274457142Y-105304819D01*
X274457142Y-105304819D02*
X273838095Y-105304819D01*
X274809523Y-153749819D02*
X274809523Y-154464104D01*
X274809523Y-154464104D02*
X274857142Y-154606961D01*
X274857142Y-154606961D02*
X274952380Y-154702200D01*
X274952380Y-154702200D02*
X275095237Y-154749819D01*
X275095237Y-154749819D02*
X275190475Y-154749819D01*
X274333332Y-154749819D02*
X274333332Y-153749819D01*
X274333332Y-153749819D02*
X273952380Y-153749819D01*
X273952380Y-153749819D02*
X273857142Y-153797438D01*
X273857142Y-153797438D02*
X273809523Y-153845057D01*
X273809523Y-153845057D02*
X273761904Y-153940295D01*
X273761904Y-153940295D02*
X273761904Y-154083152D01*
X273761904Y-154083152D02*
X273809523Y-154178390D01*
X273809523Y-154178390D02*
X273857142Y-154226009D01*
X273857142Y-154226009D02*
X273952380Y-154273628D01*
X273952380Y-154273628D02*
X274333332Y-154273628D01*
X272809523Y-154749819D02*
X273380951Y-154749819D01*
X273095237Y-154749819D02*
X273095237Y-153749819D01*
X273095237Y-153749819D02*
X273190475Y-153892676D01*
X273190475Y-153892676D02*
X273285713Y-153987914D01*
X273285713Y-153987914D02*
X273380951Y-154035533D01*
X272190475Y-153749819D02*
X272095237Y-153749819D01*
X272095237Y-153749819D02*
X271999999Y-153797438D01*
X271999999Y-153797438D02*
X271952380Y-153845057D01*
X271952380Y-153845057D02*
X271904761Y-153940295D01*
X271904761Y-153940295D02*
X271857142Y-154130771D01*
X271857142Y-154130771D02*
X271857142Y-154368866D01*
X271857142Y-154368866D02*
X271904761Y-154559342D01*
X271904761Y-154559342D02*
X271952380Y-154654580D01*
X271952380Y-154654580D02*
X271999999Y-154702200D01*
X271999999Y-154702200D02*
X272095237Y-154749819D01*
X272095237Y-154749819D02*
X272190475Y-154749819D01*
X272190475Y-154749819D02*
X272285713Y-154702200D01*
X272285713Y-154702200D02*
X272333332Y-154654580D01*
X272333332Y-154654580D02*
X272380951Y-154559342D01*
X272380951Y-154559342D02*
X272428570Y-154368866D01*
X272428570Y-154368866D02*
X272428570Y-154130771D01*
X272428570Y-154130771D02*
X272380951Y-153940295D01*
X272380951Y-153940295D02*
X272333332Y-153845057D01*
X272333332Y-153845057D02*
X272285713Y-153797438D01*
X272285713Y-153797438D02*
X272190475Y-153749819D01*
X270614285Y-152949819D02*
X271185713Y-152949819D01*
X270899999Y-152949819D02*
X270899999Y-151949819D01*
X270899999Y-151949819D02*
X270995237Y-152092676D01*
X270995237Y-152092676D02*
X271090475Y-152187914D01*
X271090475Y-152187914D02*
X271185713Y-152235533D01*
X276433332Y-151949819D02*
X275814285Y-151949819D01*
X275814285Y-151949819D02*
X276147618Y-152330771D01*
X276147618Y-152330771D02*
X276004761Y-152330771D01*
X276004761Y-152330771D02*
X275909523Y-152378390D01*
X275909523Y-152378390D02*
X275861904Y-152426009D01*
X275861904Y-152426009D02*
X275814285Y-152521247D01*
X275814285Y-152521247D02*
X275814285Y-152759342D01*
X275814285Y-152759342D02*
X275861904Y-152854580D01*
X275861904Y-152854580D02*
X275909523Y-152902200D01*
X275909523Y-152902200D02*
X276004761Y-152949819D01*
X276004761Y-152949819D02*
X276290475Y-152949819D01*
X276290475Y-152949819D02*
X276385713Y-152902200D01*
X276385713Y-152902200D02*
X276433332Y-152854580D01*
X29367857Y-56709580D02*
X29415476Y-56757200D01*
X29415476Y-56757200D02*
X29558333Y-56804819D01*
X29558333Y-56804819D02*
X29653571Y-56804819D01*
X29653571Y-56804819D02*
X29796428Y-56757200D01*
X29796428Y-56757200D02*
X29891666Y-56661961D01*
X29891666Y-56661961D02*
X29939285Y-56566723D01*
X29939285Y-56566723D02*
X29986904Y-56376247D01*
X29986904Y-56376247D02*
X29986904Y-56233390D01*
X29986904Y-56233390D02*
X29939285Y-56042914D01*
X29939285Y-56042914D02*
X29891666Y-55947676D01*
X29891666Y-55947676D02*
X29796428Y-55852438D01*
X29796428Y-55852438D02*
X29653571Y-55804819D01*
X29653571Y-55804819D02*
X29558333Y-55804819D01*
X29558333Y-55804819D02*
X29415476Y-55852438D01*
X29415476Y-55852438D02*
X29367857Y-55900057D01*
X28415476Y-56804819D02*
X28986904Y-56804819D01*
X28701190Y-56804819D02*
X28701190Y-55804819D01*
X28701190Y-55804819D02*
X28796428Y-55947676D01*
X28796428Y-55947676D02*
X28891666Y-56042914D01*
X28891666Y-56042914D02*
X28986904Y-56090533D01*
X27558333Y-56138152D02*
X27558333Y-56804819D01*
X27796428Y-55757200D02*
X28034523Y-56471485D01*
X28034523Y-56471485D02*
X27415476Y-56471485D01*
X275742857Y-110354819D02*
X276076190Y-109878628D01*
X276314285Y-110354819D02*
X276314285Y-109354819D01*
X276314285Y-109354819D02*
X275933333Y-109354819D01*
X275933333Y-109354819D02*
X275838095Y-109402438D01*
X275838095Y-109402438D02*
X275790476Y-109450057D01*
X275790476Y-109450057D02*
X275742857Y-109545295D01*
X275742857Y-109545295D02*
X275742857Y-109688152D01*
X275742857Y-109688152D02*
X275790476Y-109783390D01*
X275790476Y-109783390D02*
X275838095Y-109831009D01*
X275838095Y-109831009D02*
X275933333Y-109878628D01*
X275933333Y-109878628D02*
X276314285Y-109878628D01*
X274838095Y-109354819D02*
X275314285Y-109354819D01*
X275314285Y-109354819D02*
X275361904Y-109831009D01*
X275361904Y-109831009D02*
X275314285Y-109783390D01*
X275314285Y-109783390D02*
X275219047Y-109735771D01*
X275219047Y-109735771D02*
X274980952Y-109735771D01*
X274980952Y-109735771D02*
X274885714Y-109783390D01*
X274885714Y-109783390D02*
X274838095Y-109831009D01*
X274838095Y-109831009D02*
X274790476Y-109926247D01*
X274790476Y-109926247D02*
X274790476Y-110164342D01*
X274790476Y-110164342D02*
X274838095Y-110259580D01*
X274838095Y-110259580D02*
X274885714Y-110307200D01*
X274885714Y-110307200D02*
X274980952Y-110354819D01*
X274980952Y-110354819D02*
X275219047Y-110354819D01*
X275219047Y-110354819D02*
X275314285Y-110307200D01*
X275314285Y-110307200D02*
X275361904Y-110259580D01*
X273885714Y-109354819D02*
X274361904Y-109354819D01*
X274361904Y-109354819D02*
X274409523Y-109831009D01*
X274409523Y-109831009D02*
X274361904Y-109783390D01*
X274361904Y-109783390D02*
X274266666Y-109735771D01*
X274266666Y-109735771D02*
X274028571Y-109735771D01*
X274028571Y-109735771D02*
X273933333Y-109783390D01*
X273933333Y-109783390D02*
X273885714Y-109831009D01*
X273885714Y-109831009D02*
X273838095Y-109926247D01*
X273838095Y-109926247D02*
X273838095Y-110164342D01*
X273838095Y-110164342D02*
X273885714Y-110259580D01*
X273885714Y-110259580D02*
X273933333Y-110307200D01*
X273933333Y-110307200D02*
X274028571Y-110354819D01*
X274028571Y-110354819D02*
X274266666Y-110354819D01*
X274266666Y-110354819D02*
X274361904Y-110307200D01*
X274361904Y-110307200D02*
X274409523Y-110259580D01*
X176509580Y-22833333D02*
X176557200Y-22785714D01*
X176557200Y-22785714D02*
X176604819Y-22642857D01*
X176604819Y-22642857D02*
X176604819Y-22547619D01*
X176604819Y-22547619D02*
X176557200Y-22404762D01*
X176557200Y-22404762D02*
X176461961Y-22309524D01*
X176461961Y-22309524D02*
X176366723Y-22261905D01*
X176366723Y-22261905D02*
X176176247Y-22214286D01*
X176176247Y-22214286D02*
X176033390Y-22214286D01*
X176033390Y-22214286D02*
X175842914Y-22261905D01*
X175842914Y-22261905D02*
X175747676Y-22309524D01*
X175747676Y-22309524D02*
X175652438Y-22404762D01*
X175652438Y-22404762D02*
X175604819Y-22547619D01*
X175604819Y-22547619D02*
X175604819Y-22642857D01*
X175604819Y-22642857D02*
X175652438Y-22785714D01*
X175652438Y-22785714D02*
X175700057Y-22833333D01*
X175700057Y-23214286D02*
X175652438Y-23261905D01*
X175652438Y-23261905D02*
X175604819Y-23357143D01*
X175604819Y-23357143D02*
X175604819Y-23595238D01*
X175604819Y-23595238D02*
X175652438Y-23690476D01*
X175652438Y-23690476D02*
X175700057Y-23738095D01*
X175700057Y-23738095D02*
X175795295Y-23785714D01*
X175795295Y-23785714D02*
X175890533Y-23785714D01*
X175890533Y-23785714D02*
X176033390Y-23738095D01*
X176033390Y-23738095D02*
X176604819Y-23166667D01*
X176604819Y-23166667D02*
X176604819Y-23785714D01*
X89417857Y-56209580D02*
X89465476Y-56257200D01*
X89465476Y-56257200D02*
X89608333Y-56304819D01*
X89608333Y-56304819D02*
X89703571Y-56304819D01*
X89703571Y-56304819D02*
X89846428Y-56257200D01*
X89846428Y-56257200D02*
X89941666Y-56161961D01*
X89941666Y-56161961D02*
X89989285Y-56066723D01*
X89989285Y-56066723D02*
X90036904Y-55876247D01*
X90036904Y-55876247D02*
X90036904Y-55733390D01*
X90036904Y-55733390D02*
X89989285Y-55542914D01*
X89989285Y-55542914D02*
X89941666Y-55447676D01*
X89941666Y-55447676D02*
X89846428Y-55352438D01*
X89846428Y-55352438D02*
X89703571Y-55304819D01*
X89703571Y-55304819D02*
X89608333Y-55304819D01*
X89608333Y-55304819D02*
X89465476Y-55352438D01*
X89465476Y-55352438D02*
X89417857Y-55400057D01*
X88465476Y-56304819D02*
X89036904Y-56304819D01*
X88751190Y-56304819D02*
X88751190Y-55304819D01*
X88751190Y-55304819D02*
X88846428Y-55447676D01*
X88846428Y-55447676D02*
X88941666Y-55542914D01*
X88941666Y-55542914D02*
X89036904Y-55590533D01*
X87894047Y-55733390D02*
X87989285Y-55685771D01*
X87989285Y-55685771D02*
X88036904Y-55638152D01*
X88036904Y-55638152D02*
X88084523Y-55542914D01*
X88084523Y-55542914D02*
X88084523Y-55495295D01*
X88084523Y-55495295D02*
X88036904Y-55400057D01*
X88036904Y-55400057D02*
X87989285Y-55352438D01*
X87989285Y-55352438D02*
X87894047Y-55304819D01*
X87894047Y-55304819D02*
X87703571Y-55304819D01*
X87703571Y-55304819D02*
X87608333Y-55352438D01*
X87608333Y-55352438D02*
X87560714Y-55400057D01*
X87560714Y-55400057D02*
X87513095Y-55495295D01*
X87513095Y-55495295D02*
X87513095Y-55542914D01*
X87513095Y-55542914D02*
X87560714Y-55638152D01*
X87560714Y-55638152D02*
X87608333Y-55685771D01*
X87608333Y-55685771D02*
X87703571Y-55733390D01*
X87703571Y-55733390D02*
X87894047Y-55733390D01*
X87894047Y-55733390D02*
X87989285Y-55781009D01*
X87989285Y-55781009D02*
X88036904Y-55828628D01*
X88036904Y-55828628D02*
X88084523Y-55923866D01*
X88084523Y-55923866D02*
X88084523Y-56114342D01*
X88084523Y-56114342D02*
X88036904Y-56209580D01*
X88036904Y-56209580D02*
X87989285Y-56257200D01*
X87989285Y-56257200D02*
X87894047Y-56304819D01*
X87894047Y-56304819D02*
X87703571Y-56304819D01*
X87703571Y-56304819D02*
X87608333Y-56257200D01*
X87608333Y-56257200D02*
X87560714Y-56209580D01*
X87560714Y-56209580D02*
X87513095Y-56114342D01*
X87513095Y-56114342D02*
X87513095Y-55923866D01*
X87513095Y-55923866D02*
X87560714Y-55828628D01*
X87560714Y-55828628D02*
X87608333Y-55781009D01*
X87608333Y-55781009D02*
X87703571Y-55733390D01*
X279892857Y-14954819D02*
X280226190Y-14478628D01*
X280464285Y-14954819D02*
X280464285Y-13954819D01*
X280464285Y-13954819D02*
X280083333Y-13954819D01*
X280083333Y-13954819D02*
X279988095Y-14002438D01*
X279988095Y-14002438D02*
X279940476Y-14050057D01*
X279940476Y-14050057D02*
X279892857Y-14145295D01*
X279892857Y-14145295D02*
X279892857Y-14288152D01*
X279892857Y-14288152D02*
X279940476Y-14383390D01*
X279940476Y-14383390D02*
X279988095Y-14431009D01*
X279988095Y-14431009D02*
X280083333Y-14478628D01*
X280083333Y-14478628D02*
X280464285Y-14478628D01*
X278940476Y-14954819D02*
X279511904Y-14954819D01*
X279226190Y-14954819D02*
X279226190Y-13954819D01*
X279226190Y-13954819D02*
X279321428Y-14097676D01*
X279321428Y-14097676D02*
X279416666Y-14192914D01*
X279416666Y-14192914D02*
X279511904Y-14240533D01*
X278035714Y-13954819D02*
X278511904Y-13954819D01*
X278511904Y-13954819D02*
X278559523Y-14431009D01*
X278559523Y-14431009D02*
X278511904Y-14383390D01*
X278511904Y-14383390D02*
X278416666Y-14335771D01*
X278416666Y-14335771D02*
X278178571Y-14335771D01*
X278178571Y-14335771D02*
X278083333Y-14383390D01*
X278083333Y-14383390D02*
X278035714Y-14431009D01*
X278035714Y-14431009D02*
X277988095Y-14526247D01*
X277988095Y-14526247D02*
X277988095Y-14764342D01*
X277988095Y-14764342D02*
X278035714Y-14859580D01*
X278035714Y-14859580D02*
X278083333Y-14907200D01*
X278083333Y-14907200D02*
X278178571Y-14954819D01*
X278178571Y-14954819D02*
X278416666Y-14954819D01*
X278416666Y-14954819D02*
X278511904Y-14907200D01*
X278511904Y-14907200D02*
X278559523Y-14859580D01*
X274142857Y-138954580D02*
X274190476Y-139002200D01*
X274190476Y-139002200D02*
X274333333Y-139049819D01*
X274333333Y-139049819D02*
X274428571Y-139049819D01*
X274428571Y-139049819D02*
X274571428Y-139002200D01*
X274571428Y-139002200D02*
X274666666Y-138906961D01*
X274666666Y-138906961D02*
X274714285Y-138811723D01*
X274714285Y-138811723D02*
X274761904Y-138621247D01*
X274761904Y-138621247D02*
X274761904Y-138478390D01*
X274761904Y-138478390D02*
X274714285Y-138287914D01*
X274714285Y-138287914D02*
X274666666Y-138192676D01*
X274666666Y-138192676D02*
X274571428Y-138097438D01*
X274571428Y-138097438D02*
X274428571Y-138049819D01*
X274428571Y-138049819D02*
X274333333Y-138049819D01*
X274333333Y-138049819D02*
X274190476Y-138097438D01*
X274190476Y-138097438D02*
X274142857Y-138145057D01*
X273761904Y-138145057D02*
X273714285Y-138097438D01*
X273714285Y-138097438D02*
X273619047Y-138049819D01*
X273619047Y-138049819D02*
X273380952Y-138049819D01*
X273380952Y-138049819D02*
X273285714Y-138097438D01*
X273285714Y-138097438D02*
X273238095Y-138145057D01*
X273238095Y-138145057D02*
X273190476Y-138240295D01*
X273190476Y-138240295D02*
X273190476Y-138335533D01*
X273190476Y-138335533D02*
X273238095Y-138478390D01*
X273238095Y-138478390D02*
X273809523Y-139049819D01*
X273809523Y-139049819D02*
X273190476Y-139049819D01*
X272714285Y-139049819D02*
X272523809Y-139049819D01*
X272523809Y-139049819D02*
X272428571Y-139002200D01*
X272428571Y-139002200D02*
X272380952Y-138954580D01*
X272380952Y-138954580D02*
X272285714Y-138811723D01*
X272285714Y-138811723D02*
X272238095Y-138621247D01*
X272238095Y-138621247D02*
X272238095Y-138240295D01*
X272238095Y-138240295D02*
X272285714Y-138145057D01*
X272285714Y-138145057D02*
X272333333Y-138097438D01*
X272333333Y-138097438D02*
X272428571Y-138049819D01*
X272428571Y-138049819D02*
X272619047Y-138049819D01*
X272619047Y-138049819D02*
X272714285Y-138097438D01*
X272714285Y-138097438D02*
X272761904Y-138145057D01*
X272761904Y-138145057D02*
X272809523Y-138240295D01*
X272809523Y-138240295D02*
X272809523Y-138478390D01*
X272809523Y-138478390D02*
X272761904Y-138573628D01*
X272761904Y-138573628D02*
X272714285Y-138621247D01*
X272714285Y-138621247D02*
X272619047Y-138668866D01*
X272619047Y-138668866D02*
X272428571Y-138668866D01*
X272428571Y-138668866D02*
X272333333Y-138621247D01*
X272333333Y-138621247D02*
X272285714Y-138573628D01*
X272285714Y-138573628D02*
X272238095Y-138478390D01*
X275742857Y-123054819D02*
X276076190Y-122578628D01*
X276314285Y-123054819D02*
X276314285Y-122054819D01*
X276314285Y-122054819D02*
X275933333Y-122054819D01*
X275933333Y-122054819D02*
X275838095Y-122102438D01*
X275838095Y-122102438D02*
X275790476Y-122150057D01*
X275790476Y-122150057D02*
X275742857Y-122245295D01*
X275742857Y-122245295D02*
X275742857Y-122388152D01*
X275742857Y-122388152D02*
X275790476Y-122483390D01*
X275790476Y-122483390D02*
X275838095Y-122531009D01*
X275838095Y-122531009D02*
X275933333Y-122578628D01*
X275933333Y-122578628D02*
X276314285Y-122578628D01*
X275171428Y-122483390D02*
X275266666Y-122435771D01*
X275266666Y-122435771D02*
X275314285Y-122388152D01*
X275314285Y-122388152D02*
X275361904Y-122292914D01*
X275361904Y-122292914D02*
X275361904Y-122245295D01*
X275361904Y-122245295D02*
X275314285Y-122150057D01*
X275314285Y-122150057D02*
X275266666Y-122102438D01*
X275266666Y-122102438D02*
X275171428Y-122054819D01*
X275171428Y-122054819D02*
X274980952Y-122054819D01*
X274980952Y-122054819D02*
X274885714Y-122102438D01*
X274885714Y-122102438D02*
X274838095Y-122150057D01*
X274838095Y-122150057D02*
X274790476Y-122245295D01*
X274790476Y-122245295D02*
X274790476Y-122292914D01*
X274790476Y-122292914D02*
X274838095Y-122388152D01*
X274838095Y-122388152D02*
X274885714Y-122435771D01*
X274885714Y-122435771D02*
X274980952Y-122483390D01*
X274980952Y-122483390D02*
X275171428Y-122483390D01*
X275171428Y-122483390D02*
X275266666Y-122531009D01*
X275266666Y-122531009D02*
X275314285Y-122578628D01*
X275314285Y-122578628D02*
X275361904Y-122673866D01*
X275361904Y-122673866D02*
X275361904Y-122864342D01*
X275361904Y-122864342D02*
X275314285Y-122959580D01*
X275314285Y-122959580D02*
X275266666Y-123007200D01*
X275266666Y-123007200D02*
X275171428Y-123054819D01*
X275171428Y-123054819D02*
X274980952Y-123054819D01*
X274980952Y-123054819D02*
X274885714Y-123007200D01*
X274885714Y-123007200D02*
X274838095Y-122959580D01*
X274838095Y-122959580D02*
X274790476Y-122864342D01*
X274790476Y-122864342D02*
X274790476Y-122673866D01*
X274790476Y-122673866D02*
X274838095Y-122578628D01*
X274838095Y-122578628D02*
X274885714Y-122531009D01*
X274885714Y-122531009D02*
X274980952Y-122483390D01*
X273933333Y-122054819D02*
X274123809Y-122054819D01*
X274123809Y-122054819D02*
X274219047Y-122102438D01*
X274219047Y-122102438D02*
X274266666Y-122150057D01*
X274266666Y-122150057D02*
X274361904Y-122292914D01*
X274361904Y-122292914D02*
X274409523Y-122483390D01*
X274409523Y-122483390D02*
X274409523Y-122864342D01*
X274409523Y-122864342D02*
X274361904Y-122959580D01*
X274361904Y-122959580D02*
X274314285Y-123007200D01*
X274314285Y-123007200D02*
X274219047Y-123054819D01*
X274219047Y-123054819D02*
X274028571Y-123054819D01*
X274028571Y-123054819D02*
X273933333Y-123007200D01*
X273933333Y-123007200D02*
X273885714Y-122959580D01*
X273885714Y-122959580D02*
X273838095Y-122864342D01*
X273838095Y-122864342D02*
X273838095Y-122626247D01*
X273838095Y-122626247D02*
X273885714Y-122531009D01*
X273885714Y-122531009D02*
X273933333Y-122483390D01*
X273933333Y-122483390D02*
X274028571Y-122435771D01*
X274028571Y-122435771D02*
X274219047Y-122435771D01*
X274219047Y-122435771D02*
X274314285Y-122483390D01*
X274314285Y-122483390D02*
X274361904Y-122531009D01*
X274361904Y-122531009D02*
X274409523Y-122626247D01*
%TO.C,R70*%
D12*
X278272936Y-119345000D02*
X278727064Y-119345000D01*
X278272936Y-120815000D02*
X278727064Y-120815000D01*
%TO.C,R54*%
X278272936Y-101565000D02*
X278727064Y-101565000D01*
X278272936Y-103035000D02*
X278727064Y-103035000D01*
%TO.C,C3*%
X271188748Y-14890000D02*
X272611252Y-14890000D01*
X271188748Y-16710000D02*
X272611252Y-16710000D01*
%TO.C,R84*%
X278272936Y-106645000D02*
X278727064Y-106645000D01*
X278272936Y-108115000D02*
X278727064Y-108115000D01*
%TO.C,C15*%
X146940000Y-18436252D02*
X146940000Y-17013748D01*
X148760000Y-18436252D02*
X148760000Y-17013748D01*
%TO.C,R111*%
X265064564Y-151215000D02*
X264610436Y-151215000D01*
X265064564Y-152685000D02*
X264610436Y-152685000D01*
%TO.C,R119*%
X282227064Y-145315000D02*
X281772936Y-145315000D01*
X282227064Y-146785000D02*
X281772936Y-146785000D01*
%TO.C,C16*%
X58038748Y-53590000D02*
X59461252Y-53590000D01*
X58038748Y-55410000D02*
X59461252Y-55410000D01*
%TO.C,R98*%
X240772936Y-30765000D02*
X241227064Y-30765000D01*
X240772936Y-32235000D02*
X241227064Y-32235000D01*
%TO.C,R76*%
X209814564Y-25765000D02*
X209360436Y-25765000D01*
X209814564Y-27235000D02*
X209360436Y-27235000D01*
%TO.C,R113*%
X265064564Y-145315000D02*
X264610436Y-145315000D01*
X265064564Y-146785000D02*
X264610436Y-146785000D01*
%TO.C,R100*%
X248314564Y-25765000D02*
X247860436Y-25765000D01*
X248314564Y-27235000D02*
X247860436Y-27235000D01*
%TO.C,JP12*%
X271450000Y-145095000D02*
X271450000Y-145695000D01*
X272100000Y-146395000D02*
X274900000Y-146395000D01*
X274900000Y-144395000D02*
X272100000Y-144395000D01*
X275550000Y-145695000D02*
X275550000Y-145095000D01*
X271450000Y-145095000D02*
G75*
G02*
X272150000Y-144395000I699999J1D01*
G01*
X272150000Y-146395000D02*
G75*
G02*
X271450000Y-145695000I-1J699999D01*
G01*
X274850000Y-144395000D02*
G75*
G02*
X275550000Y-145095000I0J-700000D01*
G01*
X275550000Y-145695000D02*
G75*
G02*
X274850000Y-146395000I-700000J0D01*
G01*
%TO.C,R112*%
X265064564Y-148265000D02*
X264610436Y-148265000D01*
X265064564Y-149735000D02*
X264610436Y-149735000D01*
%TO.C,R118*%
X282227064Y-148265000D02*
X281772936Y-148265000D01*
X282227064Y-149735000D02*
X281772936Y-149735000D01*
%TO.C,R85*%
X278272936Y-114265000D02*
X278727064Y-114265000D01*
X278272936Y-115735000D02*
X278727064Y-115735000D01*
%TO.C,C20*%
X118063748Y-53590000D02*
X119486252Y-53590000D01*
X118063748Y-55410000D02*
X119486252Y-55410000D01*
%TO.C,R56*%
X278272936Y-116805000D02*
X278727064Y-116805000D01*
X278272936Y-118275000D02*
X278727064Y-118275000D01*
%TO.C,R1*%
X187765000Y-15772936D02*
X187765000Y-16227064D01*
X189235000Y-15772936D02*
X189235000Y-16227064D01*
%TO.C,C24*%
X178063748Y-53590000D02*
X179486252Y-53590000D01*
X178063748Y-55410000D02*
X179486252Y-55410000D01*
%TO.C,R68*%
X202185436Y-30765000D02*
X202639564Y-30765000D01*
X202185436Y-32235000D02*
X202639564Y-32235000D01*
%TO.C,R90*%
X240772936Y-25765000D02*
X241227064Y-25765000D01*
X240772936Y-27235000D02*
X241227064Y-27235000D01*
%TO.C,R117*%
X282227064Y-151215000D02*
X281772936Y-151215000D01*
X282227064Y-152685000D02*
X281772936Y-152685000D01*
%TO.C,JP4*%
X254450000Y-152180000D02*
X254450000Y-152780000D01*
X255100000Y-153480000D02*
X257900000Y-153480000D01*
X257900000Y-151480000D02*
X255100000Y-151480000D01*
X258550000Y-152780000D02*
X258550000Y-152180000D01*
X254450000Y-152180000D02*
G75*
G02*
X255150000Y-151480000I699999J1D01*
G01*
X255150000Y-153480000D02*
G75*
G02*
X254450000Y-152780000I-1J699999D01*
G01*
X257850000Y-151480000D02*
G75*
G02*
X258550000Y-152180000I0J-700000D01*
G01*
X258550000Y-152780000D02*
G75*
G02*
X257850000Y-153480000I-700000J0D01*
G01*
%TO.C,R69*%
X278272936Y-111725000D02*
X278727064Y-111725000D01*
X278272936Y-113195000D02*
X278727064Y-113195000D01*
%TO.C,JP11*%
X271450000Y-148645000D02*
X271450000Y-149245000D01*
X272100000Y-149945000D02*
X274900000Y-149945000D01*
X274900000Y-147945000D02*
X272100000Y-147945000D01*
X275550000Y-149245000D02*
X275550000Y-148645000D01*
X271450000Y-148645000D02*
G75*
G02*
X272150000Y-147945000I699999J1D01*
G01*
X272150000Y-149945000D02*
G75*
G02*
X271450000Y-149245000I-1J699999D01*
G01*
X274850000Y-147945000D02*
G75*
G02*
X275550000Y-148645000I0J-700000D01*
G01*
X275550000Y-149245000D02*
G75*
G02*
X274850000Y-149945000I-700000J0D01*
G01*
%TO.C,C1*%
X177090000Y-18711252D02*
X177090000Y-17288748D01*
X178910000Y-18711252D02*
X178910000Y-17288748D01*
%TO.C,JP5*%
X254450000Y-148630000D02*
X254450000Y-149230000D01*
X255100000Y-149930000D02*
X257900000Y-149930000D01*
X257900000Y-147930000D02*
X255100000Y-147930000D01*
X258550000Y-149230000D02*
X258550000Y-148630000D01*
X254450000Y-148630000D02*
G75*
G02*
X255150000Y-147930000I699999J1D01*
G01*
X255150000Y-149930000D02*
G75*
G02*
X254450000Y-149230000I-1J699999D01*
G01*
X257850000Y-147930000D02*
G75*
G02*
X258550000Y-148630000I0J-700000D01*
G01*
X258550000Y-149230000D02*
G75*
G02*
X257850000Y-149930000I-700000J0D01*
G01*
%TO.C,R66*%
X202185436Y-25765000D02*
X202639564Y-25765000D01*
X202185436Y-27235000D02*
X202639564Y-27235000D01*
%TO.C,C22*%
X148063748Y-53590000D02*
X149486252Y-53590000D01*
X148063748Y-55410000D02*
X149486252Y-55410000D01*
%TO.C,JP6*%
X254450000Y-145080000D02*
X254450000Y-145680000D01*
X255100000Y-146380000D02*
X257900000Y-146380000D01*
X257900000Y-144380000D02*
X255100000Y-144380000D01*
X258550000Y-145680000D02*
X258550000Y-145080000D01*
X254450000Y-145080000D02*
G75*
G02*
X255150000Y-144380000I699999J1D01*
G01*
X255150000Y-146380000D02*
G75*
G02*
X254450000Y-145680000I-1J699999D01*
G01*
X257850000Y-144380000D02*
G75*
G02*
X258550000Y-145080000I0J-700000D01*
G01*
X258550000Y-145680000D02*
G75*
G02*
X257850000Y-146380000I-700000J0D01*
G01*
%TO.C,C27*%
X257211252Y-139520000D02*
X255788748Y-139520000D01*
X257211252Y-141340000D02*
X255788748Y-141340000D01*
%TO.C,R72*%
X278272936Y-104105000D02*
X278727064Y-104105000D01*
X278272936Y-105575000D02*
X278727064Y-105575000D01*
%TO.C,JP10*%
X271450000Y-152195000D02*
X271450000Y-152795000D01*
X272100000Y-153495000D02*
X274900000Y-153495000D01*
X274900000Y-151495000D02*
X272100000Y-151495000D01*
X275550000Y-152795000D02*
X275550000Y-152195000D01*
X271450000Y-152195000D02*
G75*
G02*
X272150000Y-151495000I699999J1D01*
G01*
X272150000Y-153495000D02*
G75*
G02*
X271450000Y-152795000I-1J699999D01*
G01*
X274850000Y-151495000D02*
G75*
G02*
X275550000Y-152195000I0J-700000D01*
G01*
X275550000Y-152795000D02*
G75*
G02*
X274850000Y-153495000I-700000J0D01*
G01*
%TO.C,C14*%
X28013748Y-53590000D02*
X29436252Y-53590000D01*
X28013748Y-55410000D02*
X29436252Y-55410000D01*
%TO.C,R55*%
X278272936Y-109185000D02*
X278727064Y-109185000D01*
X278272936Y-110655000D02*
X278727064Y-110655000D01*
%TO.C,C2*%
X177090000Y-22288748D02*
X177090000Y-23711252D01*
X178910000Y-22288748D02*
X178910000Y-23711252D01*
%TO.C,C18*%
X88063748Y-53090000D02*
X89486252Y-53090000D01*
X88063748Y-54910000D02*
X89486252Y-54910000D01*
%TO.C,R15*%
X279477064Y-15415000D02*
X279022936Y-15415000D01*
X279477064Y-16885000D02*
X279022936Y-16885000D01*
%TO.C,C29*%
X274211252Y-139535000D02*
X272788748Y-139535000D01*
X274211252Y-141355000D02*
X272788748Y-141355000D01*
%TO.C,R86*%
X278272936Y-121885000D02*
X278727064Y-121885000D01*
X278272936Y-123355000D02*
X278727064Y-123355000D01*
%TD*%
%LPC*%
%TO.C,JP12*%
G36*
X272750000Y-144645000D02*
G01*
X274250000Y-144645000D01*
X274250000Y-146145000D01*
X272750000Y-146145000D01*
X272750000Y-144645000D01*
G37*
%TO.C,JP4*%
G36*
X255750000Y-151730000D02*
G01*
X257250000Y-151730000D01*
X257250000Y-153230000D01*
X255750000Y-153230000D01*
X255750000Y-151730000D01*
G37*
%TO.C,JP11*%
G36*
X272750000Y-148195000D02*
G01*
X274250000Y-148195000D01*
X274250000Y-149695000D01*
X272750000Y-149695000D01*
X272750000Y-148195000D01*
G37*
%TO.C,JP5*%
G36*
X255750000Y-148180000D02*
G01*
X257250000Y-148180000D01*
X257250000Y-149680000D01*
X255750000Y-149680000D01*
X255750000Y-148180000D01*
G37*
%TO.C,JP6*%
G36*
X255750000Y-144630000D02*
G01*
X257250000Y-144630000D01*
X257250000Y-146130000D01*
X255750000Y-146130000D01*
X255750000Y-144630000D01*
G37*
%TO.C,JP10*%
G36*
X272750000Y-151745000D02*
G01*
X274250000Y-151745000D01*
X274250000Y-153245000D01*
X272750000Y-153245000D01*
X272750000Y-151745000D01*
G37*
%TD*%
D13*
%TO.C,R38*%
X90500000Y-51350000D03*
D14*
X87000000Y-51350000D03*
X90500000Y-124850000D03*
D15*
X93000000Y-56700000D03*
X93000000Y-119500000D03*
X84500000Y-55500000D03*
X84500000Y-120700000D03*
%TD*%
D13*
%TO.C,R32*%
X60500000Y-51350000D03*
D14*
X57000000Y-51350000D03*
X60500000Y-124850000D03*
D15*
X63000000Y-56700000D03*
X63000000Y-119500000D03*
X54500000Y-55500000D03*
X54500000Y-120700000D03*
%TD*%
D16*
%TO.C,SW2*%
X277000000Y-23550000D03*
X270500000Y-23550000D03*
X277000000Y-19050000D03*
X270500000Y-19050000D03*
%TD*%
%TO.C,SW38*%
X233925000Y-151650000D03*
X240425000Y-151650000D03*
X233925000Y-156150000D03*
X240425000Y-156150000D03*
%TD*%
D17*
%TO.C,SW13*%
X172500000Y-141000000D03*
X185000000Y-141000000D03*
X172500000Y-146000000D03*
X185000000Y-146000000D03*
%TD*%
%TO.C,SW15*%
X193750000Y-57500000D03*
X206250000Y-57500000D03*
X193750000Y-62500000D03*
X206250000Y-62500000D03*
%TD*%
D18*
%TO.C,REF\u002A\u002A*%
X132150000Y-155250000D03*
D19*
X132150000Y-155250000D03*
%TD*%
D18*
%TO.C,REF\u002A\u002A*%
X17500000Y-156500000D03*
D19*
X17500000Y-156500000D03*
%TD*%
D20*
%TO.C,J2*%
X124500000Y-18250000D03*
X118720000Y-18250000D03*
D21*
X125930000Y-18750000D03*
D22*
X125930000Y-14570000D03*
D21*
X117290000Y-18750000D03*
D22*
X117290000Y-14570000D03*
%TD*%
D23*
%TO.C,J3*%
X62500000Y-15000000D03*
X71500000Y-15000000D03*
X59500000Y-24500000D03*
X67000000Y-24500000D03*
X74500000Y-24500000D03*
X62000000Y-27000000D03*
X72000000Y-27000000D03*
%TD*%
D17*
%TO.C,SW7*%
X82500000Y-141000000D03*
X95000000Y-141000000D03*
X82500000Y-146000000D03*
X95000000Y-146000000D03*
%TD*%
%TO.C,SW30*%
X243750000Y-82500000D03*
X256250000Y-82500000D03*
X243750000Y-87500000D03*
X256250000Y-87500000D03*
%TD*%
D13*
%TO.C,R42*%
X120500000Y-51350000D03*
D14*
X117000000Y-51350000D03*
X120500000Y-124850000D03*
D15*
X123000000Y-56700000D03*
X123000000Y-119500000D03*
X114500000Y-55500000D03*
X114500000Y-120700000D03*
%TD*%
D16*
%TO.C,SW1*%
X277000000Y-32100000D03*
X270500000Y-32100000D03*
X277000000Y-27600000D03*
X270500000Y-27600000D03*
%TD*%
D24*
%TO.C,SW21*%
X201500000Y-29000000D03*
D25*
X206000000Y-29000000D03*
D26*
X198500000Y-26500000D03*
D16*
X198500000Y-31500000D03*
X198500000Y-29000000D03*
D27*
X206000000Y-23400000D03*
X206000000Y-34600000D03*
D16*
X213000000Y-31500000D03*
X213000000Y-26500000D03*
%TD*%
D17*
%TO.C,SW17*%
X193750000Y-107500000D03*
X206250000Y-107500000D03*
X193750000Y-112500000D03*
X206250000Y-112500000D03*
%TD*%
%TO.C,SW9*%
X112500000Y-141000000D03*
X125000000Y-141000000D03*
X112500000Y-146000000D03*
X125000000Y-146000000D03*
%TD*%
D24*
%TO.C,SW35*%
X240000000Y-29000000D03*
D25*
X244500000Y-29000000D03*
D26*
X237000000Y-26500000D03*
D16*
X237000000Y-31500000D03*
X237000000Y-29000000D03*
D27*
X244500000Y-23400000D03*
X244500000Y-34600000D03*
D16*
X251500000Y-31500000D03*
X251500000Y-26500000D03*
%TD*%
D17*
%TO.C,SW5*%
X52500000Y-141000000D03*
X65000000Y-141000000D03*
X52500000Y-146000000D03*
X65000000Y-146000000D03*
%TD*%
%TO.C,SW24*%
X218750000Y-107500000D03*
X231250000Y-107500000D03*
X218750000Y-112500000D03*
X231250000Y-112500000D03*
%TD*%
D28*
%TO.C,J8*%
X282500000Y-102300000D03*
D29*
X282500000Y-104840000D03*
X282500000Y-107380000D03*
X282500000Y-109920000D03*
X282500000Y-112460000D03*
X282500000Y-115000000D03*
X282500000Y-117540000D03*
X282500000Y-120080000D03*
X282500000Y-122620000D03*
X282500000Y-125160000D03*
%TD*%
D17*
%TO.C,SW3*%
X22500000Y-141000000D03*
X35000000Y-141000000D03*
X22500000Y-146000000D03*
X35000000Y-146000000D03*
%TD*%
D13*
%TO.C,R22*%
X30500000Y-51350000D03*
D14*
X27000000Y-51350000D03*
X30500000Y-124850000D03*
D15*
X33000000Y-56700000D03*
X33000000Y-119500000D03*
X24500000Y-55500000D03*
X24500000Y-120700000D03*
%TD*%
D28*
%TO.C,J6*%
X50450000Y-34450000D03*
D29*
X47910000Y-34450000D03*
X45370000Y-34450000D03*
X42830000Y-34450000D03*
X40290000Y-34450000D03*
X37750000Y-34450000D03*
X35210000Y-34450000D03*
X32670000Y-34450000D03*
X30130000Y-34450000D03*
X27590000Y-34450000D03*
X25050000Y-34450000D03*
X22510000Y-34450000D03*
X19970000Y-34450000D03*
X17430000Y-34450000D03*
%TD*%
D17*
%TO.C,SW31*%
X243750000Y-107500000D03*
X256250000Y-107500000D03*
X243750000Y-112500000D03*
X256250000Y-112500000D03*
%TD*%
D18*
%TO.C,REF\u002A\u002A*%
X222950000Y-155100000D03*
D19*
X222950000Y-155100000D03*
%TD*%
D17*
%TO.C,SW23*%
X218750000Y-82500000D03*
X231250000Y-82500000D03*
X218750000Y-87500000D03*
X231250000Y-87500000D03*
%TD*%
D18*
%TO.C,REF\u002A\u002A*%
X264700000Y-17250000D03*
D19*
X264700000Y-17250000D03*
%TD*%
D20*
%TO.C,J1*%
X191780000Y-18243749D03*
X186000000Y-18243749D03*
D21*
X193210000Y-18743749D03*
D22*
X193210000Y-14563749D03*
D21*
X184570000Y-18743749D03*
D22*
X184570000Y-14563749D03*
%TD*%
D28*
%TO.C,J10*%
X283000000Y-13900000D03*
D29*
X283000000Y-16440000D03*
X283000000Y-18980000D03*
X283000000Y-21520000D03*
X283000000Y-24060000D03*
X283000000Y-26600000D03*
X283000000Y-29140000D03*
X283000000Y-31680000D03*
X283000000Y-34220000D03*
X283000000Y-36760000D03*
X283000000Y-39300000D03*
X283000000Y-41840000D03*
X283000000Y-44380000D03*
X283000000Y-46920000D03*
X283000000Y-49460000D03*
X283000000Y-52000000D03*
X283000000Y-54540000D03*
X283000000Y-57080000D03*
X283000000Y-59620000D03*
X283000000Y-62160000D03*
X283000000Y-64700000D03*
X283000000Y-67240000D03*
X283000000Y-69780000D03*
X283000000Y-72320000D03*
%TD*%
D17*
%TO.C,SW29*%
X243750000Y-57500000D03*
X256250000Y-57500000D03*
X243750000Y-62500000D03*
X256250000Y-62500000D03*
%TD*%
D23*
%TO.C,J4*%
X85500000Y-15000000D03*
X94500000Y-15000000D03*
X82500000Y-24500000D03*
X90000000Y-24500000D03*
X97500000Y-24500000D03*
X85000000Y-27000000D03*
X95000000Y-27000000D03*
%TD*%
D17*
%TO.C,SW11*%
X142500000Y-141000000D03*
X155000000Y-141000000D03*
X142500000Y-146000000D03*
X155000000Y-146000000D03*
%TD*%
D28*
%TO.C,J5*%
X283000000Y-80000000D03*
D29*
X283000000Y-82540000D03*
X283000000Y-85080000D03*
%TD*%
D17*
%TO.C,SW16*%
X193750000Y-82500000D03*
X206250000Y-82500000D03*
X193750000Y-87500000D03*
X206250000Y-87500000D03*
%TD*%
D13*
%TO.C,R50*%
X180500000Y-51350000D03*
D14*
X177000000Y-51350000D03*
X180500000Y-124850000D03*
D15*
X183000000Y-56700000D03*
X183000000Y-119500000D03*
X174500000Y-55500000D03*
X174500000Y-120700000D03*
%TD*%
D13*
%TO.C,R46*%
X150500000Y-51350000D03*
D14*
X147000000Y-51350000D03*
X150500000Y-124850000D03*
D15*
X153000000Y-56700000D03*
X153000000Y-119500000D03*
X144500000Y-55500000D03*
X144500000Y-120700000D03*
%TD*%
D17*
%TO.C,SW25*%
X218750000Y-57500000D03*
X231250000Y-57500000D03*
X218750000Y-62500000D03*
X231250000Y-62500000D03*
%TD*%
D18*
%TO.C,REF\u002A\u002A*%
X105800000Y-21950000D03*
D19*
X105800000Y-21950000D03*
%TD*%
D18*
%TO.C,REF\u002A\u002A*%
X17800000Y-26550000D03*
D19*
X17800000Y-26550000D03*
%TD*%
D30*
%TO.C,R70*%
X277587500Y-120080000D03*
X279412500Y-120080000D03*
%TD*%
%TO.C,R54*%
X277587500Y-102300000D03*
X279412500Y-102300000D03*
%TD*%
D31*
%TO.C,C3*%
X270425000Y-15800000D03*
X273375000Y-15800000D03*
%TD*%
D30*
%TO.C,R84*%
X277587500Y-107380000D03*
X279412500Y-107380000D03*
%TD*%
D32*
%TO.C,C15*%
X147850000Y-19200000D03*
X147850000Y-16250000D03*
%TD*%
D33*
%TO.C,R111*%
X265750000Y-151950000D03*
X263925000Y-151950000D03*
%TD*%
%TO.C,R119*%
X282912500Y-146050000D03*
X281087500Y-146050000D03*
%TD*%
D31*
%TO.C,C16*%
X57275000Y-54500000D03*
X60225000Y-54500000D03*
%TD*%
D30*
%TO.C,R98*%
X240087500Y-31500000D03*
X241912500Y-31500000D03*
%TD*%
D33*
%TO.C,R76*%
X210500000Y-26500000D03*
X208675000Y-26500000D03*
%TD*%
%TO.C,R113*%
X265750000Y-146050000D03*
X263925000Y-146050000D03*
%TD*%
%TO.C,R100*%
X249000000Y-26500000D03*
X247175000Y-26500000D03*
%TD*%
D34*
%TO.C,JP12*%
X272200000Y-145395000D03*
D35*
X273500000Y-145395000D03*
D36*
X274800000Y-145395000D03*
%TD*%
D33*
%TO.C,R112*%
X265750000Y-149000000D03*
X263925000Y-149000000D03*
%TD*%
%TO.C,R118*%
X282912500Y-149000000D03*
X281087500Y-149000000D03*
%TD*%
D30*
%TO.C,R85*%
X277587500Y-115000000D03*
X279412500Y-115000000D03*
%TD*%
D31*
%TO.C,C20*%
X117300000Y-54500000D03*
X120250000Y-54500000D03*
%TD*%
D30*
%TO.C,R56*%
X277587500Y-117540000D03*
X279412500Y-117540000D03*
%TD*%
D37*
%TO.C,R1*%
X188500000Y-15087500D03*
X188500000Y-16912500D03*
%TD*%
D31*
%TO.C,C24*%
X177300000Y-54500000D03*
X180250000Y-54500000D03*
%TD*%
D30*
%TO.C,R68*%
X201500000Y-31500000D03*
X203325000Y-31500000D03*
%TD*%
%TO.C,R90*%
X240087500Y-26500000D03*
X241912500Y-26500000D03*
%TD*%
D33*
%TO.C,R117*%
X282912500Y-151950000D03*
X281087500Y-151950000D03*
%TD*%
D34*
%TO.C,JP4*%
X255200000Y-152480000D03*
D35*
X256500000Y-152480000D03*
D36*
X257800000Y-152480000D03*
%TD*%
D30*
%TO.C,R69*%
X277587500Y-112460000D03*
X279412500Y-112460000D03*
%TD*%
D34*
%TO.C,JP11*%
X272200000Y-148945000D03*
D35*
X273500000Y-148945000D03*
D36*
X274800000Y-148945000D03*
%TD*%
D32*
%TO.C,C1*%
X178000000Y-19475000D03*
X178000000Y-16525000D03*
%TD*%
D34*
%TO.C,JP5*%
X255200000Y-148930000D03*
D35*
X256500000Y-148930000D03*
D36*
X257800000Y-148930000D03*
%TD*%
D30*
%TO.C,R66*%
X201500000Y-26500000D03*
X203325000Y-26500000D03*
%TD*%
D31*
%TO.C,C22*%
X147300000Y-54500000D03*
X150250000Y-54500000D03*
%TD*%
D34*
%TO.C,JP6*%
X255200000Y-145380000D03*
D35*
X256500000Y-145380000D03*
D36*
X257800000Y-145380000D03*
%TD*%
D38*
%TO.C,C27*%
X257975000Y-140430000D03*
X255025000Y-140430000D03*
%TD*%
D30*
%TO.C,R72*%
X277587500Y-104840000D03*
X279412500Y-104840000D03*
%TD*%
D34*
%TO.C,JP10*%
X272200000Y-152495000D03*
D35*
X273500000Y-152495000D03*
D36*
X274800000Y-152495000D03*
%TD*%
D31*
%TO.C,C14*%
X27250000Y-54500000D03*
X30200000Y-54500000D03*
%TD*%
D30*
%TO.C,R55*%
X277587500Y-109920000D03*
X279412500Y-109920000D03*
%TD*%
D39*
%TO.C,C2*%
X178000000Y-21525000D03*
X178000000Y-24475000D03*
%TD*%
D31*
%TO.C,C18*%
X87300000Y-54000000D03*
X90250000Y-54000000D03*
%TD*%
D33*
%TO.C,R15*%
X280162500Y-16150000D03*
X278337500Y-16150000D03*
%TD*%
D38*
%TO.C,C29*%
X274975000Y-140445000D03*
X272025000Y-140445000D03*
%TD*%
D30*
%TO.C,R86*%
X277587500Y-122620000D03*
X279412500Y-122620000D03*
%TD*%
%LPD*%
M02*
