%TF.GenerationSoftware,KiCad,Pcbnew,10.0.2*%
%TF.CreationDate,2026-05-18T16:25:58+02:00*%
%TF.ProjectId,MiDi_Controller_Rev_1,4d694469-5f43-46f6-9e74-726f6c6c6572,1*%
%TF.SameCoordinates,Original*%
%TF.FileFunction,Paste,Top*%
%TF.FilePolarity,Positive*%
%FSLAX46Y46*%
G04 Gerber Fmt 4.6, Leading zero omitted, Abs format (unit mm)*
G04 Created by KiCad (PCBNEW 10.0.2) date 2026-05-18 16:25:58*
%MOMM*%
%LPD*%
G01*
G04 APERTURE LIST*
G04 Aperture macros list*
%AMRoundRect*
0 Rectangle with rounded corners*
0 $1 Rounding radius*
0 $2 $3 $4 $5 $6 $7 $8 $9 X,Y pos of 4 corners*
0 Add a 4 corners polygon primitive as box body*
4,1,4,$2,$3,$4,$5,$6,$7,$8,$9,$2,$3,0*
0 Add four circle primitives for the rounded corners*
1,1,$1+$1,$2,$3*
1,1,$1+$1,$4,$5*
1,1,$1+$1,$6,$7*
1,1,$1+$1,$8,$9*
0 Add four rect primitives between the rounded corners*
20,1,$1+$1,$2,$3,$4,$5,0*
20,1,$1+$1,$4,$5,$6,$7,0*
20,1,$1+$1,$6,$7,$8,$9,0*
20,1,$1+$1,$8,$9,$2,$3,0*%
G04 Aperture macros list end*
%ADD10RoundRect,0.250000X0.262500X0.450000X-0.262500X0.450000X-0.262500X-0.450000X0.262500X-0.450000X0*%
%ADD11RoundRect,0.375000X-0.625000X-0.375000X0.625000X-0.375000X0.625000X0.375000X-0.625000X0.375000X0*%
%ADD12RoundRect,0.500000X-0.500000X-1.400000X0.500000X-1.400000X0.500000X1.400000X-0.500000X1.400000X0*%
%ADD13RoundRect,0.150000X0.150000X-0.587500X0.150000X0.587500X-0.150000X0.587500X-0.150000X-0.587500X0*%
%ADD14R,1.320800X1.346200*%
%ADD15RoundRect,0.243750X0.243750X0.456250X-0.243750X0.456250X-0.243750X-0.456250X0.243750X-0.456250X0*%
%ADD16RoundRect,0.243750X-0.456250X0.243750X-0.456250X-0.243750X0.456250X-0.243750X0.456250X0.243750X0*%
%ADD17RoundRect,0.250000X-0.450000X0.262500X-0.450000X-0.262500X0.450000X-0.262500X0.450000X0.262500X0*%
%ADD18RoundRect,0.243750X-0.243750X-0.456250X0.243750X-0.456250X0.243750X0.456250X-0.243750X0.456250X0*%
%ADD19RoundRect,0.150000X0.150000X0.425000X-0.150000X0.425000X-0.150000X-0.425000X0.150000X-0.425000X0*%
%ADD20RoundRect,0.075000X0.075000X0.500000X-0.075000X0.500000X-0.075000X-0.500000X0.075000X-0.500000X0*%
%ADD21O,1.000000X2.100000*%
%ADD22O,1.000000X1.800000*%
%ADD23RoundRect,0.250000X0.450000X-0.262500X0.450000X0.262500X-0.450000X0.262500X-0.450000X-0.262500X0*%
%ADD24RoundRect,0.250000X-0.262500X-0.450000X0.262500X-0.450000X0.262500X0.450000X-0.262500X0.450000X0*%
%ADD25RoundRect,0.250000X-0.945000X0.420000X-0.945000X-0.420000X0.945000X-0.420000X0.945000X0.420000X0*%
%ADD26RoundRect,0.250000X0.420000X0.945000X-0.420000X0.945000X-0.420000X-0.945000X0.420000X-0.945000X0*%
%ADD27RoundRect,0.150000X-0.875000X-0.150000X0.875000X-0.150000X0.875000X0.150000X-0.875000X0.150000X0*%
%ADD28RoundRect,0.150000X0.587500X0.150000X-0.587500X0.150000X-0.587500X-0.150000X0.587500X-0.150000X0*%
%ADD29RoundRect,0.250000X-0.325000X-0.650000X0.325000X-0.650000X0.325000X0.650000X-0.325000X0.650000X0*%
%ADD30RoundRect,0.250000X-0.420000X-0.945000X0.420000X-0.945000X0.420000X0.945000X-0.420000X0.945000X0*%
%ADD31RoundRect,0.250000X0.945000X-0.420000X0.945000X0.420000X-0.945000X0.420000X-0.945000X-0.420000X0*%
%ADD32RoundRect,0.250000X0.650000X-0.325000X0.650000X0.325000X-0.650000X0.325000X-0.650000X-0.325000X0*%
%ADD33RoundRect,0.150000X-0.825000X-0.150000X0.825000X-0.150000X0.825000X0.150000X-0.825000X0.150000X0*%
%ADD34R,0.900000X0.900000*%
%ADD35R,1.500000X0.900000*%
%ADD36R,0.900000X1.500000*%
%ADD37RoundRect,0.250000X-0.650000X0.325000X-0.650000X-0.325000X0.650000X-0.325000X0.650000X0.325000X0*%
G04 APERTURE END LIST*
D10*
%TO.C,R93*%
X244412500Y-74250000D03*
X242587500Y-74250000D03*
%TD*%
D11*
%TO.C,U5*%
X269700000Y-68700000D03*
X269700000Y-71000000D03*
D12*
X276000000Y-71000000D03*
D11*
X269700000Y-73300000D03*
%TD*%
D13*
%TO.C,Q18*%
X270350000Y-116000000D03*
X272250000Y-116000000D03*
X271300000Y-114125000D03*
%TD*%
D14*
%TO.C,U3*%
X63484600Y-36150000D03*
X63484600Y-38690000D03*
X63484600Y-41230000D03*
X73175000Y-41230000D03*
X73175000Y-38690000D03*
X73175000Y-36150000D03*
%TD*%
D15*
%TO.C,D32*%
X250937500Y-99250000D03*
X249062500Y-99250000D03*
%TD*%
D16*
%TO.C,D3*%
X18450000Y-13962500D03*
X18450000Y-15837500D03*
%TD*%
D10*
%TO.C,R62*%
X194500000Y-99201389D03*
X192675000Y-99201389D03*
%TD*%
%TO.C,R80*%
X219912500Y-49250000D03*
X218087500Y-49250000D03*
%TD*%
D17*
%TO.C,R6*%
X130000000Y-17237500D03*
X130000000Y-19062500D03*
%TD*%
%TO.C,R3*%
X183500000Y-21587500D03*
X183500000Y-23412500D03*
%TD*%
D13*
%TO.C,Q3*%
X35500000Y-24150000D03*
X37400000Y-24150000D03*
X36450000Y-22275000D03*
%TD*%
D18*
%TO.C,D10*%
X87750000Y-133750000D03*
X89625000Y-133750000D03*
%TD*%
D16*
%TO.C,D5*%
X15330000Y-13900000D03*
X15330000Y-15775000D03*
%TD*%
D19*
%TO.C,J2*%
X124810000Y-19325000D03*
X124010000Y-19325000D03*
D20*
X122860000Y-19325000D03*
X121860000Y-19325000D03*
X121360000Y-19325000D03*
X120360000Y-19325000D03*
D19*
X119210000Y-19325000D03*
X118410000Y-19325000D03*
X118410000Y-19325000D03*
X119210000Y-19325000D03*
D20*
X119860000Y-19325000D03*
X120860000Y-19325000D03*
X122360000Y-19325000D03*
X123360000Y-19325000D03*
D19*
X124010000Y-19325000D03*
X124810000Y-19325000D03*
D21*
X125930000Y-18750000D03*
D22*
X125930000Y-14570000D03*
D21*
X117290000Y-18750000D03*
D22*
X117290000Y-14570000D03*
%TD*%
D23*
%TO.C,R13*%
X18570000Y-20612500D03*
X18570000Y-18787500D03*
%TD*%
D18*
%TO.C,D8*%
X57812500Y-133750000D03*
X59687500Y-133750000D03*
%TD*%
D24*
%TO.C,R19*%
X102687500Y-31400000D03*
X104512500Y-31400000D03*
%TD*%
D10*
%TO.C,R5*%
X172412500Y-19000000D03*
X170587500Y-19000000D03*
%TD*%
D24*
%TO.C,R36*%
X67087500Y-133750000D03*
X68912500Y-133750000D03*
%TD*%
%TO.C,R30*%
X40437500Y-24200000D03*
X42262500Y-24200000D03*
%TD*%
%TO.C,R40*%
X97087500Y-133750000D03*
X98912500Y-133750000D03*
%TD*%
D17*
%TO.C,R18*%
X85050000Y-36300000D03*
X85050000Y-38125000D03*
%TD*%
D25*
%TO.C,C13*%
X279000000Y-80960000D03*
X279000000Y-84040000D03*
%TD*%
D10*
%TO.C,R103*%
X245412500Y-152000000D03*
X243587500Y-152000000D03*
%TD*%
D26*
%TO.C,C19*%
X190040000Y-26500000D03*
X186960000Y-26500000D03*
%TD*%
D13*
%TO.C,Q5*%
X277400000Y-102437500D03*
X279300000Y-102437500D03*
X278350000Y-100562500D03*
%TD*%
D27*
%TO.C,U7*%
X251850000Y-138190000D03*
X251850000Y-139460000D03*
X251850000Y-140730000D03*
X251850000Y-142000000D03*
X251850000Y-143270000D03*
X251850000Y-144540000D03*
X251850000Y-145810000D03*
X251850000Y-147080000D03*
X251850000Y-148350000D03*
X251850000Y-149620000D03*
X251850000Y-150890000D03*
X251850000Y-152160000D03*
X251850000Y-153430000D03*
X251850000Y-154700000D03*
X261150000Y-154700000D03*
X261150000Y-153430000D03*
X261150000Y-152160000D03*
X261150000Y-150890000D03*
X261150000Y-149620000D03*
X261150000Y-148350000D03*
X261150000Y-147080000D03*
X261150000Y-145810000D03*
X261150000Y-144540000D03*
X261150000Y-143270000D03*
X261150000Y-142000000D03*
X261150000Y-140730000D03*
X261150000Y-139460000D03*
X261150000Y-138190000D03*
%TD*%
D18*
%TO.C,D16*%
X177875000Y-133750000D03*
X179750000Y-133750000D03*
%TD*%
D27*
%TO.C,U9*%
X269000000Y-138190000D03*
X269000000Y-139460000D03*
X269000000Y-140730000D03*
X269000000Y-142000000D03*
X269000000Y-143270000D03*
X269000000Y-144540000D03*
X269000000Y-145810000D03*
X269000000Y-147080000D03*
X269000000Y-148350000D03*
X269000000Y-149620000D03*
X269000000Y-150890000D03*
X269000000Y-152160000D03*
X269000000Y-153430000D03*
X269000000Y-154700000D03*
X278300000Y-154700000D03*
X278300000Y-153430000D03*
X278300000Y-152160000D03*
X278300000Y-150890000D03*
X278300000Y-149620000D03*
X278300000Y-148350000D03*
X278300000Y-147080000D03*
X278300000Y-145810000D03*
X278300000Y-144540000D03*
X278300000Y-143270000D03*
X278300000Y-142000000D03*
X278300000Y-140730000D03*
X278300000Y-139460000D03*
X278300000Y-138190000D03*
%TD*%
D15*
%TO.C,D18*%
X200937500Y-49250000D03*
X199062500Y-49250000D03*
%TD*%
D10*
%TO.C,R94*%
X244912500Y-99201389D03*
X243087500Y-99201389D03*
%TD*%
D28*
%TO.C,Q2*%
X168500000Y-20900000D03*
X168500000Y-19000000D03*
X166625000Y-19950000D03*
%TD*%
D10*
%TO.C,R78*%
X219912500Y-74250000D03*
X218087500Y-74250000D03*
%TD*%
D13*
%TO.C,Q6*%
X277400000Y-109937500D03*
X279300000Y-109937500D03*
X278350000Y-108062500D03*
%TD*%
%TO.C,Q13*%
X274000000Y-105500000D03*
X275900000Y-105500000D03*
X274950000Y-103625000D03*
%TD*%
D24*
%TO.C,R7*%
X159175000Y-40500000D03*
X161000000Y-40500000D03*
%TD*%
%TO.C,R8*%
X159175000Y-45000000D03*
X161000000Y-45000000D03*
%TD*%
D23*
%TO.C,R17*%
X77650000Y-40862500D03*
X77650000Y-39037500D03*
%TD*%
D16*
%TO.C,D1*%
X24840000Y-13862500D03*
X24840000Y-15737500D03*
%TD*%
D18*
%TO.C,D14*%
X147875000Y-133750000D03*
X149750000Y-133750000D03*
%TD*%
D15*
%TO.C,D20*%
X200937500Y-99250000D03*
X199062500Y-99250000D03*
%TD*%
D24*
%TO.C,R9*%
X132912500Y-20075000D03*
X134737500Y-20075000D03*
%TD*%
D15*
%TO.C,D19*%
X200937500Y-74250000D03*
X199062500Y-74250000D03*
%TD*%
D17*
%TO.C,R16*%
X56700000Y-36437500D03*
X56700000Y-38262500D03*
%TD*%
D24*
%TO.C,R44*%
X127087500Y-133750000D03*
X128912500Y-133750000D03*
%TD*%
D29*
%TO.C,C11*%
X212575000Y-19100000D03*
X215525000Y-19100000D03*
%TD*%
D23*
%TO.C,R14*%
X15450000Y-20612500D03*
X15450000Y-18787500D03*
%TD*%
D16*
%TO.C,D4*%
X60425000Y-36487500D03*
X60425000Y-38362500D03*
%TD*%
D30*
%TO.C,C4*%
X212660000Y-15500000D03*
X215740000Y-15500000D03*
%TD*%
D10*
%TO.C,R79*%
X219412500Y-99201389D03*
X217587500Y-99201389D03*
%TD*%
D15*
%TO.C,D24*%
X225937500Y-74250000D03*
X224062500Y-74250000D03*
%TD*%
D31*
%TO.C,C10*%
X269650000Y-64740000D03*
X269650000Y-61660000D03*
%TD*%
D23*
%TO.C,R12*%
X21690000Y-20612500D03*
X21690000Y-18787500D03*
%TD*%
D18*
%TO.C,D12*%
X117875000Y-133750000D03*
X119750000Y-133750000D03*
%TD*%
D10*
%TO.C,R92*%
X244912500Y-49250000D03*
X243087500Y-49250000D03*
%TD*%
D24*
%TO.C,R52*%
X187175000Y-133750000D03*
X189000000Y-133750000D03*
%TD*%
D16*
%TO.C,D2*%
X21570000Y-13962500D03*
X21570000Y-15837500D03*
%TD*%
D32*
%TO.C,C6*%
X198200000Y-18975000D03*
X198200000Y-16025000D03*
%TD*%
D13*
%TO.C,Q12*%
X274000000Y-120500000D03*
X275900000Y-120500000D03*
X274950000Y-118625000D03*
%TD*%
D24*
%TO.C,R28*%
X37087500Y-133750000D03*
X38912500Y-133750000D03*
%TD*%
D33*
%TO.C,U1*%
X175500000Y-15960000D03*
X175500000Y-17230000D03*
X175500000Y-18500000D03*
X175500000Y-19770000D03*
X175500000Y-21040000D03*
X175500000Y-22310000D03*
X175500000Y-23580000D03*
X175500000Y-24850000D03*
X180450000Y-24850000D03*
X180450000Y-23580000D03*
X180450000Y-22310000D03*
X180450000Y-21040000D03*
X180450000Y-19770000D03*
X180450000Y-18500000D03*
X180450000Y-17230000D03*
X180450000Y-15960000D03*
%TD*%
D18*
%TO.C,D6*%
X27812500Y-133750000D03*
X29687500Y-133750000D03*
%TD*%
D19*
%TO.C,J1*%
X192090000Y-19318749D03*
X191290000Y-19318749D03*
D20*
X190140000Y-19318749D03*
X189140000Y-19318749D03*
X188640000Y-19318749D03*
X187640000Y-19318749D03*
D19*
X186490000Y-19318749D03*
X185690000Y-19318749D03*
X185690000Y-19318749D03*
X186490000Y-19318749D03*
D20*
X187140000Y-19318749D03*
X188140000Y-19318749D03*
X189640000Y-19318749D03*
X190640000Y-19318749D03*
D19*
X191290000Y-19318749D03*
X192090000Y-19318749D03*
D21*
X193210000Y-18743749D03*
D22*
X193210000Y-14563749D03*
D21*
X184570000Y-18743749D03*
D22*
X184570000Y-14563749D03*
%TD*%
D24*
%TO.C,R33*%
X30637500Y-24100000D03*
X32462500Y-24100000D03*
%TD*%
D13*
%TO.C,Q19*%
X270550000Y-123437500D03*
X272450000Y-123437500D03*
X271500000Y-121562500D03*
%TD*%
D34*
%TO.C,U2*%
X149850000Y-22470000D03*
X149850000Y-23870000D03*
X149850000Y-25270000D03*
X151250000Y-22470000D03*
X151250000Y-23870000D03*
X151250000Y-25270000D03*
X152650000Y-22470000D03*
X152650000Y-23870000D03*
X152650000Y-25270000D03*
D35*
X144000000Y-16150000D03*
X144000000Y-17420000D03*
X144000000Y-18690000D03*
X144000000Y-19960000D03*
X144000000Y-21230000D03*
X144000000Y-22500000D03*
X144000000Y-23770000D03*
X144000000Y-25040000D03*
X144000000Y-26310000D03*
X144000000Y-27580000D03*
X144000000Y-28850000D03*
X144000000Y-30120000D03*
X144000000Y-31390000D03*
X144000000Y-32660000D03*
D36*
X145765000Y-33910000D03*
X147035000Y-33910000D03*
X148305000Y-33910000D03*
X149575000Y-33910000D03*
X150845000Y-33910000D03*
X152115000Y-33910000D03*
X153385000Y-33910000D03*
X154655000Y-33910000D03*
X155925000Y-33910000D03*
X157195000Y-33910000D03*
X158465000Y-33910000D03*
X159735000Y-33910000D03*
D35*
X161500000Y-32660000D03*
X161500000Y-31390000D03*
X161500000Y-30120000D03*
X161500000Y-28850000D03*
X161500000Y-27580000D03*
X161500000Y-26310000D03*
X161500000Y-25040000D03*
X161500000Y-23770000D03*
X161500000Y-22500000D03*
X161500000Y-21230000D03*
X161500000Y-19960000D03*
X161500000Y-18690000D03*
X161500000Y-17420000D03*
X161500000Y-16150000D03*
%TD*%
D17*
%TO.C,R2*%
X192000000Y-22087500D03*
X192000000Y-23912500D03*
%TD*%
D23*
%TO.C,R20*%
X24100000Y-30262500D03*
X24100000Y-28437500D03*
%TD*%
D28*
%TO.C,Q1*%
X168437500Y-24950000D03*
X168437500Y-23050000D03*
X166562500Y-24000000D03*
%TD*%
D23*
%TO.C,R11*%
X24810000Y-20612500D03*
X24810000Y-18787500D03*
%TD*%
D32*
%TO.C,C12*%
X274800000Y-64525000D03*
X274800000Y-61575000D03*
%TD*%
D23*
%TO.C,R25*%
X27600000Y-30212500D03*
X27600000Y-28387500D03*
%TD*%
D30*
%TO.C,C17*%
X111960000Y-24000000D03*
X115040000Y-24000000D03*
%TD*%
D15*
%TO.C,D31*%
X250937500Y-74250000D03*
X249062500Y-74250000D03*
%TD*%
D13*
%TO.C,Q11*%
X274000000Y-113000000D03*
X275900000Y-113000000D03*
X274950000Y-111125000D03*
%TD*%
D15*
%TO.C,D30*%
X250937500Y-49250000D03*
X249062500Y-49250000D03*
%TD*%
D10*
%TO.C,R60*%
X194912500Y-49250000D03*
X193087500Y-49250000D03*
%TD*%
D11*
%TO.C,U4*%
X203000000Y-14500000D03*
X203000000Y-16800000D03*
D12*
X209300000Y-16800000D03*
D11*
X203000000Y-19100000D03*
%TD*%
D15*
%TO.C,D25*%
X225937500Y-99250000D03*
X224062500Y-99250000D03*
%TD*%
D17*
%TO.C,R10*%
X119850000Y-22425000D03*
X119850000Y-24250000D03*
%TD*%
D10*
%TO.C,R61*%
X194500000Y-74250000D03*
X192675000Y-74250000D03*
%TD*%
D24*
%TO.C,R48*%
X157175000Y-133750000D03*
X159000000Y-133750000D03*
%TD*%
D10*
%TO.C,R4*%
X172412500Y-22500000D03*
X170587500Y-22500000D03*
%TD*%
D17*
%TO.C,R24*%
X42650000Y-28175000D03*
X42650000Y-30000000D03*
%TD*%
D37*
%TO.C,C7*%
X272500000Y-76175000D03*
X272500000Y-79125000D03*
%TD*%
D15*
%TO.C,D26*%
X225937500Y-49250000D03*
X224062500Y-49250000D03*
%TD*%
D13*
%TO.C,Q17*%
X270450000Y-108500000D03*
X272350000Y-108500000D03*
X271400000Y-106625000D03*
%TD*%
%TO.C,Q7*%
X277350000Y-117500000D03*
X279250000Y-117500000D03*
X278300000Y-115625000D03*
%TD*%
M02*
