M48
; DRILL file KiCad 10.0.2 date 2026-05-18T16:25:44
; FORMAT={-:-/ absolute / metric / decimal}
; #@! TF.CreationDate,2026-05-18T16:25:44+02:00
; #@! TF.GenerationSoftware,Kicad,Pcbnew,10.0.2
; #@! TF.FileFunction,Plated,1,2,PTH
FMAT,2
METRIC
; #@! TA.AperFunction,Plated,PTH,ViaDrill
T1C0.300
; #@! TA.AperFunction,Plated,PTH,ComponentDrill
T2C0.300
; #@! TA.AperFunction,Plated,PTH,ComponentDrill
T3C0.600
; #@! TA.AperFunction,Plated,PTH,ComponentDrill
T4C1.000
; #@! TA.AperFunction,Plated,PTH,ComponentDrill
T5C1.100
; #@! TA.AperFunction,Plated,PTH,ComponentDrill
T6C1.200
; #@! TA.AperFunction,Plated,PTH,ComponentDrill
T7C1.300
; #@! TA.AperFunction,Plated,PTH,ComponentDrill
T8C1.500
; #@! TA.AperFunction,Plated,PTH,ComponentDrill
T9C1.700
; #@! TA.AperFunction,Plated,PTH,ComponentDrill
T10C1.800
; #@! TA.AperFunction,Plated,PTH,ComponentDrill
T11C3.200
%
G90
G05
T1
X12.95Y-19.3
X13.75Y-42.0
X13.9Y-25.4
X14.11Y-150.06
X16.4Y-17.3
X16.5Y-85.5
X16.8Y-13.5
X16.8Y-14.7
X17.25Y-47.5
X18.1Y-103.8
X18.5Y-44.0
X19.7Y-22.7
X19.8Y-127.2
X20.0Y-31.75
X20.5Y-31.0
X20.7Y-94.3
X21.0Y-131.7
X21.0Y-158.4
X21.75Y-47.5
X22.0Y-36.75
X23.0Y-36.5
X23.0Y-37.5
X24.4Y-32.05
X25.65Y-31.6
X25.9Y-27.05
X26.0Y-146.0
X26.0Y-147.5
X26.5Y-17.2
X26.5Y-18.0
X27.4Y-25.188
X27.5Y-146.0
X27.7Y-13.4
X27.75Y-147.75
X27.8Y-16.3
X28.3Y-25.188
X29.0Y-81.1
X29.1Y-25.3
X29.3Y-13.6
X29.8Y-102.9
X30.5Y-21.25
X30.55Y-28.4
X30.6Y-144.3
X30.7Y-30.75
X30.7Y-44.4
X31.6Y-143.2
X32.0Y-20.5
X32.15Y-28.45
X32.6Y-142.3
X33.5Y-37.5
X33.75Y-25.0
X34.25Y-21.5
X34.5Y-20.0
X34.5Y-25.0
X34.8Y-48.3
X34.9Y-13.6
X35.25Y-39.25
X36.0Y-38.75
X36.8Y-143.6
X37.5Y-28.75
X37.5Y-29.75
X38.1Y-141.0
X39.25Y-29.0
X39.3Y-143.5
X39.5Y-30.25
X39.75Y-44.5
X40.7Y-146.2
X41.5Y-141.0
X41.6Y-48.1
X41.8Y-51.6
X42.6Y-122.6
X42.75Y-44.5
X43.0Y-97.0
X43.0Y-141.0
X43.25Y-113.0
X44.0Y-15.9
X44.1Y-48.4
X44.5Y-146.0
X44.7Y-51.3
X44.7Y-109.9
X44.7Y-127.4
X44.862Y-25.962
X45.0Y-13.6
X45.0Y-44.25
X45.4Y-141.2
X45.862Y-24.962
X46.2Y-68.6
X46.3Y-119.7
X46.663Y-24.162
X47.0Y-37.9
X47.0Y-47.4
X47.3Y-112.4
X47.5Y-145.75
X47.6Y-29.0
X47.75Y-21.25
X48.0Y-141.3
X48.1Y-80.6
X48.4Y-25.5
X48.75Y-146.25
X49.2Y-39.9
X49.6Y-38.1
X49.8Y-157.3
X50.7Y-16.1
X50.75Y-19.5
X50.8Y-128.3
X51.5Y-143.25
X51.7Y-27.5
X51.8Y-40.8
X52.0Y-20.5
X52.1Y-39.8
X53.2Y-32.7
X53.4Y-25.9
X54.6Y-31.4
X54.6Y-48.5
X54.6Y-86.2
X55.4Y-31.4
X55.6Y-32.5
X55.7Y-13.7
X55.75Y-146.0
X55.9Y-16.0
X55.9Y-28.0
X56.0Y-26.9
X56.4Y-141.1
X56.5Y-143.5
X57.5Y-48.0
X58.9Y-39.9
X59.0Y-141.0
X59.0Y-146.75
X59.75Y-146.0
X59.9Y-40.4
X60.7Y-40.1
X60.8Y-40.9
X61.0Y-141.1
X61.1Y-34.2
X62.0Y-146.25
X62.2Y-33.5
X62.4Y-70.0
X62.5Y-143.5
X62.8Y-32.8
X63.6Y-24.9
X65.0Y-21.75
X65.5Y-143.5
X65.75Y-20.25
X66.35Y-27.3
X66.6Y-37.1
X66.8Y-15.2
X67.2Y-158.8
X67.5Y-21.0
X67.5Y-50.0
X68.1Y-138.4
X68.2Y-26.9
X68.4Y-37.1
X68.75Y-101.75
X68.9Y-33.2
X69.4Y-40.2
X69.9Y-139.9
X70.2Y-25.3
X70.6Y-51.4
X70.75Y-143.25
X71.0Y-39.0
X72.8Y-50.6
X74.2Y-139.9
X74.25Y-143.25
X74.7Y-81.3
X74.8Y-33.4
X74.8Y-50.5
X74.9Y-35.2
X75.9Y-135.7
X76.4Y-135.3
X77.75Y-143.25
X77.9Y-130.2
X78.25Y-82.75
X79.4Y-26.8
X79.4Y-34.1
X79.5Y-50.3
X80.5Y-14.7
X80.6Y-28.4
X81.2Y-32.3
X81.3Y-35.1
X82.0Y-27.9
X82.5Y-14.6
X82.7Y-32.9
X83.7Y-35.3
X84.0Y-50.2
X84.4Y-155.7
X86.2Y-49.3
X87.25Y-145.0
X88.8Y-14.6
X90.5Y-145.0
X90.8Y-14.0
X91.3Y-49.6
X91.75Y-146.0
X94.0Y-50.8
X94.1Y-19.4
X96.0Y-50.9
X97.7Y-51.5
X99.2Y-14.7
X99.75Y-144.75
X99.9Y-51.1
X100.0Y-84.0
X100.4Y-14.1
X101.15Y-32.85
X101.4Y-50.8
X101.75Y-106.25
X101.8Y-18.7
X101.8Y-39.7
X102.65Y-33.6
X102.75Y-34.5
X103.5Y-51.4
X104.25Y-33.0
X104.6Y-14.6
X104.6Y-39.8
X104.8Y-50.5
X105.75Y-108.0
X106.0Y-50.9
X106.25Y-146.25
X106.5Y-92.0
X106.5Y-145.5
X107.5Y-146.0
X107.9Y-27.9
X108.3Y-50.6
X108.6Y-15.0
X108.8Y-19.6
X108.8Y-25.4
X109.0Y-145.5
X109.6Y-40.1
X110.7Y-51.0
X112.141Y-22.162
X112.7Y-15.4
X112.8Y-22.2
X113.6Y-16.55
X113.6Y-22.2
X114.0Y-155.6
X114.1Y-50.5
X115.04Y-24.0
X115.9Y-39.8
X116.0Y-46.9
X116.5Y-146.0
X116.75Y-146.5
X116.828Y-21.172
X117.5Y-24.0
X117.6Y-21.2
X117.7Y-27.9
X118.25Y-21.2
X119.0Y-138.25
X119.25Y-146.0
X119.85Y-24.25
X120.0Y-17.17
X120.5Y-145.75
X120.5Y-146.75
X121.0Y-17.17
X121.0Y-32.6
X121.25Y-155.0
X122.0Y-17.17
X122.4Y-27.4
X122.7Y-47.4
X124.75Y-89.5
X125.5Y-26.4
X125.9Y-51.0
X127.5Y-20.382
X127.9Y-38.3
X128.2Y-46.5
X128.5Y-20.382
X129.2Y-35.9
X129.25Y-140.0
X129.428Y-20.382
X129.6Y-51.2
X130.0Y-146.0
X130.5Y-146.5
X132.0Y-24.5
X132.1Y-42.5
X132.2Y-46.5
X132.25Y-104.0
X132.5Y-38.7
X133.2Y-35.2
X133.25Y-146.0
X133.5Y-24.0
X134.375Y-28.125
X134.4Y-26.7
X134.5Y-33.0
X135.456Y-17.956
X135.5Y-116.75
X135.5Y-128.1
X136.2Y-42.4
X136.6Y-18.2
X136.8Y-40.7
X136.8Y-46.8
X137.0Y-19.4
X137.0Y-89.0
X137.1Y-32.5
X137.2Y-18.8
X137.7Y-19.2
X137.7Y-23.2
X137.75Y-145.75
X138.1Y-51.4
X138.2Y-137.9
X138.75Y-146.5
X139.15Y-30.65
X139.5Y-23.6
X139.5Y-24.6
X139.5Y-38.2
X139.6Y-17.0
X139.8Y-47.3
X139.9Y-155.5
X140.2Y-42.3
X140.3Y-46.6
X140.4Y-35.0
X140.4Y-40.4
X140.4Y-129.9
X140.5Y-41.7
X140.6Y-31.7
X140.9Y-34.7
X141.0Y-20.2
X141.3Y-137.3
X141.8Y-17.5
X141.8Y-18.7
X141.9Y-33.9
X142.0Y-25.2
X142.1Y-23.8
X142.1Y-34.7
X142.35Y-26.5
X142.45Y-27.75
X142.5Y-130.6
X144.2Y-130.6
X144.6Y-38.3
X145.285Y-17.385
X145.4Y-38.9
X145.45Y-36.2
X145.79Y-16.88
X145.8Y-31.95
X145.8Y-46.9
X145.9Y-25.8
X146.0Y-146.5
X146.1Y-37.3
X146.25Y-145.75
X146.285Y-16.385
X146.3Y-38.3
X146.6Y-26.7
X146.6Y-35.6
X147.15Y-36.65
X147.2Y-27.6
X147.25Y-32.55
X147.3Y-56.1
X147.4Y-35.3
X147.5Y-37.5
X148.0Y-22.5
X148.2Y-32.125
X148.35Y-30.05
X148.5Y-43.4
X148.6Y-56.1
X148.75Y-146.25
X148.9Y-23.4
X149.3Y-56.0
X149.4Y-47.8
X149.75Y-99.75
X150.35Y-30.9
X150.4Y-35.2
X150.4Y-42.2
X151.0Y-145.75
X151.2Y-45.7
X151.5Y-27.0
X151.65Y-32.35
X151.7Y-138.0
X152.2Y-44.6
X152.4Y-35.6
X152.5Y-27.0
X152.508Y-17.108
X152.7Y-48.1
X152.75Y-31.3
X153.2Y-35.2
X153.2Y-43.5
X153.243Y-30.253
X153.4Y-20.1
X153.5Y-27.0
X154.0Y-22.5
X154.0Y-23.5
X154.083Y-17.033
X154.1Y-27.95
X154.25Y-148.75
X154.3Y-20.7
X154.4Y-37.6
X154.5Y-39.0
X154.7Y-135.8
X154.8Y-21.975
X155.0Y-37.0
X155.0Y-48.1
X155.2Y-36.2
X155.3Y-35.3
X155.825Y-16.925
X157.3Y-138.4
X157.4Y-17.2
X157.5Y-156.3
X157.8Y-51.3
X158.1Y-20.925
X158.1Y-140.2
X158.2Y-17.9
X158.237Y-16.262
X158.25Y-97.75
X158.3Y-50.8
X158.8Y-37.4
X158.8Y-38.2
X159.0Y-31.5
X159.0Y-39.0
X159.0Y-146.0
X159.8Y-30.3
X159.9Y-29.4
X160.0Y-24.8
X160.0Y-25.5
X160.0Y-26.2
X160.2Y-139.8
X161.5Y-50.6
X162.1Y-57.4
X162.5Y-145.5
X162.6Y-46.4
X162.75Y-148.5
X163.2Y-22.8
X163.3Y-16.5
X163.3Y-39.7
X163.4Y-28.9
X163.4Y-46.4
X164.0Y-29.5
X164.2Y-36.0
X164.2Y-48.3
X164.3Y-46.4
X164.4Y-65.8
X164.6Y-17.7
X164.6Y-23.6
X164.6Y-39.8
X164.9Y-24.2
X164.9Y-42.5
X165.0Y-16.9
X165.0Y-22.0
X165.25Y-146.25
X165.4Y-141.5
X165.5Y-21.0
X165.5Y-33.4
X165.75Y-110.5
X165.9Y-34.2
X166.3Y-16.6
X166.3Y-48.2
X166.4Y-51.0
X166.5Y-21.5
X166.5Y-43.4
X166.6Y-39.8
X166.7Y-65.3
X166.8Y-46.1
X167.0Y-29.0
X167.0Y-48.3
X167.0Y-145.75
X167.25Y-77.0
X167.5Y-29.5
X167.8Y-35.8
X167.9Y-42.5
X168.0Y-30.0
X168.3Y-58.6
X168.5Y-39.7
X168.8Y-35.0
X169.0Y-31.0
X169.1Y-45.7
X169.75Y-148.75
X170.0Y-20.5
X170.108Y-32.092
X170.4Y-39.7
X170.8Y-43.0
X171.2Y-46.1
X171.8Y-26.5
X171.8Y-46.6
X172.0Y-42.1
X172.1Y-39.7
X172.25Y-154.0
X172.456Y-19.044
X172.6Y-24.8
X173.0Y-16.6
X173.4Y-51.2
X173.5Y-25.8
X173.6Y-21.5
X173.6Y-46.3
X173.8Y-17.23
X173.87Y-19.77
X174.4Y-39.7
X174.682Y-36.666
X175.1Y-26.2
X175.1Y-141.0
X175.2Y-32.3
X175.377Y-37.361
X175.5Y-41.2
X175.5Y-43.5
X175.818Y-38.028
X176.0Y-146.0
X176.1Y-26.6
X176.75Y-148.75
X177.6Y-141.0
X177.75Y-145.75
X177.9Y-48.1
X178.1Y-34.1
X178.1Y-44.5
X178.2Y-43.8
X178.5Y-18.0
X178.5Y-32.6
X178.5Y-49.0
X178.6Y-45.7
X178.7Y-50.1
X178.8Y-51.2
X179.5Y-40.1
X179.55Y-45.1
X180.1Y-47.3
X180.1Y-141.0
X180.3Y-14.0
X180.55Y-46.35
X180.6Y-32.6
X180.75Y-146.25
X180.9Y-33.6
X181.2Y-43.0
X181.5Y-141.0
X181.75Y-145.5
X181.9Y-15.1
X182.1Y-21.8
X182.2Y-14.2
X182.2Y-19.8
X182.3Y-24.5
X182.9Y-24.7
X183.1Y-14.7
X183.4Y-50.1
X183.8Y-26.9
X184.4Y-42.7
X184.5Y-136.5
X184.6Y-50.1
X184.8Y-41.5
X185.0Y-25.4
X185.69Y-19.319
X186.1Y-53.4
X186.6Y-13.9
X186.6Y-40.8
X186.7Y-53.1
X186.9Y-43.7
X187.3Y-23.8
X187.5Y-29.5
X187.5Y-53.5
X187.9Y-14.0
X188.1Y-42.6
X188.25Y-148.5
X188.4Y-155.2
X188.5Y-54.3
X188.6Y-21.8
X188.6Y-24.1
X188.6Y-50.0
X188.7Y-141.0
X188.8Y-54.9
X189.0Y-29.5
X189.3Y-21.7
X189.3Y-55.4
X190.0Y-24.0
X190.0Y-42.0
X190.0Y-127.0
X190.1Y-51.9
X190.15Y-47.75
X190.25Y-45.1
X190.3Y-21.8
X190.4Y-46.6
X190.5Y-29.5
X190.7Y-51.3
X190.862Y-146.987
X190.9Y-52.4
X191.0Y-30.3
X191.2Y-14.1
X191.3Y-140.8
X191.561Y-26.061
X191.8Y-29.0
X192.0Y-148.75
X192.061Y-25.561
X192.09Y-19.319
X192.3Y-34.3
X192.5Y-33.7
X193.75Y-136.75
X193.9Y-26.4
X194.061Y-23.561
X194.6Y-33.4
X194.8Y-67.9
X194.9Y-25.4
X195.1Y-32.3
X195.2Y-16.0
X195.3Y-40.6
X195.3Y-43.1
X195.5Y-16.912
X195.5Y-29.5
X195.7Y-24.8
X195.8Y-141.4
X196.0Y-18.2
X196.0Y-29.2
X196.3Y-27.9
X196.3Y-35.0
X196.5Y-30.0
X196.8Y-23.9
X196.85Y-34.45
X197.0Y-69.3
X197.3Y-34.0
X198.1Y-41.0
X198.25Y-148.5
X198.5Y-55.6
X198.5Y-58.7
X198.5Y-141.3
X199.1Y-69.4
X199.5Y-43.5
X200.0Y-21.6
X200.0Y-30.2
X200.0Y-70.4
X200.3Y-16.4
X200.3Y-64.4
X200.5Y-17.3
X200.8Y-40.1
X201.05Y-13.1
X201.2Y-152.7
X201.25Y-21.574
X201.4Y-55.4
X202.2Y-34.0
X202.3Y-154.7
X202.8Y-34.0
X203.4Y-68.1
X203.5Y-34.0
X203.5Y-135.25
X203.5Y-148.75
X204.0Y-49.4
X204.65Y-15.55
X204.7Y-75.2
X204.8Y-43.1
X204.9Y-26.5
X204.9Y-30.7
X205.0Y-13.2
X205.1Y-15.1
X205.25Y-138.5
X205.3Y-69.0
X205.4Y-39.9
X205.5Y-14.7
X205.5Y-121.0
X205.9Y-26.5
X206.1Y-48.6
X206.2Y-13.6
X206.4Y-18.7
X206.4Y-19.6
X206.7Y-17.8
X206.8Y-76.0
X206.9Y-26.5
X207.0Y-13.2
X207.1Y-71.1
X207.3Y-43.6
X208.4Y-31.7
X208.9Y-34.1
X209.0Y-140.25
X209.6Y-34.7
X209.9Y-43.8
X209.9Y-74.3
X210.4Y-58.7
X210.5Y-63.2
X210.5Y-103.75
X210.6Y-98.45
X210.75Y-125.0
X211.2Y-29.3
X211.2Y-48.9
X211.3Y-61.6
X211.4Y-75.6
X212.55Y-138.15
X212.7Y-65.5
X212.8Y-82.6
X213.0Y-139.25
X213.25Y-110.5
X213.3Y-39.9
X213.7Y-48.9
X213.7Y-77.5
X213.8Y-131.6
X214.2Y-61.5
X214.25Y-114.75
X214.5Y-53.9
X214.5Y-148.75
X214.7Y-67.1
X214.9Y-28.1
X214.9Y-40.3
X214.9Y-79.2
X215.1Y-34.1
X215.5Y-127.0
X215.7Y-48.9
X216.1Y-41.0
X216.1Y-140.0
X216.2Y-156.3
X216.4Y-29.3
X216.5Y-118.0
X216.6Y-43.0
X217.4Y-17.2
X217.5Y-101.4
X217.5Y-148.75
X217.6Y-52.8
X217.75Y-139.0
X217.9Y-34.5
X218.0Y-43.6
X218.3Y-102.3
X218.4Y-31.4
X218.7Y-43.9
X219.3Y-101.9
X220.0Y-90.0
X220.0Y-120.5
X220.0Y-139.0
X220.0Y-148.75
X220.2Y-19.0
X220.5Y-17.8
X220.5Y-84.5
X220.55Y-105.35
X220.7Y-40.4
X220.75Y-89.75
X221.0Y-85.25
X221.25Y-90.5
X221.5Y-139.5
X222.0Y-90.0
X222.0Y-97.0
X222.1Y-39.8
X222.25Y-85.75
X222.8Y-28.4
X222.9Y-40.9
X223.0Y-148.75
X223.3Y-43.3
X223.5Y-13.1
X223.5Y-24.2
X223.7Y-58.1
X224.0Y-80.5
X224.0Y-139.25
X224.1Y-34.5
X224.3Y-43.8
X225.0Y-75.75
X225.6Y-118.6
X225.75Y-77.0
X226.0Y-75.75
X226.0Y-103.0
X226.3Y-34.5
X226.3Y-61.3
X226.5Y-139.25
X227.0Y-43.4
X227.0Y-103.0
X227.2Y-24.2
X227.3Y-109.7
X227.7Y-29.6
X227.7Y-101.7
X227.9Y-27.3
X228.0Y-130.5
X228.0Y-148.5
X228.2Y-34.5
X228.25Y-139.25
X228.65Y-49.25
X228.7Y-24.2
X228.75Y-122.25
X229.2Y-65.0
X229.4Y-154.3
X229.5Y-27.5
X229.5Y-146.75
X229.5Y-148.75
X229.7Y-48.6
X230.0Y-140.55
X230.1Y-24.2
X230.1Y-34.4
X230.183Y-139.483
X230.25Y-125.5
X230.5Y-49.2
X230.65Y-141.45
X230.9Y-29.0
X231.2Y-16.4
X231.5Y-148.75
X231.6Y-24.2
X231.7Y-12.9
X231.9Y-48.8
X232.0Y-146.75
X232.5Y-40.3
X233.0Y-101.8
X233.0Y-124.25
X233.5Y-139.25
X233.5Y-146.75
X233.6Y-24.2
X233.6Y-76.4
X233.7Y-60.6
X233.8Y-34.5
X233.8Y-52.3
X233.9Y-103.3
X234.3Y-67.6
X234.5Y-139.25
X234.5Y-148.75
X234.8Y-78.6
X234.9Y-43.7
X235.0Y-80.1
X235.4Y-24.2
X235.5Y-62.6
X235.6Y-104.8
X235.9Y-52.2
X236.5Y-122.5
X236.6Y-112.8
X236.7Y-135.2
X236.75Y-148.75
X236.8Y-54.7
X237.1Y-24.2
X237.1Y-40.5
X237.4Y-34.4
X237.4Y-102.5
X237.6Y-43.5
X237.8Y-72.0
X238.0Y-49.0
X238.05Y-146.35
X238.175Y-145.425
X238.2Y-147.25
X238.5Y-64.2
X238.5Y-65.7
X238.6Y-55.7
X238.6Y-57.4
X238.6Y-69.4
X239.0Y-49.0
X239.0Y-72.1
X239.0Y-77.2
X239.1Y-108.4
X239.35Y-54.55
X239.6Y-103.9
X239.7Y-24.2
X239.75Y-49.0
X239.8Y-72.4
X240.1Y-80.3
X240.25Y-115.5
X240.25Y-117.25
X240.3Y-40.5
X240.35Y-71.5
X240.4Y-34.6
X240.4Y-99.15
X240.5Y-49.0
X240.7Y-52.9
X240.8Y-82.5
X240.8Y-109.4
X241.0Y-13.0
X241.0Y-148.6
X241.1Y-105.0
X241.25Y-49.0
X241.7Y-59.9
X241.9Y-18.2
X242.0Y-120.0
X242.4Y-43.7
X242.8Y-148.425
X242.9Y-59.8
X242.9Y-159.3
X243.4Y-40.7
X243.5Y-13.2
X243.6Y-26.5
X243.7Y-31.1
X243.75Y-153.5
X243.95Y-103.05
X244.3Y-26.5
X244.5Y-154.2
X244.7Y-114.6
X244.8Y-43.8
X244.8Y-51.2
X245.0Y-26.5
X245.0Y-31.2
X245.0Y-101.0
X245.0Y-121.75
X245.1Y-116.1
X245.2Y-77.7
X245.25Y-154.5
X245.4Y-51.2
X245.5Y-153.1
X245.637Y-153.786
X246.0Y-51.2
X246.0Y-122.5
X246.5Y-101.0
X246.9Y-31.8
X246.9Y-158.8
X247.0Y-79.6
X247.0Y-111.0
X247.0Y-151.6
X247.2Y-55.9
X247.2Y-63.6
X247.2Y-102.5
X247.25Y-116.5
X247.35Y-146.35
X247.6Y-101.7
X247.7Y-40.0
X247.8Y-43.5
X248.0Y-58.5
X248.1Y-80.4
X248.15Y-96.4
X248.25Y-112.0
X248.3Y-101.6
X248.3Y-102.7
X248.4Y-17.6
X248.4Y-64.8
X248.4Y-104.5
X248.4Y-106.7
X248.6Y-102.1
X248.7Y-146.95
X248.8Y-75.8
X249.0Y-104.5
X249.0Y-117.75
X249.2Y-22.8
X249.2Y-24.0
X249.25Y-114.0
X249.25Y-125.5
X249.325Y-106.725
X249.4Y-146.2
X249.7Y-153.1
X249.75Y-119.0
X249.75Y-152.25
X249.9Y-76.8
X249.95Y-93.8
X250.1Y-107.8
X250.2Y-64.6
X250.3Y-12.9
X250.4Y-151.4
X250.5Y-96.15
X250.5Y-120.0
X250.6Y-77.4
X250.6Y-91.9
X250.8Y-89.6
X250.9Y-86.9
X251.0Y-43.8
X251.0Y-115.25
X251.1Y-17.7
X251.2Y-40.2
X252.0Y-77.65
X252.2Y-44.0
X252.6Y-79.5
X252.6Y-84.2
X252.6Y-108.25
X252.7Y-87.6
X252.7Y-90.1
X252.7Y-93.4
X252.7Y-95.7
X252.8Y-13.1
X252.8Y-77.7
X252.9Y-85.7
X253.15Y-110.45
X253.2Y-79.9
X253.25Y-98.8
X253.25Y-147.75
X253.3Y-160.0
X253.5Y-69.7
X253.5Y-140.25
X253.5Y-149.6
X253.75Y-151.0
X253.9Y-34.4
X254.4Y-32.0
X254.53Y-150.951
X255.0Y-31.0
X255.15Y-110.45
X255.2Y-105.4
X255.2Y-150.75
X255.25Y-98.8
X255.35Y-93.85
X255.5Y-119.25
X255.5Y-156.5
X255.6Y-79.4
X255.7Y-71.6
X255.9Y-34.5
X255.956Y-123.044
X256.0Y-110.85
X256.0Y-120.0
X256.4Y-32.2
X256.6Y-76.1
X256.7Y-39.9
X256.75Y-120.25
X256.9Y-127.15
X257.0Y-147.0
X257.0Y-151.0
X257.0Y-154.5
X257.1Y-39.2
X257.1Y-95.1
X257.1Y-97.2
X257.2Y-43.4
X257.3Y-89.3
X257.3Y-91.2
X257.6Y-34.9
X257.75Y-142.25
X257.9Y-12.9
X257.9Y-23.8
X258.0Y-143.0
X258.1Y-77.6
X258.2Y-43.4
X258.5Y-108.8
X258.5Y-115.75
X258.5Y-156.5
X258.6Y-128.8
X258.7Y-55.3
X259.0Y-14.6
X259.0Y-16.6
X259.0Y-18.6
X259.0Y-69.2
X259.0Y-114.0
X259.0Y-143.0
X259.1Y-83.7
X259.2Y-85.4
X259.25Y-142.0
X259.3Y-160.5
X259.4Y-126.6
X259.5Y-88.7
X259.5Y-117.0
X259.65Y-100.85
X259.7Y-129.8
X259.8Y-90.7
X260.0Y-25.7
X260.3Y-24.7
X260.5Y-115.75
X260.5Y-127.7
X260.7Y-60.1
X261.2Y-92.6
X261.25Y-112.25
X261.4Y-128.6
X261.5Y-33.9
X261.6Y-25.9
X261.6Y-35.0
X261.6Y-58.9
X261.6Y-69.9
X261.7Y-77.6
X261.75Y-126.0
X261.8Y-105.7
X261.8Y-119.2
X262.0Y-132.75
X262.05Y-122.45
X262.25Y-156.5
X262.3Y-23.3
X262.3Y-100.4
X262.35Y-119.95
X262.5Y-126.75
X262.7Y-152.6
X262.75Y-113.5
X262.75Y-145.0
X262.8Y-82.3
X262.9Y-43.8
X263.0Y-133.5
X263.0Y-137.2
X263.2Y-24.8
X263.2Y-72.2
X263.25Y-142.0
X263.3Y-43.2
X263.3Y-107.5
X263.3Y-154.4
X263.4Y-29.8
X263.4Y-118.2
X263.45Y-130.55
X263.6Y-79.6
X263.7Y-39.3
X263.75Y-114.25
X263.75Y-127.75
X263.75Y-143.0
X263.9Y-60.2
X264.0Y-140.4
X264.2Y-31.3
X264.2Y-89.4
X264.2Y-131.4
X264.25Y-134.75
X264.3Y-29.7
X264.3Y-108.4
X264.3Y-119.35
X264.5Y-24.0
X264.5Y-140.9
X264.75Y-129.0
X264.75Y-156.25
X264.8Y-50.0
X264.8Y-132.0
X264.8Y-147.55
X265.0Y-49.2
X265.0Y-91.0
X265.0Y-97.2
X265.0Y-111.8
X265.0Y-122.25
X265.0Y-135.5
X265.15Y-26.85
X265.2Y-78.2
X265.5Y-132.6
X265.5Y-154.4
X265.5Y-156.5
X265.75Y-26.25
X266.0Y-49.8
X266.0Y-116.5
X266.0Y-131.15
X266.2Y-39.6
X266.2Y-40.4
X266.2Y-133.4
X266.25Y-113.25
X266.3Y-25.7
X266.3Y-46.6
X266.4Y-82.4
X266.4Y-121.45
X266.45Y-123.95
X266.5Y-85.8
X266.5Y-131.6
X266.5Y-147.5
X266.55Y-45.2
X266.6Y-101.5
X266.6Y-105.0
X266.6Y-118.6
X266.8Y-57.4
X266.8Y-58.4
X266.8Y-59.25
X266.8Y-69.6
X266.8Y-70.8
X266.8Y-71.8
X266.8Y-144.6
X266.8Y-150.4
X267.2Y-119.4
X267.3Y-91.5
X267.5Y-111.5
X267.5Y-114.25
X267.5Y-125.2
X267.5Y-143.0
X267.5Y-155.75
X267.567Y-138.933
X267.75Y-156.25
X267.9Y-62.7
X267.9Y-118.8
X268.0Y-21.8
X268.0Y-75.4
X268.0Y-132.75
X268.1Y-67.3
X268.1Y-98.6
X268.15Y-20.05
X268.25Y-115.25
X268.25Y-123.45
X268.3Y-66.2
X268.4Y-34.4
X268.4Y-79.6
X268.4Y-125.8
X268.5Y-76.4
X268.6Y-15.3
X268.6Y-102.0
X268.7Y-110.85
X268.75Y-46.0
X268.75Y-132.5
X269.0Y-66.4
X269.0Y-120.75
X269.2Y-124.5
X269.25Y-49.25
X269.25Y-112.5
X269.25Y-116.0
X269.25Y-133.5
X269.3Y-126.8
X269.5Y-46.75
X269.5Y-57.25
X269.5Y-121.5
X269.6Y-21.2
X269.7Y-34.4
X269.7Y-80.0
X270.0Y-50.0
X270.0Y-121.25
X270.0Y-131.0
X270.25Y-46.5
X270.25Y-55.75
X270.25Y-112.25
X270.25Y-134.5
X270.4Y-75.0
X270.5Y-49.25
X270.5Y-125.7
X270.576Y-138.819
X270.7Y-142.7
X270.711Y-140.911
X270.735Y-141.735
X270.75Y-58.5
X270.75Y-149.25
X270.75Y-150.5
X270.75Y-151.25
X271.0Y-75.6
X271.1Y-160.7
X271.155Y-66.245
X271.25Y-156.5
X271.45Y-76.05
X271.5Y-82.6
X271.75Y-112.5
X272.0Y-57.0
X272.0Y-60.7
X272.0Y-91.6
X272.05Y-76.65
X272.1Y-118.5
X272.155Y-67.245
X272.2Y-105.0
X272.25Y-58.75
X272.25Y-132.0
X272.25Y-136.75
X272.25Y-142.25
X272.3Y-127.7
X272.4Y-74.1
X272.5Y-133.0
X272.5Y-136.25
X272.5Y-154.0
X272.55Y-77.15
X272.7Y-104.3
X272.7Y-124.9
X272.7Y-150.8
X272.75Y-113.75
X272.75Y-143.5
X272.8Y-106.3
X272.8Y-118.8
X272.852Y-38.592
X273.0Y-24.3
X273.055Y-68.145
X273.1Y-41.7
X273.1Y-43.2
X273.134Y-37.844
X273.25Y-156.5
X273.3Y-118.5
X273.5Y-110.75
X273.5Y-124.25
X273.55Y-102.4
X273.7Y-27.9
X273.75Y-123.75
X273.8Y-21.5
X273.8Y-23.8
X273.8Y-34.7
X273.8Y-37.4
X273.8Y-41.7
X273.9Y-30.7
X274.0Y-46.5
X274.0Y-111.0
X274.0Y-147.0
X274.0Y-150.5
X274.0Y-154.5
X274.25Y-47.25
X274.25Y-49.25
X274.25Y-50.0
X274.334Y-42.125
X274.5Y-107.4
X274.5Y-133.75
X274.5Y-142.25
X274.5Y-143.0
X274.6Y-29.3
X274.702Y-128.498
X274.75Y-116.0
X274.75Y-132.0
X274.8Y-20.5
X274.9Y-125.9
X275.0Y-96.1
X275.0Y-97.7
X275.0Y-107.1
X275.0Y-112.25
X275.0Y-113.75
X275.0Y-119.8
X275.0Y-143.5
X275.0Y-156.5
X275.1Y-101.3
X275.1Y-104.8
X275.2Y-75.3
X275.2Y-109.3
X275.25Y-49.25
X275.25Y-83.5
X275.25Y-135.55
X275.25Y-142.25
X275.4Y-92.8
X275.5Y-46.5
X275.5Y-122.7
X275.5Y-132.75
X275.5Y-134.25
X275.6Y-21.1
X275.6Y-34.2
X275.6Y-125.7
X275.7Y-118.5
X275.75Y-49.75
X275.75Y-115.75
X275.8Y-101.9
X276.0Y-42.8
X276.0Y-53.25
X276.0Y-109.0
X276.0Y-110.75
X276.0Y-119.0
X276.0Y-138.5
X276.0Y-153.75
X276.2Y-123.2
X276.25Y-83.25
X276.4Y-76.6
X276.5Y-85.25
X276.6Y-39.3
X276.6Y-61.4
X276.7Y-150.5
X276.8Y-62.9
X276.85Y-127.65
X277.1Y-124.0
X277.25Y-129.75
X277.295Y-62.405
X277.3Y-76.1
X277.3Y-127.2
X277.5Y-53.75
X277.5Y-111.5
X277.5Y-116.0
X277.5Y-128.35
X277.587Y-107.38
X277.6Y-118.9
X277.6Y-123.5
X277.6Y-124.5
X277.7Y-57.0
X277.7Y-66.2
X277.7Y-137.4
X277.75Y-70.95
X277.75Y-132.0
X277.75Y-133.5
X277.75Y-135.25
X277.8Y-61.9
X277.8Y-74.3
X278.0Y-77.4
X278.0Y-139.0
X278.1Y-87.2
X278.25Y-57.55
X278.25Y-70.45
X278.5Y-62.5
X278.75Y-58.05
X278.75Y-69.5
X278.8Y-30.6
X278.9Y-40.2
X279.2Y-22.3
X279.25Y-68.75
X279.3Y-19.3
X279.3Y-23.4
X279.5Y-30.6
X279.5Y-46.5
X279.5Y-47.25
X279.5Y-49.25
X279.5Y-67.5
X279.5Y-99.1
X279.6Y-65.4
X279.75Y-133.5
X279.75Y-136.5
X279.8Y-41.7
X279.8Y-99.8
X279.9Y-29.7
X280.0Y-43.4
X280.0Y-56.25
X280.0Y-58.8
X280.0Y-72.0
X280.0Y-134.75
X280.0Y-147.5
X280.0Y-149.6
X280.0Y-153.0
X280.1Y-18.9
X280.1Y-20.1
X280.1Y-22.8
X280.2Y-125.1
X280.25Y-47.0
X280.25Y-49.75
X280.25Y-144.5
X280.4Y-124.2
X280.5Y-68.25
X280.5Y-71.5
X280.5Y-100.2
X280.8Y-19.9
X280.8Y-29.1
X281.0Y-49.25
X281.0Y-70.75
X281.0Y-72.0
X281.0Y-84.04
X281.0Y-85.0
X281.0Y-143.75
X281.0Y-144.5
X281.1Y-23.1
X281.1Y-91.2
X281.8Y-76.7
X281.9Y-75.2
X281.9Y-158.2
X282.4Y-127.2
X282.5Y-92.1
X282.6Y-75.9
X282.9Y-89.5
X283.0Y-77.3
X283.1Y-128.0
X283.1Y-138.85
X283.162Y-153.144
T2
X149.85Y-23.17
X149.85Y-24.57
X150.55Y-22.47
X150.55Y-23.87
X150.55Y-25.27
X151.25Y-23.17
X151.25Y-24.57
X151.95Y-22.47
X151.95Y-23.87
X151.95Y-25.27
X152.65Y-23.17
X152.65Y-24.57
T4
X17.43Y-34.45
X19.97Y-34.45
X22.51Y-34.45
X25.05Y-34.45
X27.59Y-34.45
X30.13Y-34.45
X32.67Y-34.45
X35.21Y-34.45
X37.75Y-34.45
X40.29Y-34.45
X42.83Y-34.45
X45.37Y-34.45
X47.91Y-34.45
X50.45Y-34.45
X198.5Y-26.5
X198.5Y-29.0
X198.5Y-31.5
X213.0Y-26.5
X213.0Y-31.5
X237.0Y-26.5
X237.0Y-29.0
X237.0Y-31.5
X251.5Y-26.5
X251.5Y-31.5
X282.5Y-102.3
X282.5Y-104.84
X282.5Y-107.38
X282.5Y-109.92
X282.5Y-112.46
X282.5Y-115.0
X282.5Y-117.54
X282.5Y-120.08
X282.5Y-122.62
X282.5Y-125.16
X283.0Y-13.9
X283.0Y-16.44
X283.0Y-18.98
X283.0Y-21.52
X283.0Y-24.06
X283.0Y-26.6
X283.0Y-29.14
X283.0Y-31.68
X283.0Y-34.22
X283.0Y-36.76
X283.0Y-39.3
X283.0Y-41.84
X283.0Y-44.38
X283.0Y-46.92
X283.0Y-49.46
X283.0Y-52.0
X283.0Y-54.54
X283.0Y-57.08
X283.0Y-59.62
X283.0Y-62.16
X283.0Y-64.7
X283.0Y-67.24
X283.0Y-69.78
X283.0Y-72.32
X283.0Y-80.0
X283.0Y-82.54
X283.0Y-85.08
T5
X233.925Y-151.65
X233.925Y-156.15
X240.425Y-151.65
X240.425Y-156.15
X270.5Y-19.05
X270.5Y-23.55
X270.5Y-27.6
X270.5Y-32.1
X277.0Y-19.05
X277.0Y-23.55
X277.0Y-27.6
X277.0Y-32.1
T6
X27.0Y-51.35
X30.5Y-51.35
X30.5Y-124.85
X57.0Y-51.35
X60.5Y-51.35
X60.5Y-124.85
X87.0Y-51.35
X90.5Y-51.35
X90.5Y-124.85
X117.0Y-51.35
X120.5Y-51.35
X120.5Y-124.85
X147.0Y-51.35
X150.5Y-51.35
X150.5Y-124.85
X177.0Y-51.35
X180.5Y-51.35
X180.5Y-124.85
T7
X22.5Y-141.0
X22.5Y-146.0
X35.0Y-141.0
X35.0Y-146.0
X52.5Y-141.0
X52.5Y-146.0
X65.0Y-141.0
X65.0Y-146.0
X82.5Y-141.0
X82.5Y-146.0
X95.0Y-141.0
X95.0Y-146.0
X112.5Y-141.0
X112.5Y-146.0
X125.0Y-141.0
X125.0Y-146.0
X142.5Y-141.0
X142.5Y-146.0
X155.0Y-141.0
X155.0Y-146.0
X172.5Y-141.0
X172.5Y-146.0
X185.0Y-141.0
X185.0Y-146.0
X193.75Y-57.5
X193.75Y-62.5
X193.75Y-82.5
X193.75Y-87.5
X193.75Y-107.5
X193.75Y-112.5
X206.25Y-57.5
X206.25Y-62.5
X206.25Y-82.5
X206.25Y-87.5
X206.25Y-107.5
X206.25Y-112.5
X218.75Y-57.5
X218.75Y-62.5
X218.75Y-82.5
X218.75Y-87.5
X218.75Y-107.5
X218.75Y-112.5
X231.25Y-57.5
X231.25Y-62.5
X231.25Y-82.5
X231.25Y-87.5
X231.25Y-107.5
X231.25Y-112.5
X243.75Y-57.5
X243.75Y-62.5
X243.75Y-82.5
X243.75Y-87.5
X243.75Y-107.5
X243.75Y-112.5
X256.25Y-57.5
X256.25Y-62.5
X256.25Y-82.5
X256.25Y-87.5
X256.25Y-107.5
X256.25Y-112.5
T9
X24.5Y-55.5
X24.5Y-120.7
X33.0Y-56.7
X33.0Y-119.5
X54.5Y-55.5
X54.5Y-120.7
X63.0Y-56.7
X63.0Y-119.5
X84.5Y-55.5
X84.5Y-120.7
X93.0Y-56.7
X93.0Y-119.5
X114.5Y-55.5
X114.5Y-120.7
X123.0Y-56.7
X123.0Y-119.5
X144.5Y-55.5
X144.5Y-120.7
X153.0Y-56.7
X153.0Y-119.5
X174.5Y-55.5
X174.5Y-120.7
X183.0Y-56.7
X183.0Y-119.5
T10
X59.5Y-24.5
X62.0Y-27.0
X67.0Y-24.5
X72.0Y-27.0
X74.5Y-24.5
X82.5Y-24.5
X85.0Y-27.0
X90.0Y-24.5
X95.0Y-27.0
X97.5Y-24.5
T11
X17.5Y-156.5
X17.8Y-26.55
X105.8Y-21.95
X132.15Y-155.25
X222.95Y-155.1
X264.7Y-17.25
T3
G00X117.29Y-14.97
M15
G01X117.29Y-14.17
M16
G05
G00X117.29Y-19.3
M15
G01X117.29Y-18.2
M16
G05
G00X125.93Y-14.97
M15
G01X125.93Y-14.17
M16
G05
G00X125.93Y-19.3
M15
G01X125.93Y-18.2
M16
G05
G00X184.57Y-14.964
M15
G01X184.57Y-14.164
M16
G05
G00X184.57Y-19.294
M15
G01X184.57Y-18.194
M16
G05
G00X193.21Y-14.964
M15
G01X193.21Y-14.164
M16
G05
G00X193.21Y-19.294
M15
G01X193.21Y-18.194
M16
G05
T8
G00X205.35Y-23.4
M15
G01X206.65Y-23.4
M16
G05
G00X205.35Y-34.6
M15
G01X206.65Y-34.6
M16
G05
G00X243.85Y-23.4
M15
G01X245.15Y-23.4
M16
G05
G00X243.85Y-34.6
M15
G01X245.15Y-34.6
M16
G05
M30
